<svg id="family" xmlns="http://www.w3.org/2000/svg" width="32.737" height="41.028" viewBox="0 0 32.737 41.028">
  <g id="Group_42887" data-name="Group 42887">
    <path id="Path_76335" data-name="Path 76335" d="M33.818,7.13a4.107,4.107,0,1,0,4.1,4.105,4.107,4.107,0,0,0-4.1-4.105Zm0,6.951a2.844,2.844,0,1,1,2.842-2.846A2.844,2.844,0,0,1,33.818,14.081Z" transform="translate(-25.71 -7.13)" fill="#b89535"/>
    <path id="Path_76336" data-name="Path 76336" d="M77.845,7.13a4.107,4.107,0,1,0,4.108,4.1,4.107,4.107,0,0,0-4.108-4.1Zm0,6.951a2.844,2.844,0,1,1,2.846-2.845A2.844,2.844,0,0,1,77.845,14.081Z" transform="translate(-53.858 -7.13)" fill="#b89535"/>
    <path id="Path_76337" data-name="Path 76337" d="M51.292,44.355l-1.32-7.117A6.6,6.6,0,0,0,43.49,31.85H41.726a6.637,6.637,0,0,0-5.356,2.756,4.023,4.023,0,0,0-2.319-.05,3.747,3.747,0,0,0-3.207-2.377H22.595c-2.042,0-3.975,2.857-3.975,5.879v9.05a2.077,2.077,0,0,0,2.074,2.074,2.1,2.1,0,0,0,.725-.13l-.512,11.535a3.227,3.227,0,0,0,5.822,2.06,3.208,3.208,0,0,0,4.841.39,2.411,2.411,0,0,0,1.641.913,2.438,2.438,0,0,0,2.042-.79,2.407,2.407,0,0,0,3.942-.519,2.092,2.092,0,0,0,3.412.718,2.1,2.1,0,0,0,3.564-1.306l.905-9.919H49.11a.634.634,0,0,0,.628-.714l-.39-2.976a3.851,3.851,0,0,0,1.944-4.087Zm-16.17-8.682a2.844,2.844,0,1,1-2.846,2.842,2.844,2.844,0,0,1,2.846-2.842Zm4.22,17.613a.483.483,0,0,1-.483.483.632.632,0,0,0-.631.631v7.048a1.22,1.22,0,0,1-1.053,1.241,1.17,1.17,0,0,1-1.291-1.165V54.946a.631.631,0,0,0-1.262,0v6.579a1.167,1.167,0,0,1-1.288,1.165,1.223,1.223,0,0,1-1.057-1.241V54.4a.63.63,0,0,0-.631-.631h-.263a.486.486,0,0,1-.483-.483V48.749a4.094,4.094,0,0,1,.141-1.078,4.22,4.22,0,0,1,8.3,1.078Zm2.633,8.574a.838.838,0,0,1-.837.837.847.847,0,0,1-.837-.761l-.649-7.1a1.752,1.752,0,0,0,.952-1.551V52.132h1.371Zm2.936.076a.839.839,0,0,1-1.674-.076V52.132h2.572Zm4.2-14.846-1.991-9.912a.631.631,0,1,0-1.237.249c.018.1.036.18.05.249a.039.039,0,0,0,0,.018c0,.007,0,.018,0,.025a.011.011,0,0,0,0,.007.032.032,0,0,0,0,.018c0,.011,0,.022,0,.032s0,.007,0,.014a.112.112,0,0,0,.007.029c0,.025.011.047.014.076,0,.007,0,.014,0,.022a.039.039,0,0,1,0,.018.159.159,0,0,1,.007.036.013.013,0,0,1,0,.011c.159.794.66,3.293,2.049,10.208l.35,2.68H40.6V48.749a5.484,5.484,0,1,0-10.969,0v4.538a1.748,1.748,0,0,0,1.378,1.706c.007,6.788-.011,6.457.014,6.709a1.961,1.961,0,0,1-3.668-.97V48.071a.631.631,0,1,0-1.262,0V60.742a1.965,1.965,0,1,1-3.928-.1l.592-13.36c0-.04,0-7.34.007-9.555a.631.631,0,0,0-1.262,0L21.5,47.212a.811.811,0,0,1-1.616-.1v-9.05c0-2.442,1.519-4.617,2.712-4.617h8.249a2.563,2.563,0,0,1,2.052,1.63,4.106,4.106,0,1,0,4.613.112,5.371,5.371,0,0,1,4.217-2.07H43.49a5.338,5.338,0,0,1,5.241,4.357l1.32,7.117a2.592,2.592,0,0,1-.941,2.5Z" transform="translate(-18.62 -22.934)" fill="#b89535"/>
  </g>
  <path id="Path_76338" data-name="Path 76338" d="M53.332,47.031v8.235a4.2,4.2,0,0,0-.909,1.706.619.619,0,0,1-.353-.563V47.031a.624.624,0,0,1,.581-.624.115.115,0,0,1,.05-.007.63.63,0,0,1,.631.631Z" transform="translate(-40.005 -32.235)" fill="#b89535"/>
</svg>
