<svg xmlns="http://www.w3.org/2000/svg" width="29.717" height="35.156" viewBox="0 0 29.717 35.156">
  <g id="flag" transform="translate(0.5 0.5)">
    <g id="Group_42885" data-name="Group 42885" transform="translate(0 2.611)">
      <path id="Path_76332" data-name="Path 76332" d="M5.65,35.545a1.455,1.455,0,0,1-1.45-1.45V5.45a1.45,1.45,0,1,1,2.9,0V34.095A1.5,1.5,0,0,1,5.65,35.545Z" transform="translate(-4.2 -4)" fill="#b89535" stroke="#f9f7f2" stroke-width="1"/>
    </g>
    <g id="Group_42886" data-name="Group 42886">
      <path id="Path_76333" data-name="Path 76333" d="M11.089,24.186a9.17,9.17,0,0,1-6.382-2.538A1.542,1.542,0,0,1,4.2,20.56V4.1a1.433,1.433,0,0,1,.87-1.305,1.459,1.459,0,0,1,1.523.218,6.617,6.617,0,0,0,4.5,1.813c2.176,0,4.5-1.015,6.889-2.1C20.589,1.56,23.2.4,26.028.4a9.17,9.17,0,0,1,6.382,2.538,1.542,1.542,0,0,1,.508,1.088V20.487a1.433,1.433,0,0,1-.87,1.305,1.459,1.459,0,0,1-1.523-.218,6.617,6.617,0,0,0-4.5-1.813c-2.176,0-4.5,1.015-6.889,2.1C16.528,22.953,13.845,24.113,11.089,24.186ZM7.028,19.907a6.475,6.475,0,0,0,4.061,1.45c2.176,0,4.5-1.015,6.889-2.1,2.611-1.16,5.221-2.321,8.049-2.321a8.791,8.791,0,0,1,4.061.943V4.751A6.475,6.475,0,0,0,26.028,3.3c-2.176,0-4.5,1.015-6.889,2.1-2.611,1.16-5.221,2.321-8.049,2.321a8.791,8.791,0,0,1-4.061-.943Z" transform="translate(-4.2 -0.4)" fill="#b89535" stroke="#f9f7f2" stroke-width="1"/>
    </g>
  </g>
</svg>
