<svg id="people" xmlns="http://www.w3.org/2000/svg" width="41.009" height="41.028" viewBox="0 0 41.009 41.028">
  <path id="Path_76334" data-name="Path 76334" d="M39.917,19.913H38.112V18.28a3.51,3.51,0,0,0-2.466-3.347,3.185,3.185,0,0,0-1.757-5.272V8.676a3.51,3.51,0,0,0-2.465-3.347,3.187,3.187,0,1,0-4.716,0,3.519,3.519,0,0,0-1.865,1.387A3.519,3.519,0,0,0,22.979,5.33a3.187,3.187,0,1,0-4.716,0A3.519,3.519,0,0,0,16.4,6.716,3.519,3.519,0,0,0,14.534,5.33a3.187,3.187,0,1,0-4.716,0A3.51,3.51,0,0,0,7.353,8.676v.985A3.185,3.185,0,0,0,5.6,14.933,3.51,3.51,0,0,0,3.131,18.28v1.634H1.325A1.207,1.207,0,0,0,.117,21.155v.008h0A20.515,20.515,0,0,0,31.91,37.644L34.2,35.887l-.8-.9s-1.883,1.471-2.16,1.654a19.233,19.233,0,0,1-10.626,3.186,19.753,19.753,0,0,1-3.228-.265,5.09,5.09,0,0,0-.951-2.015,10.859,10.859,0,0,1-1.012-1.809.6.6,0,0,0-1.115.449A11.8,11.8,0,0,0,15.435,38.2a9.02,9.02,0,0,1,.642,1.087,19.234,19.234,0,0,1-2.294-.708,13.937,13.937,0,0,1-1.435-1.773,5.946,5.946,0,0,1-.633-2.518c-.189-1.634-.4-3.485-2.192-4.355-2.509-1.219-3.447-2.073-4.368-3.977a2.068,2.068,0,0,0-2.027-1.295,3.612,3.612,0,0,1-1.444-.351,19.575,19.575,0,0,1-.359-3.2H5.412c-.031.293-.077.572-.119.831a2.54,2.54,0,0,0,.221,2.128,2.515,2.515,0,0,0,2.013.67c.451.008.961,0,1.5-.02,2.719-.073,6.1-.165,6.819,2.25a3.767,3.767,0,0,1-.707,3.607,7.394,7.394,0,0,0-1.118,2.45.6.6,0,1,0,1.175.252,6.238,6.238,0,0,1,.961-2.063A4.954,4.954,0,0,0,17,26.632a4.193,4.193,0,0,0-3.417-2.854A18.706,18.706,0,0,0,9,23.522c-.526.014-1.022.028-1.446.019-.864-.017-1.07-.186-1.113-.237-.125-.15-.04-.666.042-1.164.051-.313.107-.654.14-1.025H17.286a5.458,5.458,0,0,0,.965,3.144,3.869,3.869,0,0,0,3.2,1.224c.518.01,1,0,1.458,0,2.545-.026,3.213.1,3.4,1.307a15.327,15.327,0,0,1,.081,2.16,15.994,15.994,0,0,0,.243,3.546c.332,1.394,1.07,2.164,2.194,2.289,2.656.3,4.54-2.558,5.646-4.971a8.034,8.034,0,0,0,.465-2.1c.208-1.5.444-3.191,1.546-3.757a3.508,3.508,0,0,0,1.836-2.836h1.6a19.371,19.371,0,0,1-6.516,13.868.6.6,0,0,0,.8.9,20.426,20.426,0,0,0,6.922-14.732,1.193,1.193,0,0,0-.339-.874,1.217,1.217,0,0,0-.869-.368ZM3.029,25.859c.61.05.774.064,1.043.62C5.223,28.861,6.577,29.839,9,31.014c1.2.581,1.348,1.893,1.523,3.411a6.763,6.763,0,0,0,.842,3.069A19.165,19.165,0,0,1,2.01,25.706,5.818,5.818,0,0,0,3.029,25.859ZM36.91,18.28v1.633H29.667V18.28a2.3,2.3,0,0,1,2.3-2.3h2.639a2.3,2.3,0,0,1,2.3,2.3ZM19.55,12.315h2.142a3.184,3.184,0,0,0,.794,2.618,3.519,3.519,0,0,0-1.865,1.387,3.519,3.519,0,0,0-1.864-1.387,3.183,3.183,0,0,0,.794-2.618Zm1.672,5.964a2.3,2.3,0,0,1,2.3-2.3h2.639a2.3,2.3,0,0,1,2.3,2.3v1.633H21.222V18.28ZM27.2,14.933A3.184,3.184,0,0,0,28,12.315h2.142a3.184,3.184,0,0,0,.794,2.618,3.519,3.519,0,0,0-1.865,1.387A3.519,3.519,0,0,0,27.2,14.933Zm6.08-4.127h.007a2.028,2.028,0,1,1-.007,0ZM29.066,1.2a1.985,1.985,0,1,1-1.985,1.985A1.987,1.987,0,0,1,29.066,1.2ZM25.445,8.676a2.3,2.3,0,0,1,2.3-2.3h2.639a2.3,2.3,0,0,1,2.3,2.3v.985h0a3.2,3.2,0,0,0-2.107,1.452H27.553a3.2,3.2,0,0,0-2.109-1.452V8.676Zm-.608,2.129h.014a1.985,1.985,0,1,1-.014,0ZM20.621,1.2a1.985,1.985,0,1,1-1.985,1.985A1.987,1.987,0,0,1,20.621,1.2ZM17,8.676a2.3,2.3,0,0,1,2.3-2.3h2.639a2.3,2.3,0,0,1,2.3,2.3v.985a3.205,3.205,0,0,0-2.109,1.452H19.108A3.2,3.2,0,0,0,17,9.661V8.676Zm-.608,2.129h.014a1.985,1.985,0,1,1-.014,0ZM12.177,1.2a1.985,1.985,0,1,1-1.985,1.985A1.987,1.987,0,0,1,12.177,1.2ZM8.555,8.676a2.3,2.3,0,0,1,2.3-2.3H13.5a2.3,2.3,0,0,1,2.3,2.3v.985a3.2,3.2,0,0,0-2.109,1.452H10.664A3.2,3.2,0,0,0,8.557,9.661h0V8.676Zm-.6,2.129h.007a1.942,1.942,0,1,1-.007,0Zm3.621,7.474v1.633H4.333V18.28a2.3,2.3,0,0,1,2.3-2.3H9.274a2.3,2.3,0,0,1,2.3,2.3v0Zm.6-1.96a3.519,3.519,0,0,0-1.865-1.387,3.184,3.184,0,0,0,.794-2.618h2.142a3.184,3.184,0,0,0,.794,2.618A3.519,3.519,0,0,0,12.176,16.319Zm.6,3.594V18.278a2.3,2.3,0,0,1,2.3-2.3h2.639a2.3,2.3,0,0,1,2.3,2.3v1.633H12.778Zm23.161,2.972c-1.657.852-1.951,2.963-2.187,4.66a7.622,7.622,0,0,1-.367,1.77c-1.36,2.968-2.89,4.447-4.421,4.277-1.284-.143-1.378-2.1-1.367-4.636a16,16,0,0,0-.1-2.353,2.382,2.382,0,0,0-1.677-2.088,17.556,17.556,0,0,0-4.349-.234c-1.881-.036-2.762-.5-2.984-3.166l18.62,0a2.283,2.283,0,0,1-1.173,1.767Z" transform="translate(-0.117 0)" fill="#b89535"/>
</svg>
