<svg xmlns="http://www.w3.org/2000/svg" width="38.454" height="33.661" viewBox="0 0 38.454 33.661">
  <g id="Group_42884" data-name="Group 42884" transform="translate(0.265 0.25)">
    <g id="pawprint">
      <path id="Path_76081" data-name="Path 76081" d="M85.052,186.2a9.237,9.237,0,0,0-15.554,0l-4.113,6.417a5.847,5.847,0,0,0,7.275,8.508l.076-.034a11.494,11.494,0,0,1,9.154.034,5.815,5.815,0,0,0,2.346.5,5.892,5.892,0,0,0,1.309-.148,5.848,5.848,0,0,0,3.621-8.856ZM87,198.13a3.6,3.6,0,0,1-4.212.962,13.722,13.722,0,0,0-11.018,0l-.05.022a3.623,3.623,0,0,1-4.46-5.293L71.37,187.4a7.014,7.014,0,0,1,11.81,0l4.113,6.417A3.6,3.6,0,0,1,87,198.13Zm0,0" transform="translate(-59.683 -168.468)" fill="#b89535" stroke="#f9f7f2" stroke-width="0.5"/>
      <path id="Path_76082" data-name="Path 76082" d="M6.808,109.293a4.485,4.485,0,0,0,2.618-2.777,5.8,5.8,0,0,0-.1-4,5.8,5.8,0,0,0-2.6-3.032,4.485,4.485,0,0,0-3.8-.306c-2.458.945-3.586,3.982-2.514,6.772a5.417,5.417,0,0,0,4.872,3.622,4.247,4.247,0,0,0,1.532-.284ZM2.48,105.156c-.632-1.644-.077-3.393,1.238-3.9a2.062,2.062,0,0,1,.744-.137,2.508,2.508,0,0,1,1.2.322,3.572,3.572,0,0,1,1.59,1.877,3.57,3.57,0,0,1,.08,2.458,2.3,2.3,0,0,1-1.318,1.439h0c-1.313.506-2.9-.419-3.53-2.062Zm0,0" transform="translate(0 -91.567)" fill="#b89535" stroke="#f9f7f2" stroke-width="0.5"/>
      <path id="Path_76083" data-name="Path 76083" d="M129.986,12.7c3.073,0,5.572-2.848,5.572-6.349S133.058,0,129.986,0s-5.572,2.849-5.572,6.35S126.913,12.7,129.986,12.7Zm0-10.475c1.846,0,3.349,1.851,3.349,4.126s-1.5,4.125-3.349,4.125-3.348-1.851-3.348-4.125,1.5-4.126,3.348-4.126Zm0,0" transform="translate(-115.195 0)" fill="#b89535" stroke="#f9f7f2" stroke-width="0.5"/>
      <path id="Path_76084" data-name="Path 76084" d="M287.551,51.53h0a4.542,4.542,0,0,0,1.435.232,5.776,5.776,0,0,0,5.258-4.137,6.227,6.227,0,0,0-.089-4.3,4.711,4.711,0,0,0-6.984-2.321A6.226,6.226,0,0,0,284.53,44.4c-1.012,3.044.344,6.244,3.021,7.135ZM286.64,45.1a4,4,0,0,1,1.684-2.187,2.491,2.491,0,0,1,3.77,1.253,4,4,0,0,1,.04,2.76c-.625,1.88-2.366,3-3.881,2.5S286.015,46.977,286.64,45.1Zm0,0" transform="translate(-263.137 -37.272)" fill="#b89535" stroke="#f9f7f2" stroke-width="0.5"/>
      <path id="Path_76085" data-name="Path 76085" d="M384.97,171.9h0c-2.119-1.565-5.288-.887-7.065,1.513s-1.5,5.629.618,7.2a4.356,4.356,0,0,0,2.616.845,5.633,5.633,0,0,0,4.449-2.357C387.363,176.693,387.086,173.465,384.97,171.9Zm-1.169,5.873c-1.049,1.416-2.823,1.886-3.955,1.047s-1.2-2.671-.154-4.086a3.414,3.414,0,0,1,2.648-1.462,2.172,2.172,0,0,1,1.308.415c1.13.838,1.2,2.671.154,4.085Zm0,0" transform="translate(-348.821 -158.38)" fill="#b89535" stroke="#f9f7f2" stroke-width="0.5"/>
    </g>
  </g>
</svg>
