<svg xmlns="http://www.w3.org/2000/svg" width="31.776" height="26.011" viewBox="0 0 31.776 26.011">
  <g id="air-hockey" transform="translate(37.026 -13.25) rotate(90)">
    <path id="Path_76383" data-name="Path 76383" d="M37.532,5.25H14.98a1.782,1.782,0,0,0-1.73,1.825V35.2a1.782,1.782,0,0,0,1.73,1.825H37.532a1.782,1.782,0,0,0,1.73-1.825V7.075A1.782,1.782,0,0,0,37.532,5.25ZM38.364,35.2a.858.858,0,0,1-.833.879H14.98a.858.858,0,0,1-.833-.879V7.075A.858.858,0,0,1,14.98,6.2H37.532a.858.858,0,0,1,.833.879Z" transform="translate(0 0)" fill="#b89535"/>
    <path id="Path_76384" data-name="Path 76384" d="M82.522,37.109a2.475,2.475,0,1,0-2.475-2.475A2.475,2.475,0,0,0,82.522,37.109Zm0-3.791a1.316,1.316,0,1,1-1.316,1.316A1.316,1.316,0,0,1,82.522,33.317Z" transform="translate(-50.541 -19.87)" fill="#b89535"/>
    <path id="Path_76385" data-name="Path 76385" d="M41.629,13.522h-19.7a.44.44,0,0,0-.423.456V39.366a.44.44,0,0,0,.423.456h19.7a.44.44,0,0,0,.423-.456V13.978a.44.44,0,0,0-.423-.456Zm-11.875.912H33.8v1.573h-4.05Zm-.846,0v2.029a.474.474,0,0,0,.124.322.408.408,0,0,0,.3.133h4.9a.408.408,0,0,0,.3-.133.474.474,0,0,0,.124-.322V14.434h6.557V26.216H35.635a3.859,3.859,0,0,0-7.714,0h-5.57V14.434Zm5.906,12.238a3.043,3.043,0,1,1-3.035-3.27A3.159,3.159,0,0,1,34.813,26.672ZM33.8,38.91h-4.05V37.337H33.8Zm.846,0V36.881a.474.474,0,0,0-.124-.322.408.408,0,0,0-.3-.133h-4.9a.408.408,0,0,0-.3.133.474.474,0,0,0-.124.322V38.91H22.351V27.128h5.57a3.859,3.859,0,0,0,7.714,0h5.571V38.91Z" transform="translate(-5.523 -5.534)" fill="#b89535"/>
    <path id="Path_76386" data-name="Path 76386" d="M35.474,80.887a2.475,2.475,0,1,0,2.475,2.475A2.475,2.475,0,0,0,35.474,80.887Zm0,3.791a1.316,1.316,0,1,1,1.316-1.316A1.316,1.316,0,0,1,35.474,84.678Z" transform="translate(-14.943 -55.85)" fill="#b89535"/>
  </g>
</svg>
