<svg id="App_Store__iOS_-black" data-name="App_Store_(iOS)-black" xmlns="http://www.w3.org/2000/svg" width="137" height="45.795" viewBox="0 0 137 45.795">
  <path id="Path_101324" data-name="Path 101324" d="M126.09,0H10.916c-.42,0-.835,0-1.253,0-.35,0-.7.009-1.052.015a15.129,15.129,0,0,0-2.294.2A7.631,7.631,0,0,0,4.14.937,7.37,7.37,0,0,0,2.287,2.287,7.165,7.165,0,0,0,.938,4.142,7.557,7.557,0,0,0,.223,6.322,14.875,14.875,0,0,0,.017,8.614c-.011.351-.012.7-.017,1.054V36.131c.006.355.007.7.017,1.056a14.874,14.874,0,0,0,.205,2.292,7.542,7.542,0,0,0,.716,2.18,7.107,7.107,0,0,0,1.349,1.848A7.183,7.183,0,0,0,4.14,44.856a7.671,7.671,0,0,0,2.176.722,15.4,15.4,0,0,0,2.294.2c.354.008.7.012,1.052.012.419,0,.833,0,1.253,0H126.09c.412,0,.83,0,1.241,0,.349,0,.707,0,1.056-.012a15.2,15.2,0,0,0,2.29-.2,7.79,7.79,0,0,0,2.185-.722,7.187,7.187,0,0,0,1.851-1.349,7.321,7.321,0,0,0,1.353-1.848,7.561,7.561,0,0,0,.709-2.18,15.465,15.465,0,0,0,.213-2.292c0-.356,0-.7,0-1.055.009-.416.009-.83.009-1.252V10.918c0-.419,0-.835-.009-1.25,0-.351,0-.7,0-1.054a15.463,15.463,0,0,0-.212-2.292,7.577,7.577,0,0,0-.709-2.179,7.4,7.4,0,0,0-3.2-3.206,7.748,7.748,0,0,0-2.185-.718,14.934,14.934,0,0,0-2.29-.2C128.037.011,127.68,0,127.331,0c-.411,0-.829,0-1.241,0Z" transform="translate(0)"/>
  <path id="Path_101326" data-name="Path 101326" d="M27.226,21.634a5.892,5.892,0,0,1,2.806-4.943,6.031,6.031,0,0,0-4.752-2.569c-2-.21-3.937,1.2-4.956,1.2-1.038,0-2.607-1.176-4.3-1.141A6.328,6.328,0,0,0,10.7,17.425c-2.3,3.986-.585,9.845,1.621,13.068,1.1,1.578,2.393,3.34,4.081,3.278,1.651-.068,2.268-1.053,4.261-1.053,1.975,0,2.554,1.053,4.275,1.013,1.772-.029,2.889-1.585,3.953-3.178A13.051,13.051,0,0,0,30.7,26.871a5.693,5.693,0,0,1-3.475-5.237ZM23.974,12A5.8,5.8,0,0,0,25.3,7.847a5.9,5.9,0,0,0-3.819,1.976,5.52,5.52,0,0,0-1.362,4A4.88,4.88,0,0,0,23.974,12ZM47.038,29.935H41.619l-1.3,3.843h-2.3L43.155,19.56H45.54l5.133,14.217H48.338ZM42.18,28.161h4.3l-2.118-6.236H44.3Zm19.578.434c0,3.221-1.724,5.29-4.326,5.29a3.514,3.514,0,0,1-3.261-1.813h-.049v5.134H51.994V23.412h2.06v1.724h.039a3.677,3.677,0,0,1,3.3-1.832c2.631,0,4.365,2.08,4.365,5.292Zm-2.187,0c0-2.1-1.084-3.478-2.739-3.478-1.626,0-2.719,1.409-2.719,3.478,0,2.089,1.093,3.487,2.719,3.487,1.655,0,2.739-1.37,2.739-3.487Zm13.6,0c0,3.221-1.725,5.29-4.326,5.29a3.514,3.514,0,0,1-3.261-1.813H65.53v5.134H63.4V23.412h2.059v1.724H65.5A3.677,3.677,0,0,1,68.8,23.3c2.631,0,4.365,2.08,4.365,5.292Zm-2.187,0c0-2.1-1.085-3.478-2.739-3.478-1.626,0-2.719,1.409-2.719,3.478,0,2.089,1.093,3.487,2.719,3.487,1.655,0,2.739-1.37,2.739-3.487Zm9.726,1.221c.158,1.41,1.527,2.336,3.4,2.336,1.793,0,3.084-.926,3.084-2.2,0-1.1-.778-1.764-2.621-2.217l-1.843-.444c-2.611-.631-3.823-1.851-3.823-3.833,0-2.453,2.138-4.138,5.172-4.138,3.005,0,5.065,1.685,5.134,4.138H87.061c-.129-1.419-1.3-2.275-3.015-2.275s-2.887.867-2.887,2.128c0,1.005.749,1.6,2.582,2.049l1.566.385c2.917.69,4.128,1.862,4.128,3.941,0,2.66-2.118,4.326-5.487,4.326-3.153,0-5.282-1.627-5.419-4.2Zm13.322-8.857v2.453H96V25.1H94.028v5.714c0,.888.395,1.3,1.261,1.3a6.65,6.65,0,0,0,.7-.049v1.675a5.843,5.843,0,0,1-1.182.1c-2.1,0-2.917-.788-2.917-2.8V25.1H90.384V23.412h1.507V20.959ZM97.14,28.6c0-3.261,1.921-5.311,4.916-5.311s4.917,2.049,4.917,5.311-1.9,5.311-4.917,5.311S97.14,31.866,97.14,28.6Zm7.665,0c0-2.237-1.025-3.558-2.749-3.558s-2.749,1.33-2.749,3.558c0,2.246,1.025,3.556,2.749,3.556S104.805,30.841,104.805,28.6Zm3.922-5.183h2.029v1.764h.049A2.472,2.472,0,0,1,113.3,23.3a3.281,3.281,0,0,1,.729.079v1.99a2.974,2.974,0,0,0-.956-.129,2.144,2.144,0,0,0-2.217,2.385v6.148h-2.128Zm15.11,7.321c-.286,1.882-2.119,3.173-4.463,3.173-3.015,0-4.887-2.02-4.887-5.261s1.882-5.36,4.8-5.36c2.868,0,4.671,1.97,4.671,5.113v.729h-7.321v.129a2.7,2.7,0,0,0,2.788,2.936,2.345,2.345,0,0,0,2.394-1.458Zm-7.192-3.094h5.182a2.493,2.493,0,0,0-2.542-2.631,2.624,2.624,0,0,0-2.64,2.631ZM41.914,8.859a3.022,3.022,0,0,1,3.214,3.394c0,2.182-1.18,3.437-3.214,3.437H39.446V8.859Zm-1.406,5.865H41.8a2.148,2.148,0,0,0,2.253-2.457A2.153,2.153,0,0,0,41.8,9.825H40.507Zm5.819-1.614a2.442,2.442,0,1,1,4.862,0,2.443,2.443,0,1,1-4.862,0Zm3.816,0c0-1.118-.5-1.771-1.383-1.771s-1.382.653-1.382,1.771.5,1.775,1.382,1.775S50.143,14.233,50.143,13.111Zm7.51,2.58H56.6l-1.065-3.8h-.08l-1.061,3.8H53.345l-1.421-5.155h1.032l.924,3.934h.076l1.06-3.934h.976l1.06,3.934h.08l.919-3.934h1.017Zm2.611-5.155h.979v.819h.076a1.543,1.543,0,0,1,1.538-.919,1.677,1.677,0,0,1,1.784,1.917V15.69H63.624V12.609c0-.828-.36-1.24-1.112-1.24a1.183,1.183,0,0,0-1.231,1.306V15.69H60.263Zm6-2.013H67.28V15.69H66.263Zm2.432,4.588a2.443,2.443,0,1,1,4.863,0,2.443,2.443,0,1,1-4.863,0Zm3.816,0c0-1.118-.5-1.771-1.383-1.771s-1.382.653-1.382,1.771.5,1.775,1.382,1.775S72.51,14.233,72.51,13.111Zm2.118,1.122c0-.928.691-1.463,1.917-1.539l1.4-.08v-.445c0-.544-.36-.852-1.055-.852-.568,0-.962.208-1.074.573h-.985c.1-.886.937-1.453,2.106-1.453,1.292,0,2.021.643,2.021,1.732V15.69h-.979v-.724H77.9a1.734,1.734,0,0,1-1.548.809,1.557,1.557,0,0,1-1.718-1.543Zm3.314-.441v-.431l-1.259.08c-.71.048-1.032.289-1.032.743s.4.734.956.734a1.215,1.215,0,0,0,1.335-1.127Zm2.35-.681c0-1.629.837-2.661,2.14-2.661a1.7,1.7,0,0,1,1.581.9h.076V8.522h1.017V15.69h-.975v-.815h-.08a1.789,1.789,0,0,1-1.619.9c-1.312,0-2.14-1.032-2.14-2.665Zm1.051,0c0,1.093.515,1.751,1.377,1.751s1.388-.667,1.388-1.747-.536-1.751-1.388-1.751S81.343,12.026,81.343,13.111Zm7.973,0a2.442,2.442,0,1,1,4.862,0,2.443,2.443,0,1,1-4.862,0Zm3.816,0c0-1.118-.5-1.771-1.383-1.771s-1.382.653-1.382,1.771.5,1.775,1.382,1.775S93.132,14.233,93.132,13.111Zm2.412-2.575h.979v.819H96.6a1.543,1.543,0,0,1,1.538-.919,1.677,1.677,0,0,1,1.784,1.917V15.69H98.9V12.609c0-.828-.36-1.24-1.112-1.24a1.183,1.183,0,0,0-1.231,1.306V15.69H95.543Zm10.127-1.284v1.307h1.117v.857h-1.117v2.651c0,.54.222.777.729.777a3.4,3.4,0,0,0,.388-.024v.848a3.337,3.337,0,0,1-.553.052c-1.131,0-1.582-.4-1.582-1.392V11.416h-.818v-.857h.818V9.252Zm2.507-.729h1.009v2.841h.08a1.586,1.586,0,0,1,1.572-.924,1.7,1.7,0,0,1,1.775,1.922V15.69H111.6V12.613c0-.824-.384-1.24-1.1-1.24a1.2,1.2,0,0,0-1.3,1.307V15.69h-1.017ZM118.546,14.3a2.093,2.093,0,0,1-2.234,1.492,2.342,2.342,0,0,1-2.381-2.661,2.378,2.378,0,0,1,2.377-2.693c1.434,0,2.3.98,2.3,2.6v.355h-3.64v.057a1.363,1.363,0,0,0,1.373,1.477,1.236,1.236,0,0,0,1.226-.625Zm-3.579-1.661h2.6A1.244,1.244,0,0,0,116.3,11.3a1.318,1.318,0,0,0-1.335,1.335Z" transform="translate(1.392 1.137)" fill="#fff"/>
</svg>
