<svg xmlns="http://www.w3.org/2000/svg" width="32.299" height="32.27" viewBox="0 0 32.299 32.27">
  <g id="catering" transform="translate(-4.838 -5)">
    <g id="Group_43025" data-name="Group 43025" transform="translate(8.988 5.2)">
      <path id="Path_76374" data-name="Path 76374" d="M106.806,56.456a.367.367,0,0,1-.355-.385c0-6.674-5.01-12.1-11.17-12.1s-11.17,5.427-11.17,12.1a.356.356,0,1,1-.711,0c0-7.1,5.329-12.871,11.881-12.871s11.881,5.773,11.881,12.871A.367.367,0,0,1,106.806,56.456Z" transform="translate(-81.314 -40.275)" fill="#b89535" stroke="#b89535" stroke-width="0.4"/>
      <path id="Path_76375" data-name="Path 76375" d="M225.357,8.98a.433.433,0,0,1-.246-.085.381.381,0,0,1-.054-.539,1.49,1.49,0,0,0,.331-.924,1.463,1.463,0,1,0-2.925,0,1.445,1.445,0,0,0,.331.924.383.383,0,0,1-.593.485,2.232,2.232,0,1,1,3.464,0A.41.41,0,0,1,225.357,8.98Z" transform="translate(-209.958 -5.2)" fill="#b89535" stroke="#b89535" stroke-width="0.4"/>
      <path id="Path_76376" data-name="Path 76376" d="M82.891,208.294H57.651a1.451,1.451,0,0,1,0-2.894H82.9a1.45,1.45,0,0,1-.007,2.894ZM57.651,206.17a.679.679,0,0,0,0,1.355H82.9a.679.679,0,0,0,0-1.355Z" transform="translate(-56.3 -189.989)" fill="#b89535" stroke="#b89535" stroke-width="0.4"/>
      <path id="Path_76377" data-name="Path 76377" d="M124.276,91.96a.367.367,0,0,1-.154-.031.387.387,0,0,1-.2-.508,9.1,9.1,0,0,1,4.927-5.073.382.382,0,1,1,.246.724,8.5,8.5,0,0,0-4.473,4.65A.382.382,0,0,1,124.276,91.96Z" transform="translate(-119.109 -80.082)" fill="#b89535" stroke="#b89535" stroke-width="0.4"/>
    </g>
    <g id="Group_43026" data-name="Group 43026" transform="translate(5.042 23.872)">
      <path id="Path_76378" data-name="Path 76378" d="M57.775,284.594a.369.369,0,0,1-.314-.192.4.4,0,0,1,.135-.523l1.526-.924a5.287,5.287,0,0,1,2.567-.77l8.557-.269h.007a3.642,3.642,0,0,0,1.99-.593c1.448-.931,4.186-2.687,6.247-4.011l1.5-.962a.836.836,0,0,0,.371-.585.92.92,0,0,0-.178-.693l-.014-.015a.708.708,0,0,0-.834-.231l-7.174,2.995a2.562,2.562,0,0,1-1.1.2l-6.946-.246a.371.371,0,0,1-.342-.339.388.388,0,0,1,.257-.416L69.77,275.3a.548.548,0,0,0,.371-.531.6.6,0,0,0-.064-.269.5.5,0,0,0-.478-.277l-7.923.585a3.585,3.585,0,0,0-1.255.331l-3.744,1.786a.346.346,0,0,1-.471-.2.4.4,0,0,1,.185-.508l3.751-1.786a4.252,4.252,0,0,1,1.49-.393l7.923-.585a1.208,1.208,0,0,1,1.148.662,1.384,1.384,0,0,1,.164.654,1.307,1.307,0,0,1-.9,1.27l-3.48,1.039,4.607.162a1.9,1.9,0,0,0,.82-.154l7.174-2.995a1.379,1.379,0,0,1,1.626.447l.014.015a1.716,1.716,0,0,1,.342,1.324A1.608,1.608,0,0,1,80.359,277l-1.5.962c-2.061,1.324-4.792,3.079-6.247,4.011a4.359,4.359,0,0,1-2.346.7l-8.557.269a4.552,4.552,0,0,0-2.239.67l-1.526.924A.269.269,0,0,1,57.775,284.594Z" transform="translate(-52.24 -273.451)" fill="#b89535" stroke="#b89535" stroke-width="0.4"/>
      <path id="Path_76379" data-name="Path 76379" d="M7.032,306.306a.4.4,0,0,1-.223-.069.4.4,0,0,1-.162-.254l-1.6-10.277a.392.392,0,0,1,.3-.439l2.379-.485a1.712,1.712,0,0,1,2.032,1.386l1.332,7.629a1.726,1.726,0,0,1-1.355,1.978l-2.625.523C7.079,306.3,7.055,306.306,7.032,306.306Zm-1.17-10.354,1.486,9.515,2.232-.447a.949.949,0,0,0,.747-1.085L9,296.306a.951.951,0,0,0-1.124-.762Z" transform="translate(-5.042 -293.108)" fill="#b89535" stroke="#b89535" stroke-width="0.4"/>
    </g>
  </g>
</svg>
