<svg xmlns="http://www.w3.org/2000/svg" width="12.935" height="12.935" viewBox="0 0 12.935 12.935">
  <g id="ca7ebad124e84c6033ade062bb6e2b99" transform="translate(0.25 0.25)" opacity="0.5">
    <path id="Path_76310" data-name="Path 76310" d="M19.517,13.3a6.217,6.217,0,1,0,6.217,6.217A6.217,6.217,0,0,0,19.517,13.3Zm0,11.846a5.629,5.629,0,1,1,5.629-5.629A5.637,5.637,0,0,1,19.517,25.146Z" transform="translate(-13.3 -13.3)" stroke="#000" stroke-width="0.5"/>
    <path id="Path_76311" data-name="Path 76311" d="M62.291,36.975V32.945a.345.345,0,0,0-.691,0v4.173a.375.375,0,0,0,.1.245l2.777,2.777a.347.347,0,0,0,.489,0,.357.357,0,0,0,0-.489Z" transform="translate(-55.997 -30.685)" stroke="#000" stroke-width="0.5"/>
  </g>
</svg>
