<svg xmlns="http://www.w3.org/2000/svg" width="32.367" height="32.1" viewBox="0 0 32.367 32.1">
  <g id="Outline" transform="translate(-2.816 -3.211)">
    <g id="Outline-2" data-name="Outline" transform="translate(0 0.469)">
      <path id="Path_76359" data-name="Path 76359" d="M30.113,27.955H28.458V14.542a1.619,1.619,0,0,0,.849.072,1.641,1.641,0,0,0,1.083-.71L31,12.984a1.649,1.649,0,0,0-.407-2.259L16.853.783a1.655,1.655,0,0,0-1.939,0L1.17,10.725a1.649,1.649,0,0,0-.407,2.259l.614.921a1.635,1.635,0,0,0,1.932.632V27.955H1.655A1.655,1.655,0,0,0,0,29.609v.662a1.655,1.655,0,0,0,1.655,1.655H30.113a1.655,1.655,0,0,0,1.655-1.655v-.662a1.655,1.655,0,0,0-1.655-1.655ZM2.581,13.963a.986.986,0,0,1-.65-.426l-.614-.921a.993.993,0,0,1,.244-1.355L15.3,1.319a.993.993,0,0,1,1.163,0l13.744,9.942a.989.989,0,0,1,.244,1.355l-.614.921a.993.993,0,0,1-1.408.253L16.465,5.135a.993.993,0,0,0-1.163,0L3.336,13.792a.993.993,0,0,1-.754.171Zm20.913,7.373H21.84v-4.3a1.655,1.655,0,0,0-1.655-1.655h-8.6a1.655,1.655,0,0,0-1.655,1.655v4.3H8.935A1.655,1.655,0,0,0,7.28,22.991v4.964H3.971V14.148L15.69,5.671a.331.331,0,0,1,.388,0L27.8,14.147V27.955H25.149V22.991A1.655,1.655,0,0,0,23.495,21.337Zm-.662,5.295H9.6a.331.331,0,0,0-.331.331v.993H7.942V25.308H24.487v2.647H23.164v-.993A.331.331,0,0,0,22.833,26.631Zm-.331.662v.662H9.927v-.662ZM7.942,24.646V22.991A.993.993,0,0,1,8.935,22h14.56a.993.993,0,0,1,.993.993v1.655ZM18.2,18.028H13.567a.993.993,0,0,0-.993.993v2.316H10.589v-4.3a.993.993,0,0,1,.993-.993h8.6a.993.993,0,0,1,.993.993v4.3H19.193V19.02A.993.993,0,0,0,18.2,18.028Zm.331.993v2.316H13.236V19.02a.331.331,0,0,1,.331-.331H18.2A.331.331,0,0,1,18.531,19.02ZM31.105,30.271a.993.993,0,0,1-.993.993H1.655a.993.993,0,0,1-.993-.993v-.662a.993.993,0,0,1,.993-.993H30.113a.993.993,0,0,1,.993.993Z" transform="translate(3.116 2.617)" fill="#b89535" stroke="#b89535" stroke-width="0.6"/>
    </g>
  </g>
</svg>
