<svg xmlns="http://www.w3.org/2000/svg" width="16.327" height="16.328" viewBox="0 0 16.327 16.328">
  <path id="Path_663" data-name="Path 663" d="M178.488,534.979h12.125a2.1,2.1,0,0,1,2.095,2.107v12.125a2.1,2.1,0,0,1-2.095,2.1H178.488a2.11,2.11,0,0,1-2.107-2.1V537.084a2.122,2.122,0,0,1,2.107-2.1Zm9.789,1.81a.738.738,0,0,0-.732.737v1.756a.734.734,0,0,0,.732.733h1.847a.735.735,0,0,0,.734-.733v-1.756a.739.739,0,0,0-.734-.737Zm2.587,5.087h-1.443a4.475,4.475,0,0,1,.209,1.4,5.074,5.074,0,0,1-10.143,0,4.592,4.592,0,0,1,.209-1.4H178.2v6.892a.651.651,0,0,0,.649.648h11.355a.652.652,0,0,0,.649-.648v-6.892Zm-6.3-1.95a3.177,3.177,0,1,0,3.28,3.172A3.226,3.226,0,0,0,184.567,539.926Z" transform="translate(-176.381 -534.979)" fill="#fff"/>
</svg>
