<svg xmlns="http://www.w3.org/2000/svg" width="31.119" height="29.034" viewBox="0 0 31.119 29.034">
  <g id="Group_43027" data-name="Group 43027" transform="translate(0 -0.035)">
    <path id="Shape" d="M31.118,11.606A3.622,3.622,0,0,0,27.488,8H11.929a3.433,3.433,0,0,0-.942.128c-.194.046-5.317,1.965-8.354,3.1h0A3.609,3.609,0,0,0,0,14.7a3.6,3.6,0,0,0,1.768,3.091,3.584,3.584,0,0,0,0,6.181,3.6,3.6,0,0,0,1.86,6.7H19.19a3.617,3.617,0,0,0,1.55-.35h.011L29.1,27.2a3.586,3.586,0,0,0,.251-6.319,3.285,3.285,0,0,0,.7-.545,3.552,3.552,0,0,0,1.067-2.55A3.61,3.61,0,0,0,29.35,14.7a3.3,3.3,0,0,0,.7-.543,3.552,3.552,0,0,0,1.066-2.55ZM11.273,9.118a2.419,2.419,0,0,1,.656-.088H27.488a2.588,2.588,0,0,1,2.593,2.576,2.532,2.532,0,0,1-.761,1.82,2.229,2.229,0,0,1-.61.446l-.078.042c-.7.258-1.931.717-3.841,1.429l-2.3.86a3.582,3.582,0,0,0-.24-3.452,3.634,3.634,0,0,0-3.057-1.66H5.95c2.582-.966,5.112-1.906,5.323-1.972ZM1.037,14.7A2.534,2.534,0,0,1,1.8,12.874a2.5,2.5,0,0,1,1.138-.657l.043-.014a2.543,2.543,0,0,1,.648-.082H19.19a2.573,2.573,0,0,1,1.187,4.866l-.045.02a2.542,2.542,0,0,1-1.143.265H3.63A2.588,2.588,0,0,1,1.037,14.7Zm0,6.181A2.589,2.589,0,0,1,3.63,18.3H19.19a2.573,2.573,0,0,1,1.187,4.866l-.045.02a2.542,2.542,0,0,1-1.143.265H3.63a2.588,2.588,0,0,1-2.593-2.576ZM3.63,29.634a2.576,2.576,0,1,1,0-5.151H19.19a2.576,2.576,0,1,1,0,5.151Zm26.451-5.666a2.534,2.534,0,0,1-.76,1.82,2.6,2.6,0,0,1-.635.469l-6.2,2.31A3.573,3.573,0,0,0,21.1,24l6.846-2.551A2.574,2.574,0,0,1,30.081,23.968Zm0-6.181a2.532,2.532,0,0,1-.761,1.82,2.229,2.229,0,0,1-.61.446l-.079.043-6.145,2.289A3.58,3.58,0,0,0,21.1,17.819l4.051-1.511,2.8-1.044A2.58,2.58,0,0,1,30.081,17.787Z" transform="translate(0 -3.719)" fill="#b89535"/>
    <path id="Shape-2" data-name="Shape" d="M23.047,20.531A.531.531,0,0,0,22.516,20H5.531a.531.531,0,1,0,0,1.062H22.516A.531.531,0,0,0,23.047,20.531Z" transform="translate(-2.346 -9.606)" fill="#b89535"/>
    <path id="Shape-3" data-name="Shape" d="M23.047,32.531A.531.531,0,0,0,22.516,32H5.531a.531.531,0,1,0,0,1.062H22.516A.531.531,0,0,0,23.047,32.531Z" transform="translate(-2.346 -15.388)" fill="#b89535"/>
    <path id="Shape-4" data-name="Shape" d="M22.516,44H5.531a.531.531,0,1,0,0,1.062H22.516a.531.531,0,0,0,0-1.062Z" transform="translate(-2.346 -21.169)" fill="#b89535"/>
    <path id="Shape-5" data-name="Shape" d="M9.531,0A.531.531,0,0,0,9,.531V1.592a.531.531,0,0,0,1.062,0V.531A.531.531,0,0,0,9.531,0Z" transform="translate(-4.223 0.035)" fill="#b89535"/>
    <path id="Shape-6" data-name="Shape" d="M9,7.592a.531.531,0,0,0,1.062,0V6.531A.531.531,0,0,0,9,6.531Z" transform="translate(-4.223 -2.78)" fill="#b89535"/>
    <path id="Shape-7" data-name="Shape" d="M6.592,4H5.531a.531.531,0,0,0,0,1.062H6.592A.531.531,0,0,0,6.592,4Z" transform="translate(-2.346 -1.842)" fill="#b89535"/>
    <path id="Shape-8" data-name="Shape" d="M11.531,5.062h1.062a.531.531,0,1,0,0-1.062H11.531a.531.531,0,1,0,0,1.062Z" transform="translate(-5.304 -1.842)" fill="#b89535"/>
    <path id="Shape-9" data-name="Shape" d="M57.412,52.661a.531.531,0,0,0-.751.751l.8.8a.531.531,0,0,0,.751-.751Z" transform="translate(-27.245 -25.294)" fill="#b89535"/>
    <path id="Shape-10" data-name="Shape" d="M52.957,49.708a.531.531,0,0,0,.751-.751l-.8-.8a.531.531,0,0,0-.751.751Z" transform="translate(-25.133 -23.183)" fill="#b89535"/>
    <path id="Shape-11" data-name="Shape" d="M52.156,54.208a.531.531,0,0,0,.751,0l.8-.8a.531.531,0,0,0-.751-.751l-.8.8A.531.531,0,0,0,52.156,54.208Z" transform="translate(-25.128 -25.294)" fill="#b89535"/>
    <path id="Shape-12" data-name="Shape" d="M57.446,48.161l-.8.8a.531.531,0,1,0,.751.751l.8-.8a.531.531,0,0,0-.751-.751Z" transform="translate(-27.233 -23.183)" fill="#b89535"/>
  </g>
</svg>
