<svg xmlns="http://www.w3.org/2000/svg" width="14.592" height="14.592" viewBox="0 0 14.592 14.592" style="">
  <g id="Layer_2" data-name="Layer 2" opacity="1">
    <path id="Path_76344" data-name="Path 76344" d="M19.019,16.6A7.262,7.262,0,0,0,20.092,12.8h0a7.262,7.262,0,0,0-1.073-3.809l0-.006a7.3,7.3,0,0,0-12.438,0l0,.006a7.3,7.3,0,0,0,0,7.618l0,.006a7.3,7.3,0,0,0,12.438,0Zm-5.29,2.236a1.773,1.773,0,0,1-.474.327,1.069,1.069,0,0,1-.918,0,2.233,2.233,0,0,1-.828-.728,6.521,6.521,0,0,1-.942-2.045q1.113-.069,2.229-.07t2.229.07a8.23,8.23,0,0,1-.4,1.1,4.231,4.231,0,0,1-.9,1.345ZM6.334,13.206H9.277a14.478,14.478,0,0,0,.266,2.445q-1.207.106-2.407.292a6.432,6.432,0,0,1-.8-2.737Zm.8-3.557q1.2.186,2.408.292a14.452,14.452,0,0,0-.267,2.445H6.334a6.432,6.432,0,0,1,.8-2.737Zm4.728-2.9a1.773,1.773,0,0,1,.474-.327,1.069,1.069,0,0,1,.918,0,2.233,2.233,0,0,1,.828.728A6.521,6.521,0,0,1,15.025,9.2q-1.113.068-2.229.07T10.567,9.2a8.229,8.229,0,0,1,.4-1.1,4.23,4.23,0,0,1,.9-1.345Zm7.394,5.636H16.315a14.479,14.479,0,0,0-.266-2.445q1.207-.106,2.407-.292A6.432,6.432,0,0,1,19.258,12.386Zm-8.89,3.2a13.558,13.558,0,0,1-.271-2.381h5.4a13.555,13.555,0,0,1-.27,2.382q-1.213-.08-2.429-.081T10.367,15.587ZM15.224,10a13.559,13.559,0,0,1,.271,2.381H10.1A13.556,13.556,0,0,1,10.367,10q1.213.08,2.429.081T15.224,10Zm1.09,3.2h2.943a6.432,6.432,0,0,1-.8,2.737q-1.2-.186-2.408-.292a14.452,14.452,0,0,0,.267-2.445Zm1.65-4.311q-1.049.151-2.1.24a9.348,9.348,0,0,0-.488-1.377A5.817,5.817,0,0,0,14.693,6.6a6.475,6.475,0,0,1,3.271,2.292ZM8.217,8.217A6.474,6.474,0,0,1,10.9,6.6l-.046.059A7.483,7.483,0,0,0,9.733,9.134q-1.056-.089-2.106-.24a6.529,6.529,0,0,1,.589-.678ZM7.627,16.7q1.049-.151,2.1-.24a9.348,9.348,0,0,0,.488,1.377,5.818,5.818,0,0,0,.679,1.155A6.475,6.475,0,0,1,7.627,16.7Zm9.748.678a6.474,6.474,0,0,1-2.682,1.614l.046-.059a7.483,7.483,0,0,0,1.118-2.472q1.056.089,2.106.24a6.529,6.529,0,0,1-.589.678Z" transform="translate(-5.5 -5.5)" style="&#10;    fill: white;&#10;"/>
  </g>
</svg>