<svg xmlns="http://www.w3.org/2000/svg" width="17.16" height="16.394" viewBox="0 0 17.16 16.394">
  <g id="Group_1551" data-name="Group 1551" transform="translate(0)">
    <g id="Group_1254" data-name="Group 1254" transform="translate(0)">
      <path id="Path_386" data-name="Path 386" d="M248.9,551.533V540.468H245.23v11.065Zm-1.837-12.575a2.052,2.052,0,1,0-.032,0Z" transform="translate(-245.004 -535.147)" fill="#fff"/>
      <path id="Path_387" data-name="Path 387" d="M251.049,551.626h3.679V545.45a2.5,2.5,0,0,1,.119-.9,2.019,2.019,0,0,1,1.887-1.344c1.33,0,1.862,1.014,1.862,2.516v5.912h3.677v-6.343c0-3.4-1.82-4.981-4.234-4.981a3.68,3.68,0,0,0-3.335,1.864h.021v-1.608h-3.677c.051,1.034,0,11.059,0,11.059Z" transform="translate(-245.113 -535.24)" fill="#fff"/>
    </g>
  </g>
</svg>
