<svg xmlns="http://www.w3.org/2000/svg" width="13.315" height="16.947" viewBox="0 0 13.315 16.947">
  <g id="Layer_2" data-name="Layer 2" transform="translate(-5 -2)">
    <path id="Path_76096" data-name="Path 76096" d="M11.658,18.947a.605.605,0,0,0,.375-.133c.23-.206,6.282-5.084,6.282-10.156A6.658,6.658,0,1,0,5,8.658c0,5.072,6.052,9.95,6.282,10.156a.605.605,0,0,0,.375.133ZM6.21,8.658a5.447,5.447,0,1,1,10.894,0c0,3.813-4.158,7.753-5.447,8.891C10.369,16.411,6.21,12.471,6.21,8.658Z" transform="translate(0 0)" fill="#B89535"/>
    <path id="Path_76097" data-name="Path 76097" d="M17.451,11.225a3.225,3.225,0,1,0-3.225,3.225,3.225,3.225,0,0,0,3.225-3.225Zm-5.161,0a1.935,1.935,0,1,1,1.935,1.935A1.935,1.935,0,0,1,12.29,11.225Z" transform="translate(-2.568 -2.178)" fill="#B89535"/>
  </g>
</svg>
