<svg xmlns="http://www.w3.org/2000/svg" width="20.5" height="20.5" viewBox="0 0 20.5 20.5">
  <g id="ca7ebad124e84c6033ade062bb6e2b99" transform="translate(0.25 0.25)">
    <path id="Path_76310" data-name="Path 76310" d="M23.3,13.3a10,10,0,1,0,10,10A10,10,0,0,0,23.3,13.3Zm0,19.053A9.053,9.053,0,1,1,32.353,23.3,9.066,9.066,0,0,1,23.3,32.353Z" transform="translate(-13.3 -13.3)" fill="#b89535" stroke="#b89535" stroke-width="0.5"/>
    <path id="Path_76311" data-name="Path 76311" d="M62.392,37.618V33a.4.4,0,0,0-.792,0v4.787a.431.431,0,0,0,.116.281L64.9,41.249a.4.4,0,0,0,.561,0,.409.409,0,0,0,0-.561Z" transform="translate(-51.59 -28.111)" fill="#b89535" stroke="#b89535" stroke-width="0.5"/>
  </g>
</svg>
