<svg xmlns="http://www.w3.org/2000/svg" width="30.739" height="30.671" viewBox="0 0 30.739 30.671">
  <g id="shopping-store" transform="translate(0.261 0.25)">
    <path id="Path_76380" data-name="Path 76380" d="M8.245,24.124a.469.469,0,0,0-.469.469v6.713a.469.469,0,0,0,.469.469H19.184a.469.469,0,0,0,.469-.469V24.593a.469.469,0,0,0-.469-.469Zm10.47,6.713h-10V25.062h10Z" transform="translate(-2.872 -8.934)" fill="#b89535" stroke="#b89535" stroke-width="0.5"/>
    <path id="Path_76381" data-name="Path 76381" d="M3.013,12.472a3.326,3.326,0,0,0,3.163-1.555,3.4,3.4,0,0,0,5.953.128,3.481,3.481,0,0,0,.475.634,3.432,3.432,0,0,0,4.966,0,3.482,3.482,0,0,0,.475-.634A3.4,3.4,0,0,0,24,10.916,3.338,3.338,0,0,0,30.055,8.29l-1.58-5.8V.469A.47.47,0,0,0,28,0H2.167A.47.47,0,0,0,1.7.469V2.5L.118,8.291a3.312,3.312,0,0,0,.474,2.758,3.346,3.346,0,0,0,2.422,1.423ZM9.2,11.8a2.466,2.466,0,0,1-1.875-.862,2.439,2.439,0,0,1-.554-1.979l.97-5.938h4.27l-.334,6.129h0l-.018.332A2.457,2.457,0,0,1,9.2,11.8Zm7.689-.769A2.478,2.478,0,0,1,12.61,9.206l.019-.361.314-5.82h4.274l.314,5.82.019.361a2.435,2.435,0,0,1-.668,1.829Zm5.967-.093A2.464,2.464,0,0,1,18.52,9.487L18.5,9.155h0l-.334-6.129h4.269l.97,5.938a2.435,2.435,0,0,1-.554,1.98Zm5.952-.425a2.4,2.4,0,0,1-4.347-.972l-1.065-6.52h4.253l1.5,5.512a2.375,2.375,0,0,1-.341,1.981ZM2.641.938H27.532V2.086H2.641Zm-1.612,7.6,1.5-5.512H6.782l-.657,4.02L5.836,8.812h0l-.119.732A2.4,2.4,0,1,1,1.028,8.537Z" transform="translate(-0.001)" fill="#b89535" stroke="#b89535" stroke-width="0.5"/>
    <path id="Path_76382" data-name="Path 76382" d="M29.7,34.787H28.474V21.328a.471.471,0,0,0-.943,0V34.787H25.951V23.37a.47.47,0,0,0-.471-.469h-6.11a.47.47,0,0,0-.471.469V34.787H2.64V21.333a.471.471,0,0,0-.943,0V34.787H.471A.47.47,0,0,0,0,35.256v2.108a.47.47,0,0,0,.471.469H29.7a.47.47,0,0,0,.471-.469V35.256A.47.47,0,0,0,29.7,34.787ZM19.84,23.839h5.168V34.787H19.84Zm9.388,13.056H.943V35.725H29.229Z" transform="translate(0 -7.661)" fill="#b89535" stroke="#b89535" stroke-width="0.5"/>
  </g>
</svg>
