<svg xmlns="http://www.w3.org/2000/svg" width="16.492" height="13.401" viewBox="0 0 16.492 13.401">
  <path id="Path_661" data-name="Path 661" d="M129.9,539.017a6.909,6.909,0,0,1-1.943.538,3.359,3.359,0,0,0,1.483-1.875,6.4,6.4,0,0,1-2.149.817,3.392,3.392,0,0,0-5.765,3.1,9.632,9.632,0,0,1-6.976-3.534,3.343,3.343,0,0,0-.458,1.7,3.393,3.393,0,0,0,1.5,2.819,3.37,3.37,0,0,1-1.534-.424c0,.018,0,.021,0,.041a3.377,3.377,0,0,0,2.715,3.316,3.244,3.244,0,0,1-.883.119,3.287,3.287,0,0,1-.638-.061,3.408,3.408,0,0,0,3.16,2.353,6.785,6.785,0,0,1-4.2,1.448,6.458,6.458,0,0,1-.808-.052,9.63,9.63,0,0,0,14.82-8.117c0-.143-.011-.295-.017-.43A6.919,6.919,0,0,0,129.9,539.017Z" transform="translate(-113.411 -537.434)" fill="#fff"/>
</svg>
