<svg id="Group_42882" data-name="Group 42882" xmlns="http://www.w3.org/2000/svg" xmlns:xlink="http://www.w3.org/1999/xlink" width="135.29" height="118.444" viewBox="0 0 135.29 118.444">
  <defs>
    <linearGradient id="linear-gradient" y1="0.5" x2="1" y2="0.5" gradientUnits="objectBoundingBox">
      <stop offset="0" stop-color="#b4d2fe"/>
      <stop offset="0.56" stop-color="#729efe"/>
      <stop offset="1" stop-color="#437aff"/>
    </linearGradient>
    <linearGradient id="linear-gradient-2" x1="0.029" y1="-0.264" x2="0.969" y2="1.261" gradientUnits="objectBoundingBox">
      <stop offset="0.16" stop-color="#f6eb8f"/>
      <stop offset="0.704" stop-color="#f8c52f"/>
      <stop offset="1" stop-color="#fab300"/>
    </linearGradient>
    <linearGradient id="linear-gradient-4" x1="0.029" y1="-0.264" x2="0.969" y2="1.261" xlink:href="#linear-gradient-2"/>
    <linearGradient id="linear-gradient-5" x1="0.029" y1="-0.264" x2="0.969" y2="1.261" xlink:href="#linear-gradient-2"/>
    <linearGradient id="linear-gradient-9" x1="0.029" y1="-0.264" x2="0.969" y2="1.261" xlink:href="#linear-gradient-2"/>
    <linearGradient id="linear-gradient-17" x1="0.029" y1="-0.264" x2="0.969" y2="1.261" xlink:href="#linear-gradient-2"/>
    <linearGradient id="linear-gradient-18" x1="0.029" y1="-0.264" x2="0.969" y2="1.261" xlink:href="#linear-gradient-2"/>
    <linearGradient id="linear-gradient-19" x1="-0.612" y1="-0.305" x2="7.081" y2="5.263" xlink:href="#linear-gradient-2"/>
    <linearGradient id="linear-gradient-20" x1="-0.618" y1="-0.304" x2="7.112" y2="5.259" xlink:href="#linear-gradient-2"/>
    <linearGradient id="linear-gradient-21" x1="-0.622" y1="-0.304" x2="7.14" y2="5.257" xlink:href="#linear-gradient-2"/>
    <linearGradient id="linear-gradient-22" x1="-0.627" y1="-0.303" x2="7.169" y2="5.253" xlink:href="#linear-gradient-2"/>
    <linearGradient id="linear-gradient-23" x1="-0.632" y1="-0.303" x2="7.2" y2="5.25" xlink:href="#linear-gradient-2"/>
    <linearGradient id="linear-gradient-24" x1="-0.638" y1="-0.302" x2="7.232" y2="5.245" xlink:href="#linear-gradient-2"/>
    <linearGradient id="linear-gradient-25" x1="-0.643" y1="-0.301" x2="7.266" y2="5.242" xlink:href="#linear-gradient-2"/>
    <linearGradient id="linear-gradient-26" x1="-0.649" y1="-0.301" x2="7.301" y2="5.238" xlink:href="#linear-gradient-2"/>
    <linearGradient id="linear-gradient-27" x1="-0.656" y1="-0.3" x2="7.339" y2="5.235" xlink:href="#linear-gradient-2"/>
    <linearGradient id="linear-gradient-28" x1="-0.664" y1="-0.299" x2="7.384" y2="5.229" xlink:href="#linear-gradient-2"/>
    <linearGradient id="linear-gradient-29" x1="-0.671" y1="-0.299" x2="7.426" y2="5.224" xlink:href="#linear-gradient-2"/>
    <linearGradient id="linear-gradient-30" x1="-0.678" y1="-0.298" x2="7.47" y2="5.221" xlink:href="#linear-gradient-2"/>
    <linearGradient id="linear-gradient-31" x1="-0.686" y1="-0.297" x2="7.517" y2="5.215" xlink:href="#linear-gradient-2"/>
    <linearGradient id="linear-gradient-32" x1="-0.694" y1="-0.296" x2="7.566" y2="5.211" xlink:href="#linear-gradient-2"/>
    <linearGradient id="linear-gradient-33" x1="-0.703" y1="-0.295" x2="7.619" y2="5.205" xlink:href="#linear-gradient-2"/>
    <linearGradient id="linear-gradient-34" x1="-0.713" y1="-0.294" x2="7.676" y2="5.2" xlink:href="#linear-gradient-2"/>
    <linearGradient id="linear-gradient-35" x1="-0.723" y1="-0.294" x2="7.736" y2="5.195" xlink:href="#linear-gradient-2"/>
    <linearGradient id="linear-gradient-36" x1="511.011" y1="-950.857" x2="515.06" y2="-944.291" xlink:href="#linear-gradient-2"/>
    <linearGradient id="linear-gradient-37" x1="520.612" y1="-968.658" x2="524.663" y2="-962.087" xlink:href="#linear-gradient-2"/>
    <linearGradient id="linear-gradient-38" x1="530.578" y1="-987.004" x2="534.633" y2="-980.429" xlink:href="#linear-gradient-2"/>
    <linearGradient id="linear-gradient-39" x1="540.816" y1="-1006.468" x2="544.873" y2="-999.887" xlink:href="#linear-gradient-2"/>
    <linearGradient id="linear-gradient-40" x1="551.661" y1="-1026.059" x2="555.721" y2="-1019.476" xlink:href="#linear-gradient-2"/>
    <linearGradient id="linear-gradient-41" x1="562.768" y1="-1046.911" x2="566.831" y2="-1040.322" xlink:href="#linear-gradient-2"/>
    <linearGradient id="linear-gradient-42" x1="574.422" y1="-1068.511" x2="578.489" y2="-1061.917" xlink:href="#linear-gradient-2"/>
    <linearGradient id="linear-gradient-43" x1="586.54" y1="-1091.187" x2="590.61" y2="-1084.586" xlink:href="#linear-gradient-2"/>
    <linearGradient id="linear-gradient-44" x1="599.176" y1="-1114.425" x2="603.25" y2="-1107.82" xlink:href="#linear-gradient-2"/>
    <linearGradient id="linear-gradient-45" x1="612.328" y1="-1139.027" x2="616.405" y2="-1132.416" xlink:href="#linear-gradient-2"/>
    <linearGradient id="linear-gradient-46" x1="626.034" y1="-1164.433" x2="630.114" y2="-1157.817" xlink:href="#linear-gradient-2"/>
    <linearGradient id="linear-gradient-47" x1="640.437" y1="-1191.25" x2="644.521" y2="-1184.627" xlink:href="#linear-gradient-2"/>
    <linearGradient id="linear-gradient-48" x1="655.428" y1="-1219.324" x2="659.516" y2="-1212.693" xlink:href="#linear-gradient-2"/>
    <linearGradient id="linear-gradient-49" x1="671.383" y1="-1248.822" x2="675.476" y2="-1242.184" xlink:href="#linear-gradient-2"/>
    <linearGradient id="linear-gradient-50" x1="687.867" y1="-1279.141" x2="691.964" y2="-1272.498" xlink:href="#linear-gradient-2"/>
    <linearGradient id="linear-gradient-51" x1="705.313" y1="-1311.697" x2="709.414" y2="-1305.045" xlink:href="#linear-gradient-2"/>
    <linearGradient id="linear-gradient-52" x1="723.655" y1="-1345.686" x2="727.762" y2="-1339.026" xlink:href="#linear-gradient-2"/>
    <linearGradient id="linear-gradient-53" x1="1308.963" y1="-2401.756" x2="1312.397" y2="-2389.279" xlink:href="#linear-gradient-2"/>
    <linearGradient id="linear-gradient-54" x1="1331.407" y1="-2454.919" x2="1334.838" y2="-2442.392" xlink:href="#linear-gradient-2"/>
    <linearGradient id="linear-gradient-55" x1="1355.071" y1="-2510.506" x2="1358.5" y2="-2497.926" xlink:href="#linear-gradient-2"/>
    <linearGradient id="linear-gradient-56" x1="1379.591" y1="-2568.656" x2="1383.018" y2="-2556.021" xlink:href="#linear-gradient-2"/>
    <linearGradient id="linear-gradient-57" x1="1405.016" y1="-2631.58" x2="1408.44" y2="-2618.878" xlink:href="#linear-gradient-2"/>
    <linearGradient id="linear-gradient-58" x1="1430.907" y1="-2693.438" x2="1434.328" y2="-2680.686" xlink:href="#linear-gradient-2"/>
    <linearGradient id="linear-gradient-59" x1="1458.276" y1="-2762.713" x2="1461.695" y2="-2749.887" xlink:href="#linear-gradient-2"/>
    <linearGradient id="linear-gradient-60" x1="1486.713" y1="-2833.328" x2="1490.129" y2="-2820.435" xlink:href="#linear-gradient-2"/>
    <linearGradient id="linear-gradient-61" x1="1516.28" y1="-2910.095" x2="1519.693" y2="-2897.121" xlink:href="#linear-gradient-2"/>
    <linearGradient id="linear-gradient-62" x1="1546.477" y1="-2985.942" x2="1549.886" y2="-2972.904" xlink:href="#linear-gradient-2"/>
    <linearGradient id="linear-gradient-63" x1="1578.495" y1="-3071.335" x2="1581.901" y2="-3058.206" xlink:href="#linear-gradient-2"/>
    <linearGradient id="linear-gradient-64" x1="1611.246" y1="-3158.873" x2="1614.648" y2="-3145.661" xlink:href="#linear-gradient-2"/>
    <linearGradient id="linear-gradient-65" x1="1646.033" y1="-3254.61" x2="1649.432" y2="-3241.297" xlink:href="#linear-gradient-2"/>
    <linearGradient id="linear-gradient-66" x1="1682.352" y1="-3349.789" x2="1685.748" y2="-3336.395" xlink:href="#linear-gradient-2"/>
    <linearGradient id="linear-gradient-67" x1="1719.605" y1="-3457.655" x2="1722.996" y2="-3444.147" xlink:href="#linear-gradient-2"/>
    <linearGradient id="linear-gradient-68" x1="1759.284" y1="-3568.991" x2="1762.672" y2="-3555.376" xlink:href="#linear-gradient-2"/>
    <linearGradient id="linear-gradient-69" x1="1800.835" y1="-3691.736" x2="1804.22" y2="-3677.992" xlink:href="#linear-gradient-2"/>
    <linearGradient id="linear-gradient-70" x1="2492.052" y1="-755.732" x2="2496.1" y2="-749.167" xlink:href="#linear-gradient-2"/>
    <linearGradient id="linear-gradient-71" x1="2539.26" y1="-769.827" x2="2543.312" y2="-763.258" xlink:href="#linear-gradient-2"/>
    <linearGradient id="linear-gradient-72" x1="2587.442" y1="-784.671" x2="2591.497" y2="-778.096" xlink:href="#linear-gradient-2"/>
    <linearGradient id="linear-gradient-73" x1="2637.483" y1="-799.798" x2="2641.54" y2="-793.219" xlink:href="#linear-gradient-2"/>
    <linearGradient id="linear-gradient-74" x1="2689.801" y1="-815.793" x2="2693.861" y2="-809.208" xlink:href="#linear-gradient-2"/>
    <linearGradient id="linear-gradient-75" x1="2744.51" y1="-832.269" x2="2748.573" y2="-825.68" xlink:href="#linear-gradient-2"/>
    <linearGradient id="linear-gradient-76" x1="2800.938" y1="-849.41" x2="2805.004" y2="-842.816" xlink:href="#linear-gradient-2"/>
    <linearGradient id="linear-gradient-77" x1="2859.628" y1="-867.151" x2="2863.697" y2="-860.552" xlink:href="#linear-gradient-2"/>
    <linearGradient id="linear-gradient-78" x1="2921.808" y1="-885.962" x2="2925.881" y2="-879.356" xlink:href="#linear-gradient-2"/>
    <linearGradient id="linear-gradient-79" x1="2985.704" y1="-905.271" x2="2989.781" y2="-898.66" xlink:href="#linear-gradient-2"/>
    <linearGradient id="linear-gradient-80" x1="3052.828" y1="-925.741" x2="3056.908" y2="-919.123" xlink:href="#linear-gradient-2"/>
    <linearGradient id="linear-gradient-81" x1="3123.183" y1="-946.819" x2="3127.267" y2="-940.197" xlink:href="#linear-gradient-2"/>
    <linearGradient id="linear-gradient-82" x1="3196.457" y1="-969.112" x2="3200.545" y2="-962.483" xlink:href="#linear-gradient-2"/>
    <linearGradient id="linear-gradient-83" x1="3273.037" y1="-992.237" x2="3277.129" y2="-985.602" xlink:href="#linear-gradient-2"/>
    <linearGradient id="linear-gradient-84" x1="3353.333" y1="-1017.045" x2="3357.428" y2="-1010.4" xlink:href="#linear-gradient-2"/>
    <linearGradient id="linear-gradient-85" x1="3438.53" y1="-1042.528" x2="3442.63" y2="-1035.876" xlink:href="#linear-gradient-2"/>
    <linearGradient id="linear-gradient-86" x1="3527.194" y1="-1069.442" x2="3531.299" y2="-1062.783" xlink:href="#linear-gradient-2"/>
    <linearGradient id="linear-gradient-87" x1="5323.592" y1="233.361" x2="5331.286" y2="238.928" xlink:href="#linear-gradient-2"/>
    <linearGradient id="linear-gradient-88" x1="5441.543" y1="237.535" x2="5449.268" y2="243.101" xlink:href="#linear-gradient-2"/>
    <linearGradient id="linear-gradient-89" x1="5564.84" y1="241.705" x2="5572.597" y2="247.265" xlink:href="#linear-gradient-2"/>
    <linearGradient id="linear-gradient-90" x1="5693.855" y1="246.103" x2="5701.646" y2="251.659" xlink:href="#linear-gradient-2"/>
    <linearGradient id="linear-gradient-91" x1="5828.994" y1="250.579" x2="5836.821" y2="256.13" xlink:href="#linear-gradient-2"/>
    <linearGradient id="linear-gradient-92" x1="5975.388" y1="255.394" x2="5983.258" y2="260.944" xlink:href="#linear-gradient-2"/>
    <linearGradient id="linear-gradient-93" x1="6124.398" y1="260.217" x2="6132.308" y2="265.76" xlink:href="#linear-gradient-2"/>
    <linearGradient id="linear-gradient-94" x1="6281.031" y1="265.317" x2="6288.982" y2="270.856" xlink:href="#linear-gradient-2"/>
    <linearGradient id="linear-gradient-95" x1="6445.887" y1="270.523" x2="6453.881" y2="276.056" xlink:href="#linear-gradient-2"/>
    <linearGradient id="linear-gradient-96" x1="6619.63" y1="276.139" x2="6627.67" y2="281.67" xlink:href="#linear-gradient-2"/>
    <linearGradient id="linear-gradient-97" x1="6803" y1="281.78" x2="6811.089" y2="287.304" xlink:href="#linear-gradient-2"/>
    <linearGradient id="linear-gradient-98" x1="6996.82" y1="287.654" x2="7004.96" y2="293.172" xlink:href="#linear-gradient-2"/>
    <linearGradient id="linear-gradient-99" x1="7202.008" y1="293.894" x2="7210.203" y2="299.406" xlink:href="#linear-gradient-2"/>
    <linearGradient id="linear-gradient-100" x1="7426.83" y1="300.408" x2="7435.09" y2="305.915" xlink:href="#linear-gradient-2"/>
    <linearGradient id="linear-gradient-101" x1="7658.434" y1="307.216" x2="7666.756" y2="312.719" xlink:href="#linear-gradient-2"/>
    <linearGradient id="linear-gradient-102" x1="7904.949" y1="314.208" x2="7913.337" y2="319.702" xlink:href="#linear-gradient-2"/>
    <linearGradient id="linear-gradient-103" x1="8167.863" y1="321.661" x2="8176.322" y2="327.149" xlink:href="#linear-gradient-2"/>
    <linearGradient id="linear-gradient-104" x1="2290.941" y1="1225.357" x2="2294.99" y2="1231.922" xlink:href="#linear-gradient-2"/>
    <linearGradient id="linear-gradient-105" x1="2333.935" y1="1248.472" x2="2337.987" y2="1255.042" xlink:href="#linear-gradient-2"/>
    <linearGradient id="linear-gradient-106" x1="2378.567" y1="1272.379" x2="2382.622" y2="1278.954" xlink:href="#linear-gradient-2"/>
    <linearGradient id="linear-gradient-107" x1="2424.603" y1="1297.458" x2="2428.66" y2="1304.038" xlink:href="#linear-gradient-2"/>
    <linearGradient id="linear-gradient-108" x1="2472.449" y1="1322.838" x2="2476.509" y2="1329.422" xlink:href="#linear-gradient-2"/>
    <linearGradient id="linear-gradient-109" x1="2522.568" y1="1349.689" x2="2526.631" y2="1356.278" xlink:href="#linear-gradient-2"/>
    <linearGradient id="linear-gradient-110" x1="2574.64" y1="1377.725" x2="2578.706" y2="1384.32" xlink:href="#linear-gradient-2"/>
    <linearGradient id="linear-gradient-111" x1="2629.017" y1="1406.714" x2="2633.087" y2="1413.314" xlink:href="#linear-gradient-2"/>
    <linearGradient id="linear-gradient-112" x1="2685.15" y1="1436.716" x2="2689.223" y2="1443.32" xlink:href="#linear-gradient-2"/>
    <linearGradient id="linear-gradient-113" x1="2744.321" y1="1468.336" x2="2748.397" y2="1474.946" xlink:href="#linear-gradient-2"/>
    <linearGradient id="linear-gradient-114" x1="2805.689" y1="1501.77" x2="2809.769" y2="1508.388" xlink:href="#linear-gradient-2"/>
    <linearGradient id="linear-gradient-115" x1="2870.178" y1="1536.08" x2="2874.262" y2="1542.703" xlink:href="#linear-gradient-2"/>
    <linearGradient id="linear-gradient-116" x1="2937.833" y1="1572.151" x2="2941.921" y2="1578.781" xlink:href="#linear-gradient-2"/>
    <linearGradient id="linear-gradient-117" x1="3008.558" y1="1609.748" x2="3012.65" y2="1616.384" xlink:href="#linear-gradient-2"/>
    <linearGradient id="linear-gradient-118" x1="3082.933" y1="1649.884" x2="3087.03" y2="1656.529" xlink:href="#linear-gradient-2"/>
    <linearGradient id="linear-gradient-119" x1="3160.25" y1="1691.409" x2="3164.352" y2="1698.06" xlink:href="#linear-gradient-2"/>
    <linearGradient id="linear-gradient-120" x1="3242.983" y1="1735.18" x2="3247.091" y2="1741.839" xlink:href="#linear-gradient-2"/>
    <linearGradient id="linear-gradient-121" x1="1066.995" y1="2922.854" x2="1070.427" y2="2935.33" xlink:href="#linear-gradient-2"/>
    <linearGradient id="linear-gradient-122" x1="1085.613" y1="2987.648" x2="1089.043" y2="3000.174" xlink:href="#linear-gradient-2"/>
    <linearGradient id="linear-gradient-123" x1="1104.889" y1="3055.379" x2="1108.318" y2="3067.957" xlink:href="#linear-gradient-2"/>
    <linearGradient id="linear-gradient-124" x1="1124.865" y1="3128.606" x2="1128.291" y2="3141.249" xlink:href="#linear-gradient-2"/>
    <linearGradient id="linear-gradient-125" x1="1145.576" y1="3202.955" x2="1149" y2="3215.656" xlink:href="#linear-gradient-2"/>
    <linearGradient id="linear-gradient-126" x1="1166.667" y1="3280.921" x2="1170.088" y2="3293.683" xlink:href="#linear-gradient-2"/>
    <linearGradient id="linear-gradient-127" x1="1188.963" y1="3362.777" x2="1192.381" y2="3375.602" xlink:href="#linear-gradient-2"/>
    <linearGradient id="linear-gradient-128" x1="1212.129" y1="3451.687" x2="1215.544" y2="3464.59" xlink:href="#linear-gradient-2"/>
    <linearGradient id="linear-gradient-129" x1="1236.215" y1="3539.401" x2="1239.628" y2="3552.365" xlink:href="#linear-gradient-2"/>
    <linearGradient id="linear-gradient-130" x1="1261.277" y1="3638.005" x2="1264.688" y2="3651.054" xlink:href="#linear-gradient-2"/>
    <linearGradient id="linear-gradient-131" x1="1286.411" y1="3738.913" x2="1289.817" y2="3752.042" xlink:href="#linear-gradient-2"/>
    <linearGradient id="linear-gradient-132" x1="1313.576" y1="3842.044" x2="1316.978" y2="3855.244" xlink:href="#linear-gradient-2"/>
    <linearGradient id="linear-gradient-133" x1="1341.913" y1="3958.53" x2="1345.313" y2="3971.831" xlink:href="#linear-gradient-2"/>
    <linearGradient id="linear-gradient-134" x1="1371.501" y1="4078.287" x2="1374.897" y2="4091.683" xlink:href="#linear-gradient-2"/>
    <linearGradient id="linear-gradient-135" x1="1401.848" y1="4205.513" x2="1405.24" y2="4219.008" xlink:href="#linear-gradient-2"/>
    <linearGradient id="linear-gradient-136" x1="1434.172" y1="4340.93" x2="1437.56" y2="4354.532" xlink:href="#linear-gradient-2"/>
    <linearGradient id="linear-gradient-137" x1="1468.019" y1="4490.206" x2="1471.404" y2="4503.937" xlink:href="#linear-gradient-2"/>
    <linearGradient id="linear-gradient-138" x1="309.556" y1="1030.615" x2="313.605" y2="1037.18" xlink:href="#linear-gradient-2"/>
    <linearGradient id="linear-gradient-139" x1="315.317" y1="1050.127" x2="319.369" y2="1056.699" xlink:href="#linear-gradient-2"/>
    <linearGradient id="linear-gradient-140" x1="321.334" y1="1070.019" x2="325.389" y2="1076.594" xlink:href="#linear-gradient-2"/>
    <linearGradient id="linear-gradient-141" x1="327.591" y1="1090.786" x2="331.648" y2="1097.365" xlink:href="#linear-gradient-2"/>
    <linearGradient id="linear-gradient-142" x1="334.042" y1="1112.586" x2="338.102" y2="1119.171" xlink:href="#linear-gradient-2"/>
    <linearGradient id="linear-gradient-143" x1="340.862" y1="1134.998" x2="344.926" y2="1141.587" xlink:href="#linear-gradient-2"/>
    <linearGradient id="linear-gradient-144" x1="347.836" y1="1158.441" x2="351.902" y2="1165.035" xlink:href="#linear-gradient-2"/>
    <linearGradient id="linear-gradient-145" x1="355.085" y1="1182.625" x2="359.153" y2="1189.223" xlink:href="#linear-gradient-2"/>
    <linearGradient id="linear-gradient-146" x1="362.796" y1="1208.252" x2="366.869" y2="1214.857" xlink:href="#linear-gradient-2"/>
    <linearGradient id="linear-gradient-147" x1="370.72" y1="1234.783" x2="374.796" y2="1241.393" xlink:href="#linear-gradient-2"/>
    <linearGradient id="linear-gradient-148" x1="379.068" y1="1262.326" x2="383.148" y2="1268.942" xlink:href="#linear-gradient-2"/>
    <linearGradient id="linear-gradient-149" x1="387.794" y1="1291.503" x2="391.878" y2="1298.125" xlink:href="#linear-gradient-2"/>
    <linearGradient id="linear-gradient-150" x1="396.928" y1="1321.879" x2="401.017" y2="1328.508" xlink:href="#linear-gradient-2"/>
    <linearGradient id="linear-gradient-151" x1="406.428" y1="1353.887" x2="410.521" y2="1360.524" xlink:href="#linear-gradient-2"/>
    <linearGradient id="linear-gradient-152" x1="416.445" y1="1386.876" x2="420.542" y2="1393.518" xlink:href="#linear-gradient-2"/>
    <linearGradient id="linear-gradient-153" x1="426.905" y1="1422.195" x2="431.006" y2="1428.846" xlink:href="#linear-gradient-2"/>
    <linearGradient id="linear-gradient-154" x1="437.987" y1="1458.983" x2="442.093" y2="1465.641" xlink:href="#linear-gradient-2"/>
    <linearGradient id="linear-gradient-156" x1="-0.724" y1="-0.294" x2="7.743" y2="5.195" xlink:href="#linear-gradient-2"/>
  </defs>
  <path id="Path_76103" data-name="Path 76103" d="M89.291,127.18a14.632,14.632,0,0,0-20.985-15.927,19,19,0,0,0-37.1,7.218,17.536,17.536,0,0,0,1.382,35.016H89.581a13.155,13.155,0,1,0-.289-26.307Z" transform="translate(-15.055 -97.775)" fill="url(#linear-gradient)"/>
  <g id="Group_42833" data-name="Group 42833" transform="translate(33.403 16.377)">
    <g id="Group_42831" data-name="Group 42831" opacity="0.49">
      <g id="Group_42822" data-name="Group 42822" transform="translate(17.418 18.305)" opacity="0.55">
        <path id="Path_76104" data-name="Path 76104" d="M55.555,103.171a32.587,32.587,0,1,0,32.58,32.587A32.589,32.589,0,0,0,55.555,103.171Z" transform="translate(-22.962 -103.171)" opacity="0" fill="url(#linear-gradient-2)"/>
        <path id="Path_76105" data-name="Path 76105" d="M55.266,103.2A32.233,32.233,0,1,0,87.5,135.43,32.231,32.231,0,0,0,55.266,103.2Z" transform="translate(-22.577 -103.03)" opacity="0.063" fill="url(#linear-gradient-2)"/>
        <path id="Path_76106" data-name="Path 76106" d="M54.989,103.223A31.88,31.88,0,1,0,86.869,135.1,31.878,31.878,0,0,0,54.989,103.223Z" transform="translate(-22.197 -102.889)" opacity="0.125" fill="url(#linear-gradient-4)"/>
        <path id="Path_76107" data-name="Path 76107" d="M54.7,103.249a31.526,31.526,0,1,0,31.526,31.52A31.525,31.525,0,0,0,54.7,103.249Z" transform="translate(-21.811 -102.748)" opacity="0.188" fill="url(#linear-gradient-5)"/>
        <path id="Path_76108" data-name="Path 76108" d="M54.423,103.274A31.176,31.176,0,1,0,85.6,134.447,31.179,31.179,0,0,0,54.423,103.274Z" transform="translate(-21.431 -102.612)" opacity="0.25" fill="url(#linear-gradient-2)"/>
        <path id="Path_76109" data-name="Path 76109" d="M54.141,103.3A30.823,30.823,0,1,0,84.96,134.119,30.822,30.822,0,0,0,54.141,103.3Z" transform="translate(-21.046 -102.471)" opacity="0.313" fill="url(#linear-gradient-4)"/>
        <path id="Path_76110" data-name="Path 76110" d="M53.857,103.326a30.469,30.469,0,1,0,30.466,30.466A30.47,30.47,0,0,0,53.857,103.326Z" transform="translate(-20.666 -102.33)" opacity="0.375" fill="url(#linear-gradient-2)"/>
        <path id="Path_76111" data-name="Path 76111" d="M53.58,103.352a30.116,30.116,0,1,0,30.112,30.112A30.115,30.115,0,0,0,53.58,103.352Z" transform="translate(-20.286 -102.189)" opacity="0.438" fill="url(#linear-gradient-9)"/>
        <path id="Path_76112" data-name="Path 76112" d="M53.291,103.377a29.765,29.765,0,1,0,29.765,29.765A29.766,29.766,0,0,0,53.291,103.377Z" transform="translate(-19.901 -102.053)" opacity="0.5" fill="url(#linear-gradient-4)"/>
        <path id="Path_76113" data-name="Path 76113" d="M53.014,103.4a29.412,29.412,0,1,0,29.412,29.412A29.415,29.415,0,0,0,53.014,103.4Z" transform="translate(-19.521 -101.912)" opacity="0.563" fill="url(#linear-gradient-4)"/>
        <path id="Path_76114" data-name="Path 76114" d="M52.725,103.429a29.058,29.058,0,1,0,29.058,29.058A29.057,29.057,0,0,0,52.725,103.429Z" transform="translate(-19.136 -101.771)" opacity="0.625" fill="url(#linear-gradient-2)"/>
        <path id="Path_76115" data-name="Path 76115" d="M52.448,103.455a28.7,28.7,0,1,0,28.7,28.7A28.7,28.7,0,0,0,52.448,103.455Z" transform="translate(-18.756 -101.63)" opacity="0.688" fill="url(#linear-gradient-5)"/>
        <path id="Path_76116" data-name="Path 76116" d="M52.159,103.48a28.354,28.354,0,1,0,28.358,28.351A28.356,28.356,0,0,0,52.159,103.48Z" transform="translate(-18.37 -101.494)" opacity="0.75" fill="url(#linear-gradient-4)"/>
        <path id="Path_76117" data-name="Path 76117" d="M51.882,103.506a28,28,0,1,0,28,28A28.005,28.005,0,0,0,51.882,103.506Z" transform="translate(-17.991 -101.353)" opacity="0.813" fill="url(#linear-gradient-2)"/>
        <path id="Path_76118" data-name="Path 76118" d="M51.6,103.532a27.647,27.647,0,1,0,27.644,27.644A27.649,27.649,0,0,0,51.6,103.532Z" transform="translate(-17.605 -101.212)" opacity="0.875" fill="url(#linear-gradient-2)"/>
        <path id="Path_76119" data-name="Path 76119" d="M51.316,103.558a27.294,27.294,0,1,0,27.3,27.291A27.292,27.292,0,0,0,51.316,103.558Z" transform="translate(-17.225 -101.071)" opacity="0.938" fill="url(#linear-gradient-17)"/>
        <path id="Path_76120" data-name="Path 76120" d="M51.039,103.583a26.944,26.944,0,1,0,26.944,26.944A26.946,26.946,0,0,0,51.039,103.583Z" transform="translate(-16.845 -100.935)" fill="url(#linear-gradient-18)"/>
      </g>
      <g id="Group_42823" data-name="Group 42823" transform="translate(45.41)" opacity="0.6">
        <path id="Path_76121" data-name="Path 76121" d="M31.913,120.944a4.377,4.377,0,0,0,4.6-4.12V104.471a4.377,4.377,0,0,0-4.6-4.12,4.377,4.377,0,0,0-4.6,4.12v12.354A4.377,4.377,0,0,0,31.913,120.944Z" transform="translate(-27.317 -100.171)" opacity="0" fill="url(#linear-gradient-19)"/>
        <path id="Path_76122" data-name="Path 76122" d="M31.842,120.6a4.293,4.293,0,0,0,4.493-4.056V104.4a4.288,4.288,0,0,0-4.493-4.049,4.284,4.284,0,0,0-4.493,4.049V116.54A4.289,4.289,0,0,0,31.842,120.6Z" transform="translate(-27.143 -100.182)" opacity="0.063" fill="url(#linear-gradient-20)"/>
        <path id="Path_76123" data-name="Path 76123" d="M31.77,120.234a4.2,4.2,0,0,0,4.4-3.979V104.32a4.2,4.2,0,0,0-4.4-3.972,4.2,4.2,0,0,0-4.39,3.972v11.936A4.2,4.2,0,0,0,31.77,120.234Z" transform="translate(-26.975 -100.187)" opacity="0.125" fill="url(#linear-gradient-21)"/>
        <path id="Path_76124" data-name="Path 76124" d="M31.7,119.885A4.118,4.118,0,0,0,36,115.971V104.254a4.113,4.113,0,0,0-4.293-3.908,4.113,4.113,0,0,0-4.294,3.908v11.717A4.118,4.118,0,0,0,31.7,119.885Z" transform="translate(-26.807 -100.198)" opacity="0.188" fill="url(#linear-gradient-22)"/>
        <path id="Path_76125" data-name="Path 76125" d="M31.633,119.53a4.027,4.027,0,0,0,4.2-3.837V104.181a4.027,4.027,0,0,0-4.2-3.837,4.025,4.025,0,0,0-4.191,3.837v11.511A4.025,4.025,0,0,0,31.633,119.53Z" transform="translate(-26.639 -100.209)" opacity="0.25" fill="url(#linear-gradient-23)"/>
        <path id="Path_76126" data-name="Path 76126" d="M31.567,119.181a3.943,3.943,0,0,0,4.094-3.773v-11.3a4.109,4.109,0,0,0-8.189,0v11.3A3.943,3.943,0,0,0,31.567,119.181Z" transform="translate(-26.47 -100.22)" opacity="0.313" fill="url(#linear-gradient-24)"/>
        <path id="Path_76127" data-name="Path 76127" d="M31.5,118.825a3.85,3.85,0,0,0,3.991-3.7V104.042a4.006,4.006,0,0,0-7.989,0v11.087A3.852,3.852,0,0,0,31.5,118.825Z" transform="translate(-26.302 -100.231)" opacity="0.375" fill="url(#linear-gradient-25)"/>
        <path id="Path_76128" data-name="Path 76128" d="M31.43,118.471a3.769,3.769,0,0,0,3.895-3.632V103.964a3.905,3.905,0,0,0-7.79,0v10.875A3.769,3.769,0,0,0,31.43,118.471Z" transform="translate(-26.134 -100.236)" opacity="0.438" fill="url(#linear-gradient-26)"/>
        <path id="Path_76129" data-name="Path 76129" d="M31.365,118.115a3.68,3.68,0,0,0,3.792-3.554v-10.67a3.8,3.8,0,0,0-7.591,0v10.67A3.686,3.686,0,0,0,31.365,118.115Z" transform="translate(-25.966 -100.247)" opacity="0.5" fill="url(#linear-gradient-27)"/>
        <path id="Path_76130" data-name="Path 76130" d="M31.287,117.766a3.6,3.6,0,0,0,3.7-3.49V103.819a3.7,3.7,0,0,0-7.385,0v10.457A3.593,3.593,0,0,0,31.287,117.766Z" transform="translate(-25.792 -100.258)" opacity="0.563" fill="url(#linear-gradient-28)"/>
        <path id="Path_76131" data-name="Path 76131" d="M31.222,117.417A3.512,3.512,0,0,0,34.815,114V103.752a3.6,3.6,0,0,0-7.186,0V114A3.512,3.512,0,0,0,31.222,117.417Z" transform="translate(-25.624 -100.269)" opacity="0.625" fill="url(#linear-gradient-29)"/>
        <path id="Path_76132" data-name="Path 76132" d="M31.15,117.056a3.422,3.422,0,0,0,3.5-3.349V103.674a3.5,3.5,0,0,0-6.987,0v10.033A3.42,3.42,0,0,0,31.15,117.056Z" transform="translate(-25.455 -100.274)" opacity="0.688" fill="url(#linear-gradient-30)"/>
        <path id="Path_76133" data-name="Path 76133" d="M31.085,116.707a3.338,3.338,0,0,0,3.394-3.278V103.6a3.4,3.4,0,0,0-6.787,0v9.827A3.338,3.338,0,0,0,31.085,116.707Z" transform="translate(-25.287 -100.285)" opacity="0.75" fill="url(#linear-gradient-31)"/>
        <path id="Path_76134" data-name="Path 76134" d="M31.019,116.351a3.247,3.247,0,0,0,3.291-3.207v-9.609a3.3,3.3,0,0,0-6.588,0v9.609A3.249,3.249,0,0,0,31.019,116.351Z" transform="translate(-25.119 -100.296)" opacity="0.813" fill="url(#linear-gradient-32)"/>
        <path id="Path_76135" data-name="Path 76135" d="M30.947,116a3.166,3.166,0,0,0,3.194-3.137v-9.4a3.195,3.195,0,0,0-6.389,0v9.4A3.17,3.17,0,0,0,30.947,116Z" transform="translate(-24.951 -100.307)" opacity="0.875" fill="url(#linear-gradient-33)"/>
        <path id="Path_76136" data-name="Path 76136" d="M30.882,115.647a3.079,3.079,0,0,0,3.092-3.066V103.39a3.095,3.095,0,0,0-6.19,0v9.191A3.085,3.085,0,0,0,30.882,115.647Z" transform="translate(-24.782 -100.318)" opacity="0.938" fill="url(#linear-gradient-34)"/>
        <path id="Path_76137" data-name="Path 76137" d="M30.81,115.292a2.994,2.994,0,0,0,3-3v-8.979a3,3,0,1,0-5.99,0V112.3A3,3,0,0,0,30.81,115.292Z" transform="translate(-24.614 -100.323)" fill="url(#linear-gradient-35)"/>
      </g>
      <g id="Group_42824" data-name="Group 42824" transform="translate(12.807 13.88)" opacity="0.6">
        <path id="Path_76138" data-name="Path 76138" d="M38.258,118.559A4.374,4.374,0,0,0,38.6,112.4l-8.741-8.741a4.382,4.382,0,0,0-6.164.341,4.382,4.382,0,0,0-.334,6.164l8.735,8.728A4.37,4.37,0,0,0,38.258,118.559Z" transform="translate(-22.245 -102.121)" opacity="0" fill="url(#linear-gradient-36)"/>
        <path id="Path_76139" data-name="Path 76139" d="M38.013,118.273a4.3,4.3,0,0,0,.321-6.042l-8.593-8.587a4.29,4.29,0,0,0-6.042.315A4.291,4.291,0,0,0,23.384,110l8.587,8.587A4.29,4.29,0,0,0,38.013,118.273Z" transform="translate(-22.026 -102.143)" opacity="0.063" fill="url(#linear-gradient-37)"/>
        <path id="Path_76140" data-name="Path 76140" d="M37.766,117.988a4.214,4.214,0,0,0,.3-5.926l-8.446-8.439a4.205,4.205,0,0,0-5.92.3,4.213,4.213,0,0,0-.3,5.926l8.439,8.433A4.2,4.2,0,0,0,37.766,117.988Z" transform="translate(-21.805 -102.167)" opacity="0.125" fill="url(#linear-gradient-38)"/>
        <path id="Path_76141" data-name="Path 76141" d="M37.527,117.693a4.108,4.108,0,0,0,.27-5.8L29.512,103.6a4.122,4.122,0,0,0-5.8.276,4.108,4.108,0,0,0-.27,5.8l8.285,8.285A4.116,4.116,0,0,0,37.527,117.693Z" transform="translate(-21.585 -102.187)" opacity="0.188" fill="url(#linear-gradient-39)"/>
        <path id="Path_76142" data-name="Path 76142" d="M37.281,117.409a4.031,4.031,0,0,0,.251-5.682l-8.137-8.143a4.214,4.214,0,0,0-5.932,5.939L31.6,117.66A4.031,4.031,0,0,0,37.281,117.409Z" transform="translate(-21.364 -102.212)" opacity="0.25" fill="url(#linear-gradient-40)"/>
        <path id="Path_76143" data-name="Path 76143" d="M37.036,117.117a3.94,3.94,0,0,0,.231-5.56l-7.989-7.989a4.109,4.109,0,0,0-5.791,5.791l7.989,7.989A3.94,3.94,0,0,0,37.036,117.117Z" transform="translate(-21.145 -102.234)" opacity="0.313" fill="url(#linear-gradient-41)"/>
        <path id="Path_76144" data-name="Path 76144" d="M36.789,116.83A3.849,3.849,0,0,0,37,111.392l-7.841-7.848a4.007,4.007,0,0,0-5.65,5.65l7.841,7.841A3.849,3.849,0,0,0,36.789,116.83Z" transform="translate(-20.924 -102.256)" opacity="0.375" fill="url(#linear-gradient-42)"/>
        <path id="Path_76145" data-name="Path 76145" d="M36.551,116.537a3.77,3.77,0,0,0,.186-5.315l-7.694-7.694a3.905,3.905,0,0,0-5.508,5.508l7.694,7.687A3.766,3.766,0,0,0,36.551,116.537Z" transform="translate(-20.705 -102.278)" opacity="0.438" fill="url(#linear-gradient-43)"/>
        <path id="Path_76146" data-name="Path 76146" d="M36.305,116.252a3.687,3.687,0,0,0,.167-5.2l-7.546-7.546a3.8,3.8,0,0,0-5.367,5.367l7.546,7.546A3.681,3.681,0,0,0,36.305,116.252Z" transform="translate(-20.485 -102.301)" opacity="0.5" fill="url(#linear-gradient-44)"/>
        <path id="Path_76147" data-name="Path 76147" d="M36.06,115.959a3.589,3.589,0,0,0,.148-5.071l-7.4-7.4a3.7,3.7,0,0,0-5.219,5.225l7.392,7.391A3.591,3.591,0,0,0,36.06,115.959Z" transform="translate(-20.266 -102.324)" opacity="0.563" fill="url(#linear-gradient-45)"/>
        <path id="Path_76148" data-name="Path 76148" d="M35.816,115.674a3.506,3.506,0,0,0,.129-4.955l-7.244-7.25a3.6,3.6,0,0,0-5.084,5.084L30.86,115.8A3.5,3.5,0,0,0,35.816,115.674Z" transform="translate(-20.047 -102.347)" opacity="0.625" fill="url(#linear-gradient-46)"/>
        <path id="Path_76149" data-name="Path 76149" d="M35.576,115.382a3.422,3.422,0,0,0,.1-4.833l-7.1-7.1A3.5,3.5,0,0,0,23.64,108.4l7.1,7.1A3.424,3.424,0,0,0,35.576,115.382Z" transform="translate(-19.826 -102.37)" opacity="0.688" fill="url(#linear-gradient-47)"/>
        <path id="Path_76150" data-name="Path 76150" d="M35.331,115.094a3.332,3.332,0,0,0,.084-4.711l-6.948-6.954a3.4,3.4,0,0,0-4.8,4.8l6.948,6.948A3.334,3.334,0,0,0,35.331,115.094Z" transform="translate(-19.607 -102.391)" opacity="0.75" fill="url(#linear-gradient-48)"/>
        <path id="Path_76151" data-name="Path 76151" d="M35.085,114.8a3.248,3.248,0,0,0,.064-4.589l-6.8-6.8a3.3,3.3,0,0,0-4.66,4.66l6.8,6.794A3.244,3.244,0,0,0,35.085,114.8Z" transform="translate(-19.387 -102.414)" opacity="0.813" fill="url(#linear-gradient-49)"/>
        <path id="Path_76152" data-name="Path 76152" d="M34.84,114.519a3.166,3.166,0,0,0,.045-4.473L28.233,103.4a3.193,3.193,0,0,0-4.518,4.512l6.652,6.652A3.16,3.16,0,0,0,34.84,114.519Z" transform="translate(-19.168 -102.438)" opacity="0.875" fill="url(#linear-gradient-50)"/>
        <path id="Path_76153" data-name="Path 76153" d="M34.6,114.232a3.082,3.082,0,0,0,.019-4.351l-6.5-6.5a3.091,3.091,0,0,0-4.371,4.371l6.5,6.5A3.084,3.084,0,0,0,34.6,114.232Z" transform="translate(-18.947 -102.46)" opacity="0.938" fill="url(#linear-gradient-51)"/>
        <path id="Path_76154" data-name="Path 76154" d="M34.356,113.939a3,3,0,0,0,0-4.229l-6.35-6.35a2.993,2.993,0,0,0-4.236,4.229l6.35,6.35A2.989,2.989,0,0,0,34.356,113.939Z" transform="translate(-18.728 -102.482)" fill="url(#linear-gradient-52)"/>
      </g>
      <g id="Group_42825" data-name="Group 42825" transform="translate(0 46.072)" opacity="0.6">
        <path id="Path_76155" data-name="Path 76155" d="M40.845,112.3a4.379,4.379,0,0,0-4.12-4.589H24.372a4.623,4.623,0,0,0,0,9.191H36.725A4.383,4.383,0,0,0,40.845,112.3Z" transform="translate(-20.252 -106.319)" opacity="0" fill="url(#linear-gradient-53)"/>
        <path id="Path_76156" data-name="Path 76156" d="M40.54,112.186a4.288,4.288,0,0,0-4.049-4.493H24.35a4.52,4.52,0,0,0,0,8.992H36.491A4.29,4.29,0,0,0,40.54,112.186Z" transform="translate(-20.024 -106.395)" opacity="0.063" fill="url(#linear-gradient-54)"/>
        <path id="Path_76157" data-name="Path 76157" d="M40.23,112.07a4.2,4.2,0,0,0-3.979-4.39H24.322a4.418,4.418,0,0,0,0,8.793H36.251A4.207,4.207,0,0,0,40.23,112.07Z" transform="translate(-19.791 -106.465)" opacity="0.125" fill="url(#linear-gradient-55)"/>
        <path id="Path_76158" data-name="Path 76158" d="M39.919,111.959a4.113,4.113,0,0,0-3.908-4.294H24.288a4.316,4.316,0,0,0,0,8.593H36.011A4.115,4.115,0,0,0,39.919,111.959Z" transform="translate(-19.557 -106.541)" opacity="0.188" fill="url(#linear-gradient-56)"/>
        <path id="Path_76159" data-name="Path 76159" d="M39.609,111.844a4.024,4.024,0,0,0-3.831-4.191H24.26a4.21,4.21,0,0,0,0,8.388H35.778A4.026,4.026,0,0,0,39.609,111.844Z" transform="translate(-19.324 -106.612)" opacity="0.25" fill="url(#linear-gradient-57)"/>
        <path id="Path_76160" data-name="Path 76160" d="M39.3,111.733a3.943,3.943,0,0,0-3.766-4.094H24.232a4.112,4.112,0,0,0,0,8.195H35.538A3.948,3.948,0,0,0,39.3,111.733Z" transform="translate(-19.091 -106.688)" opacity="0.313" fill="url(#linear-gradient-58)"/>
        <path id="Path_76161" data-name="Path 76161" d="M38.994,111.617a3.854,3.854,0,0,0-3.7-3.991H24.2a4.007,4.007,0,0,0,0,7.989H35.3A3.856,3.856,0,0,0,38.994,111.617Z" transform="translate(-18.857 -106.758)" opacity="0.375" fill="url(#linear-gradient-59)"/>
        <path id="Path_76162" data-name="Path 76162" d="M38.684,111.507a3.768,3.768,0,0,0-3.625-3.9H24.177a3.905,3.905,0,0,0,0,7.79H35.059A3.768,3.768,0,0,0,38.684,111.507Z" transform="translate(-18.624 -106.834)" opacity="0.438" fill="url(#linear-gradient-60)"/>
        <path id="Path_76163" data-name="Path 76163" d="M38.373,111.385a3.674,3.674,0,0,0-3.554-3.786H24.149a3.8,3.8,0,0,0,0,7.584H34.819A3.678,3.678,0,0,0,38.373,111.385Z" transform="translate(-18.39 -106.905)" opacity="0.5" fill="url(#linear-gradient-61)"/>
        <path id="Path_76164" data-name="Path 76164" d="M38.069,111.274a3.593,3.593,0,0,0-3.49-3.689H24.122a3.7,3.7,0,0,0,0,7.392H34.579A3.6,3.6,0,0,0,38.069,111.274Z" transform="translate(-18.157 -106.981)" opacity="0.563" fill="url(#linear-gradient-62)"/>
        <path id="Path_76165" data-name="Path 76165" d="M37.759,111.158a3.506,3.506,0,0,0-3.419-3.586H24.094a3.6,3.6,0,0,0,0,7.186H34.339A3.509,3.509,0,0,0,37.759,111.158Z" transform="translate(-17.924 -107.051)" opacity="0.625" fill="url(#linear-gradient-63)"/>
        <path id="Path_76166" data-name="Path 76166" d="M37.453,111.048a3.419,3.419,0,0,0-3.342-3.49H24.072a3.5,3.5,0,0,0,0,6.987h10.04A3.42,3.42,0,0,0,37.453,111.048Z" transform="translate(-17.696 -107.127)" opacity="0.688" fill="url(#linear-gradient-64)"/>
        <path id="Path_76167" data-name="Path 76167" d="M37.143,110.932a3.332,3.332,0,0,0-3.272-3.387H24.044a3.392,3.392,0,0,0,0,6.781h9.827A3.333,3.333,0,0,0,37.143,110.932Z" transform="translate(-17.462 -107.198)" opacity="0.75" fill="url(#linear-gradient-65)"/>
        <path id="Path_76168" data-name="Path 76168" d="M36.832,110.822a3.246,3.246,0,0,0-3.2-3.291H24.016a3.3,3.3,0,0,0,0,6.588h9.615A3.248,3.248,0,0,0,36.832,110.822Z" transform="translate(-17.229 -107.274)" opacity="0.813" fill="url(#linear-gradient-66)"/>
        <path id="Path_76169" data-name="Path 76169" d="M36.528,110.706a3.164,3.164,0,0,0-3.137-3.188h-9.4a3.192,3.192,0,0,0,0,6.382h9.4A3.166,3.166,0,0,0,36.528,110.706Z" transform="translate(-16.996 -107.344)" opacity="0.875" fill="url(#linear-gradient-67)"/>
        <path id="Path_76170" data-name="Path 76170" d="M36.218,110.6a3.079,3.079,0,0,0-3.066-3.092H23.961a3.092,3.092,0,0,0,0,6.183h9.191A3.079,3.079,0,0,0,36.218,110.6Z" transform="translate(-16.762 -107.42)" opacity="0.938" fill="url(#linear-gradient-68)"/>
        <path id="Path_76171" data-name="Path 76171" d="M35.907,110.48a2.989,2.989,0,0,0-3-2.989H23.933a2.989,2.989,0,1,0,0,5.977h8.979A2.989,2.989,0,0,0,35.907,110.48Z" transform="translate(-16.529 -107.491)" fill="url(#linear-gradient-69)"/>
      </g>
      <g id="Group_42826" data-name="Group 42826" transform="translate(14.126 71.36)" opacity="0.6">
        <path id="Path_76172" data-name="Path 76172" d="M38.462,112.944A4.382,4.382,0,0,0,32.3,112.6l-8.735,8.741a4.376,4.376,0,0,0,.341,6.164,4.375,4.375,0,0,0,6.157.341l8.741-8.741A4.376,4.376,0,0,0,38.462,112.944Z" transform="translate(-22.45 -111.064)" opacity="0" fill="url(#linear-gradient-70)"/>
        <path id="Path_76173" data-name="Path 76173" d="M38.221,112.9a4.3,4.3,0,0,0-6.048-.315l-8.581,8.587a4.285,4.285,0,0,0,.315,6.042,4.278,4.278,0,0,0,6.035.321l8.593-8.587A4.3,4.3,0,0,0,38.221,112.9Z" transform="translate(-22.228 -111.087)" opacity="0.063" fill="url(#linear-gradient-71)"/>
        <path id="Path_76174" data-name="Path 76174" d="M37.976,112.864a4.207,4.207,0,0,0-5.926-.3l-8.433,8.439a4.194,4.194,0,0,0,.3,5.92,4.2,4.2,0,0,0,5.92.3l8.439-8.439A4.205,4.205,0,0,0,37.976,112.864Z" transform="translate(-22.009 -111.106)" opacity="0.125" fill="url(#linear-gradient-72)"/>
        <path id="Path_76175" data-name="Path 76175" d="M37.732,112.823a4.122,4.122,0,0,0-5.8-.276l-8.285,8.291a4.314,4.314,0,0,0,6.074,6.074l8.291-8.285A4.122,4.122,0,0,0,37.732,112.823Z" transform="translate(-21.79 -111.13)" opacity="0.188" fill="url(#linear-gradient-73)"/>
        <path id="Path_76176" data-name="Path 76176" d="M37.486,112.781a4.031,4.031,0,0,0-5.682-.251l-8.137,8.137a4.214,4.214,0,0,0,5.932,5.939l8.144-8.144A4.031,4.031,0,0,0,37.486,112.781Z" transform="translate(-21.57 -111.152)" opacity="0.25" fill="url(#linear-gradient-74)"/>
        <path id="Path_76177" data-name="Path 76177" d="M37.241,112.738a3.952,3.952,0,0,0-5.56-.231l-7.989,8a4.109,4.109,0,0,0,5.791,5.791l7.989-8A3.94,3.94,0,0,0,37.241,112.738Z" transform="translate(-21.351 -111.173)" opacity="0.313" fill="url(#linear-gradient-75)"/>
        <path id="Path_76178" data-name="Path 76178" d="M37,112.7a3.857,3.857,0,0,0-5.444-.212l-7.835,7.841a4,4,0,0,0,5.643,5.65l7.841-7.841A3.849,3.849,0,0,0,37,112.7Z" transform="translate(-21.129 -111.197)" opacity="0.375" fill="url(#linear-gradient-76)"/>
        <path id="Path_76179" data-name="Path 76179" d="M36.755,112.664a3.772,3.772,0,0,0-5.322-.193l-7.687,7.694a3.9,3.9,0,0,0,5.508,5.508l7.687-7.694A3.758,3.758,0,0,0,36.755,112.664Z" transform="translate(-20.91 -111.221)" opacity="0.438" fill="url(#linear-gradient-77)"/>
        <path id="Path_76180" data-name="Path 76180" d="M36.509,112.62a3.687,3.687,0,0,0-5.2-.167L23.77,120a3.8,3.8,0,0,0,5.367,5.367l7.539-7.546A3.681,3.681,0,0,0,36.509,112.62Z" transform="translate(-20.689 -111.241)" opacity="0.5" fill="url(#linear-gradient-78)"/>
        <path id="Path_76181" data-name="Path 76181" d="M36.264,112.579a3.6,3.6,0,0,0-5.078-.148l-7.392,7.4a3.7,3.7,0,0,0,5.225,5.225l7.391-7.4A3.591,3.591,0,0,0,36.264,112.579Z" transform="translate(-20.471 -111.265)" opacity="0.563" fill="url(#linear-gradient-79)"/>
        <path id="Path_76182" data-name="Path 76182" d="M36.024,112.543a3.514,3.514,0,0,0-4.962-.129l-7.244,7.244a3.6,3.6,0,0,0,5.084,5.084l7.244-7.244A3.506,3.506,0,0,0,36.024,112.543Z" transform="translate(-20.25 -111.287)" opacity="0.625" fill="url(#linear-gradient-80)"/>
        <path id="Path_76183" data-name="Path 76183" d="M35.78,112.5a3.43,3.43,0,0,0-4.84-.109l-7.1,7.1a3.5,3.5,0,0,0,4.943,4.936l7.1-7.1A3.422,3.422,0,0,0,35.78,112.5Z" transform="translate(-20.031 -111.31)" opacity="0.688" fill="url(#linear-gradient-81)"/>
        <path id="Path_76184" data-name="Path 76184" d="M35.535,112.461a3.34,3.34,0,0,0-4.718-.084l-6.942,6.948a3.4,3.4,0,0,0,4.795,4.8l6.948-6.954A3.332,3.332,0,0,0,35.535,112.461Z" transform="translate(-19.812 -111.333)" opacity="0.75" fill="url(#linear-gradient-82)"/>
        <path id="Path_76185" data-name="Path 76185" d="M35.288,112.42a3.256,3.256,0,0,0-4.6-.064l-6.794,6.8a3.3,3.3,0,0,0,4.66,4.66l6.794-6.8A3.244,3.244,0,0,0,35.288,112.42Z" transform="translate(-19.591 -111.357)" opacity="0.813" fill="url(#linear-gradient-83)"/>
        <path id="Path_76186" data-name="Path 76186" d="M35.044,112.383a3.166,3.166,0,0,0-4.473-.045l-6.646,6.652a3.193,3.193,0,0,0,4.518,4.512l6.646-6.652A3.147,3.147,0,0,0,35.044,112.383Z" transform="translate(-19.372 -111.377)" opacity="0.875" fill="url(#linear-gradient-84)"/>
        <path id="Path_76187" data-name="Path 76187" d="M34.8,112.342a3.09,3.09,0,0,0-4.358-.026l-6.5,6.5a3.093,3.093,0,0,0,4.377,4.371l6.5-6.5A3.076,3.076,0,0,0,34.8,112.342Z" transform="translate(-19.152 -111.4)" opacity="0.938" fill="url(#linear-gradient-85)"/>
        <path id="Path_76188" data-name="Path 76188" d="M34.561,112.3a3,3,0,0,0-4.236,0l-6.35,6.35a2.993,2.993,0,0,0,4.236,4.229l6.35-6.35A2.987,2.987,0,0,0,34.561,112.3Z" transform="translate(-18.934 -111.425)" fill="url(#linear-gradient-86)"/>
      </g>
      <g id="Group_42827" data-name="Group 42827" transform="translate(47.28 81.287)" opacity="0.6">
        <path id="Path_76189" data-name="Path 76189" d="M32.2,113a4.381,4.381,0,0,0-4.6,4.12v12.36a4.381,4.381,0,0,0,4.6,4.12,4.381,4.381,0,0,0,4.6-4.12v-12.36A4.381,4.381,0,0,0,32.2,113Z" transform="translate(-27.608 -112.818)" opacity="0" fill="url(#linear-gradient-87)"/>
        <path id="Path_76190" data-name="Path 76190" d="M32.132,113a4.287,4.287,0,0,0-4.493,4.043v12.148a4.288,4.288,0,0,0,4.493,4.049,4.29,4.29,0,0,0,4.5-4.049V117.04A4.289,4.289,0,0,0,32.132,113Z" transform="translate(-27.44 -112.823)" opacity="0.063" fill="url(#linear-gradient-88)"/>
        <path id="Path_76191" data-name="Path 76191" d="M32.066,112.995a4.2,4.2,0,0,0-4.4,3.979v11.936a4.206,4.206,0,0,0,4.4,3.979,4.206,4.206,0,0,0,4.4-3.979V116.974A4.2,4.2,0,0,0,32.066,112.995Z" transform="translate(-27.271 -112.834)" opacity="0.125" fill="url(#linear-gradient-89)"/>
        <path id="Path_76192" data-name="Path 76192" d="M31.994,112.993A4.117,4.117,0,0,0,27.7,116.9v11.724a4.113,4.113,0,0,0,4.293,3.908,4.115,4.115,0,0,0,4.3-3.908V116.9A4.119,4.119,0,0,0,31.994,112.993Z" transform="translate(-27.103 -112.845)" opacity="0.188" fill="url(#linear-gradient-90)"/>
        <path id="Path_76193" data-name="Path 76193" d="M31.929,112.991a4.031,4.031,0,0,0-4.2,3.837v11.518a4.031,4.031,0,0,0,4.2,3.837,4.031,4.031,0,0,0,4.2-3.837V116.828A4.031,4.031,0,0,0,31.929,112.991Z" transform="translate(-26.935 -112.856)" opacity="0.25" fill="url(#linear-gradient-91)"/>
        <path id="Path_76194" data-name="Path 76194" d="M31.858,112.99a3.938,3.938,0,0,0-4.094,3.766v11.3a3.938,3.938,0,0,0,4.094,3.766,3.938,3.938,0,0,0,4.094-3.766v-11.3A3.938,3.938,0,0,0,31.858,112.99Z" transform="translate(-26.761 -112.861)" opacity="0.313" fill="url(#linear-gradient-92)"/>
        <path id="Path_76195" data-name="Path 76195" d="M31.786,112.988a3.854,3.854,0,0,0-3.991,3.7v11.094a4.007,4.007,0,0,0,7.989,0V116.684A3.856,3.856,0,0,0,31.786,112.988Z" transform="translate(-26.593 -112.872)" opacity="0.375" fill="url(#linear-gradient-93)"/>
        <path id="Path_76196" data-name="Path 76196" d="M31.721,112.986a3.768,3.768,0,0,0-3.895,3.625v10.881a3.905,3.905,0,0,0,7.79,0V116.611A3.772,3.772,0,0,0,31.721,112.986Z" transform="translate(-26.425 -112.883)" opacity="0.438" fill="url(#linear-gradient-94)"/>
        <path id="Path_76197" data-name="Path 76197" d="M31.649,112.984a3.681,3.681,0,0,0-3.792,3.561v10.669a3.8,3.8,0,0,0,7.591,0V116.545A3.687,3.687,0,0,0,31.649,112.984Z" transform="translate(-26.257 -112.894)" opacity="0.5" fill="url(#linear-gradient-95)"/>
        <path id="Path_76198" data-name="Path 76198" d="M31.584,112.983a3.594,3.594,0,0,0-3.7,3.484v10.457a3.7,3.7,0,0,0,7.392,0V116.467A3.6,3.6,0,0,0,31.584,112.983Z" transform="translate(-26.088 -112.899)" opacity="0.563" fill="url(#linear-gradient-96)"/>
        <path id="Path_76199" data-name="Path 76199" d="M31.512,112.981a3.506,3.506,0,0,0-3.593,3.413v10.252a3.6,3.6,0,0,0,7.192,0V116.394A3.512,3.512,0,0,0,31.512,112.981Z" transform="translate(-25.92 -112.91)" opacity="0.625" fill="url(#linear-gradient-97)"/>
        <path id="Path_76200" data-name="Path 76200" d="M31.446,112.979a3.425,3.425,0,0,0-3.5,3.342v10.04a3.5,3.5,0,0,0,6.993,0v-10.04A3.425,3.425,0,0,0,31.446,112.979Z" transform="translate(-25.752 -112.921)" opacity="0.688" fill="url(#linear-gradient-98)"/>
        <path id="Path_76201" data-name="Path 76201" d="M31.381,112.977a3.344,3.344,0,0,0-3.4,3.278v9.827a3.4,3.4,0,0,0,6.794,0v-9.827A3.343,3.343,0,0,0,31.381,112.977Z" transform="translate(-25.584 -112.932)" opacity="0.75" fill="url(#linear-gradient-99)"/>
        <path id="Path_76202" data-name="Path 76202" d="M31.3,112.976a3.246,3.246,0,0,0-3.291,3.2v9.615a3.3,3.3,0,0,0,6.588,0v-9.615A3.252,3.252,0,0,0,31.3,112.976Z" transform="translate(-25.41 -112.937)" opacity="0.813" fill="url(#linear-gradient-100)"/>
        <path id="Path_76203" data-name="Path 76203" d="M31.238,112.974a3.165,3.165,0,0,0-3.194,3.13v9.41a3.2,3.2,0,0,0,6.389,0V116.1A3.169,3.169,0,0,0,31.238,112.974Z" transform="translate(-25.242 -112.948)" opacity="0.875" fill="url(#linear-gradient-101)"/>
        <path id="Path_76204" data-name="Path 76204" d="M31.167,112.972a3.079,3.079,0,0,0-3.092,3.066v9.191a3.095,3.095,0,0,0,6.19,0v-9.191A3.085,3.085,0,0,0,31.167,112.972Z" transform="translate(-25.073 -112.959)" opacity="0.938" fill="url(#linear-gradient-102)"/>
        <path id="Path_76205" data-name="Path 76205" d="M31.1,112.97a2.994,2.994,0,0,0-3,3v8.979a3,3,0,1,0,5.99,0v-8.979A3,3,0,0,0,31.1,112.97Z" transform="translate(-24.905 -112.97)" fill="url(#linear-gradient-103)"/>
      </g>
      <g id="Group_42828" data-name="Group 42828" transform="translate(71.609 70.038)" opacity="0.6">
        <path id="Path_76206" data-name="Path 76206" d="M32.844,112.739a4.376,4.376,0,0,0-.334,6.164l8.735,8.735a4.622,4.622,0,0,0,6.5-6.5L39.008,112.4A4.382,4.382,0,0,0,32.844,112.739Z" transform="translate(-31.393 -110.854)" opacity="0" fill="url(#linear-gradient-104)"/>
        <path id="Path_76207" data-name="Path 76207" d="M32.848,112.7a4.3,4.3,0,0,0-.315,6.048l8.587,8.581a4.519,4.519,0,0,0,6.357-6.357l-8.587-8.587A4.29,4.29,0,0,0,32.848,112.7Z" transform="translate(-31.172 -110.877)" opacity="0.063" fill="url(#linear-gradient-105)"/>
        <path id="Path_76208" data-name="Path 76208" d="M32.854,112.662a4.2,4.2,0,0,0-.3,5.92L41,127.014a4.416,4.416,0,0,0,6.215-6.215l-8.439-8.439A4.2,4.2,0,0,0,32.854,112.662Z" transform="translate(-30.953 -110.899)" opacity="0.125" fill="url(#linear-gradient-106)"/>
        <path id="Path_76209" data-name="Path 76209" d="M32.858,112.618a4.114,4.114,0,0,0-.276,5.8l8.291,8.285a4.312,4.312,0,0,0,6.074-6.067l-8.291-8.291A4.114,4.114,0,0,0,32.858,112.618Z" transform="translate(-30.732 -110.92)" opacity="0.188" fill="url(#linear-gradient-107)"/>
        <path id="Path_76210" data-name="Path 76210" d="M32.863,112.578a4.025,4.025,0,0,0-.251,5.682L40.75,126.4a4.211,4.211,0,0,0,5.933-5.933l-8.144-8.137A4.017,4.017,0,0,0,32.863,112.578Z" transform="translate(-30.512 -110.944)" opacity="0.25" fill="url(#linear-gradient-108)"/>
        <path id="Path_76211" data-name="Path 76211" d="M32.867,112.537a3.94,3.94,0,0,0-.231,5.56l7.989,7.989a4.109,4.109,0,0,0,5.791-5.791l-8-7.989A3.932,3.932,0,0,0,32.867,112.537Z" transform="translate(-30.292 -110.968)" opacity="0.313" fill="url(#linear-gradient-109)"/>
        <path id="Path_76212" data-name="Path 76212" d="M32.868,112.5a3.855,3.855,0,0,0-.206,5.438l7.841,7.835a4,4,0,0,0,5.65-5.643l-7.841-7.841A3.857,3.857,0,0,0,32.868,112.5Z" transform="translate(-30.073 -110.988)" opacity="0.375" fill="url(#linear-gradient-110)"/>
        <path id="Path_76213" data-name="Path 76213" d="M32.872,112.459a3.77,3.77,0,0,0-.186,5.315l7.694,7.694a3.9,3.9,0,0,0,5.508-5.508l-7.694-7.694A3.772,3.772,0,0,0,32.872,112.459Z" transform="translate(-29.852 -111.011)" opacity="0.438" fill="url(#linear-gradient-111)"/>
        <path id="Path_76214" data-name="Path 76214" d="M32.878,112.419a3.687,3.687,0,0,0-.167,5.2l7.546,7.539a3.8,3.8,0,0,0,5.367-5.36l-7.546-7.546A3.676,3.676,0,0,0,32.878,112.419Z" transform="translate(-29.634 -111.036)" opacity="0.5" fill="url(#linear-gradient-112)"/>
        <path id="Path_76215" data-name="Path 76215" d="M32.884,112.378a3.6,3.6,0,0,0-.148,5.078l7.4,7.392a3.7,3.7,0,0,0,5.225-5.219l-7.4-7.4A3.591,3.591,0,0,0,32.884,112.378Z" transform="translate(-29.415 -111.059)" opacity="0.563" fill="url(#linear-gradient-113)"/>
        <path id="Path_76216" data-name="Path 76216" d="M32.888,112.34a3.512,3.512,0,0,0-.129,4.955l7.25,7.244a3.6,3.6,0,0,0,5.084-5.084l-7.25-7.244A3.5,3.5,0,0,0,32.888,112.34Z" transform="translate(-29.194 -111.079)" opacity="0.625" fill="url(#linear-gradient-114)"/>
        <path id="Path_76217" data-name="Path 76217" d="M32.894,112.3a3.416,3.416,0,0,0-.1,4.833l7.1,7.1a3.494,3.494,0,0,0,4.936-4.936l-7.089-7.1A3.424,3.424,0,0,0,32.894,112.3Z" transform="translate(-28.975 -111.102)" opacity="0.688" fill="url(#linear-gradient-115)"/>
        <path id="Path_76218" data-name="Path 76218" d="M32.9,112.26a3.332,3.332,0,0,0-.084,4.711l6.948,6.948a3.393,3.393,0,0,0,4.795-4.795l-6.942-6.948A3.328,3.328,0,0,0,32.9,112.26Z" transform="translate(-28.754 -111.127)" opacity="0.75" fill="url(#linear-gradient-116)"/>
        <path id="Path_76219" data-name="Path 76219" d="M32.9,112.219a3.25,3.25,0,0,0-.064,4.6l6.8,6.794a3.292,3.292,0,0,0,4.653-4.653l-6.794-6.8A3.244,3.244,0,0,0,32.9,112.219Z" transform="translate(-28.535 -111.151)" opacity="0.813" fill="url(#linear-gradient-117)"/>
        <path id="Path_76220" data-name="Path 76220" d="M32.909,112.176a3.166,3.166,0,0,0-.045,4.474l6.652,6.652a3.191,3.191,0,0,0,4.512-4.512l-6.646-6.652A3.16,3.16,0,0,0,32.909,112.176Z" transform="translate(-28.315 -111.172)" opacity="0.875" fill="url(#linear-gradient-118)"/>
        <path id="Path_76221" data-name="Path 76221" d="M32.909,112.141a3.082,3.082,0,0,0-.019,4.351l6.5,6.5a3.091,3.091,0,0,0,4.371-4.371l-6.5-6.5A3.078,3.078,0,0,0,32.909,112.141Z" transform="translate(-28.097 -111.195)" opacity="0.938" fill="url(#linear-gradient-119)"/>
        <path id="Path_76222" data-name="Path 76222" d="M32.914,112.1a3,3,0,0,0,0,4.229l6.357,6.35a2.991,2.991,0,0,0,4.229-4.229l-6.35-6.35A2.983,2.983,0,0,0,32.914,112.1Z" transform="translate(-27.876 -111.22)" fill="url(#linear-gradient-120)"/>
      </g>
      <g id="Group_42829" data-name="Group 42829" transform="translate(81.287 44.201)" opacity="0.6">
        <path id="Path_76223" data-name="Path 76223" d="M32.9,112.012a4.378,4.378,0,0,0,4.126,4.6H49.372a4.622,4.622,0,0,0,0-9.191H37.025A4.382,4.382,0,0,0,32.9,112.012Z" transform="translate(-32.899 -106.028)" opacity="0" fill="url(#linear-gradient-121)"/>
        <path id="Path_76224" data-name="Path 76224" d="M32.942,111.9a4.294,4.294,0,0,0,4.049,4.5H49.139a4.521,4.521,0,0,0,0-8.992H36.991A4.288,4.288,0,0,0,32.942,111.9Z" transform="translate(-32.666 -106.098)" opacity="0.063" fill="url(#linear-gradient-122)"/>
        <path id="Path_76225" data-name="Path 76225" d="M32.985,111.785a4.2,4.2,0,0,0,3.979,4.4H48.9a4.418,4.418,0,0,0,0-8.793H36.964A4.206,4.206,0,0,0,32.985,111.785Z" transform="translate(-32.432 -106.174)" opacity="0.125" fill="url(#linear-gradient-123)"/>
        <path id="Path_76226" data-name="Path 76226" d="M33.028,111.669a4.113,4.113,0,0,0,3.908,4.294H48.659a4.313,4.313,0,0,0,0-8.587H36.936A4.113,4.113,0,0,0,33.028,111.669Z" transform="translate(-32.199 -106.245)" opacity="0.188" fill="url(#linear-gradient-124)"/>
        <path id="Path_76227" data-name="Path 76227" d="M33.071,111.559a4.025,4.025,0,0,0,3.837,4.191H48.42a4.21,4.21,0,0,0,0-8.388H36.908A4.031,4.031,0,0,0,33.071,111.559Z" transform="translate(-31.965 -106.321)" opacity="0.25" fill="url(#linear-gradient-125)"/>
        <path id="Path_76228" data-name="Path 76228" d="M33.114,111.443a3.938,3.938,0,0,0,3.766,4.094h11.3a4.108,4.108,0,0,0,0-8.188H36.88A3.938,3.938,0,0,0,33.114,111.443Z" transform="translate(-31.732 -106.391)" opacity="0.313" fill="url(#linear-gradient-126)"/>
        <path id="Path_76229" data-name="Path 76229" d="M33.157,111.333a3.85,3.85,0,0,0,3.7,3.991H47.94a4.006,4.006,0,0,0,0-7.989H36.853A3.856,3.856,0,0,0,33.157,111.333Z" transform="translate(-31.499 -106.467)" opacity="0.375" fill="url(#linear-gradient-127)"/>
        <path id="Path_76230" data-name="Path 76230" d="M33.2,111.217a3.762,3.762,0,0,0,3.625,3.889H47.707a3.9,3.9,0,0,0,0-7.784H36.825A3.764,3.764,0,0,0,33.2,111.217Z" transform="translate(-31.265 -106.538)" opacity="0.438" fill="url(#linear-gradient-128)"/>
        <path id="Path_76231" data-name="Path 76231" d="M33.243,111.1a3.678,3.678,0,0,0,3.554,3.8H47.467a3.8,3.8,0,0,0,0-7.591H36.8A3.68,3.68,0,0,0,33.243,111.1Z" transform="translate(-31.032 -106.614)" opacity="0.5" fill="url(#linear-gradient-129)"/>
        <path id="Path_76232" data-name="Path 76232" d="M33.286,110.984a3.59,3.59,0,0,0,3.484,3.7H47.227a3.7,3.7,0,0,0,0-7.385H36.77A3.588,3.588,0,0,0,33.286,110.984Z" transform="translate(-30.799 -106.684)" opacity="0.563" fill="url(#linear-gradient-130)"/>
        <path id="Path_76233" data-name="Path 76233" d="M33.328,110.874a3.508,3.508,0,0,0,3.419,3.593H46.993a3.6,3.6,0,0,0,0-7.186H36.747A3.512,3.512,0,0,0,33.328,110.874Z" transform="translate(-30.571 -106.76)" opacity="0.625" fill="url(#linear-gradient-131)"/>
        <path id="Path_76234" data-name="Path 76234" d="M33.371,110.763a3.422,3.422,0,0,0,3.349,3.5H46.753a3.5,3.5,0,0,0,0-6.993H36.72A3.426,3.426,0,0,0,33.371,110.763Z" transform="translate(-30.337 -106.836)" opacity="0.688" fill="url(#linear-gradient-132)"/>
        <path id="Path_76235" data-name="Path 76235" d="M33.414,110.648a3.334,3.334,0,0,0,3.278,3.394h9.827a3.4,3.4,0,0,0,0-6.787H36.692A3.338,3.338,0,0,0,33.414,110.648Z" transform="translate(-30.104 -106.907)" opacity="0.75" fill="url(#linear-gradient-133)"/>
        <path id="Path_76236" data-name="Path 76236" d="M33.457,110.537a3.247,3.247,0,0,0,3.207,3.291H46.28a3.3,3.3,0,0,0,0-6.588H36.664A3.253,3.253,0,0,0,33.457,110.537Z" transform="translate(-29.87 -106.983)" opacity="0.813" fill="url(#linear-gradient-134)"/>
        <path id="Path_76237" data-name="Path 76237" d="M33.5,110.421a3.162,3.162,0,0,0,3.137,3.194h9.4a3.195,3.195,0,0,0,0-6.389h-9.4A3.166,3.166,0,0,0,33.5,110.421Z" transform="translate(-29.637 -107.053)" opacity="0.875" fill="url(#linear-gradient-135)"/>
        <path id="Path_76238" data-name="Path 76238" d="M33.543,110.311a3.075,3.075,0,0,0,3.066,3.092H45.8a3.095,3.095,0,0,0,0-6.19H36.609A3.081,3.081,0,0,0,33.543,110.311Z" transform="translate(-29.404 -107.129)" opacity="0.938" fill="url(#linear-gradient-136)"/>
        <path id="Path_76239" data-name="Path 76239" d="M33.586,110.189a2.99,2.99,0,0,0,3,3H45.56a2.992,2.992,0,1,0,0-5.984H36.581A2.993,2.993,0,0,0,33.586,110.189Z" transform="translate(-29.17 -107.2)" fill="url(#linear-gradient-137)"/>
      </g>
      <g id="Group_42830" data-name="Group 42830" transform="translate(70.288 12.558)" opacity="0.6">
        <path id="Path_76240" data-name="Path 76240" d="M32.642,118.356a4.37,4.37,0,0,0,6.164.334l8.735-8.728a4.625,4.625,0,0,0-6.5-6.5L32.3,112.192A4.376,4.376,0,0,0,32.642,118.356Z" transform="translate(-31.188 -101.913)" opacity="0" fill="url(#linear-gradient-138)"/>
        <path id="Path_76241" data-name="Path 76241" d="M32.646,118.068a4.284,4.284,0,0,0,6.042.308l8.587-8.581a4.52,4.52,0,0,0-6.357-6.357l-8.593,8.587A4.291,4.291,0,0,0,32.646,118.068Z" transform="translate(-30.967 -101.934)" opacity="0.063" fill="url(#linear-gradient-139)"/>
        <path id="Path_76242" data-name="Path 76242" d="M32.645,117.776a4.2,4.2,0,0,0,5.926.3l8.439-8.433a4.419,4.419,0,0,0-6.215-6.222l-8.439,8.439A4.2,4.2,0,0,0,32.645,117.776Z" transform="translate(-30.747 -101.957)" opacity="0.125" fill="url(#linear-gradient-140)"/>
        <path id="Path_76243" data-name="Path 76243" d="M32.649,117.492a4.116,4.116,0,0,0,5.8.27l8.291-8.285a4.314,4.314,0,0,0-6.074-6.074l-8.291,8.285A4.122,4.122,0,0,0,32.649,117.492Z" transform="translate(-30.526 -101.981)" opacity="0.188" fill="url(#linear-gradient-141)"/>
        <path id="Path_76244" data-name="Path 76244" d="M32.655,117.2a4.03,4.03,0,0,0,5.682.244l8.143-8.131a4.214,4.214,0,0,0-5.932-5.939L32.4,111.523A4.031,4.031,0,0,0,32.655,117.2Z" transform="translate(-30.308 -102.002)" opacity="0.25" fill="url(#linear-gradient-142)"/>
        <path id="Path_76245" data-name="Path 76245" d="M32.659,116.912a3.94,3.94,0,0,0,5.56.231l8-7.989a4.11,4.11,0,0,0-5.791-5.791l-8,7.989A3.946,3.946,0,0,0,32.659,116.912Z" transform="translate(-30.087 -102.025)" opacity="0.313" fill="url(#linear-gradient-143)"/>
        <path id="Path_76246" data-name="Path 76246" d="M32.665,116.627a3.855,3.855,0,0,0,5.438.206l7.848-7.841a4.007,4.007,0,0,0-5.65-5.65l-7.848,7.841A3.863,3.863,0,0,0,32.665,116.627Z" transform="translate(-29.868 -102.048)" opacity="0.375" fill="url(#linear-gradient-144)"/>
        <path id="Path_76247" data-name="Path 76247" d="M32.671,116.336a3.766,3.766,0,0,0,5.322.186l7.694-7.687a3.9,3.9,0,0,0-5.508-5.508l-7.694,7.694A3.758,3.758,0,0,0,32.671,116.336Z" transform="translate(-29.648 -102.072)" opacity="0.438" fill="url(#linear-gradient-145)"/>
        <path id="Path_76248" data-name="Path 76248" d="M32.675,116.049a3.687,3.687,0,0,0,5.2.167l7.546-7.546a3.8,3.8,0,0,0-5.367-5.367l-7.546,7.546A3.681,3.681,0,0,0,32.675,116.049Z" transform="translate(-29.427 -102.093)" opacity="0.5" fill="url(#linear-gradient-146)"/>
        <path id="Path_76249" data-name="Path 76249" d="M32.681,115.756a3.591,3.591,0,0,0,5.078.148l7.4-7.391a3.7,3.7,0,0,0-5.225-5.225l-7.4,7.392A3.591,3.591,0,0,0,32.681,115.756Z" transform="translate(-29.209 -102.116)" opacity="0.563" fill="url(#linear-gradient-147)"/>
        <path id="Path_76250" data-name="Path 76250" d="M32.685,115.473a3.506,3.506,0,0,0,4.956.122l7.244-7.244a3.6,3.6,0,0,0-5.078-5.084l-7.25,7.25A3.506,3.506,0,0,0,32.685,115.473Z" transform="translate(-28.988 -102.141)" opacity="0.625" fill="url(#linear-gradient-148)"/>
        <path id="Path_76251" data-name="Path 76251" d="M32.692,115.179a3.41,3.41,0,0,0,4.833.1l7.1-7.089a3.5,3.5,0,0,0-4.936-4.943l-7.1,7.1A3.416,3.416,0,0,0,32.692,115.179Z" transform="translate(-28.769 -102.162)" opacity="0.688" fill="url(#linear-gradient-149)"/>
        <path id="Path_76252" data-name="Path 76252" d="M32.7,114.894a3.332,3.332,0,0,0,4.711.084l6.948-6.948a3.4,3.4,0,0,0-4.795-4.8l-6.954,6.948A3.34,3.34,0,0,0,32.7,114.894Z" transform="translate(-28.548 -102.185)" opacity="0.75" fill="url(#linear-gradient-150)"/>
        <path id="Path_76253" data-name="Path 76253" d="M32.7,114.6a3.25,3.25,0,0,0,4.6.064l6.8-6.8a3.292,3.292,0,0,0-4.653-4.653l-6.8,6.8A3.242,3.242,0,0,0,32.7,114.6Z" transform="translate(-28.33 -102.208)" opacity="0.813" fill="url(#linear-gradient-151)"/>
        <path id="Path_76254" data-name="Path 76254" d="M32.7,114.318a3.168,3.168,0,0,0,4.48.039l6.646-6.646a3.191,3.191,0,0,0-4.512-4.512l-6.652,6.646A3.166,3.166,0,0,0,32.7,114.318Z" transform="translate(-28.109 -102.233)" opacity="0.875" fill="url(#linear-gradient-152)"/>
        <path id="Path_76255" data-name="Path 76255" d="M32.706,114.025a3.084,3.084,0,0,0,4.358.026l6.5-6.5a3.091,3.091,0,0,0-4.371-4.371l-6.5,6.5A3.076,3.076,0,0,0,32.706,114.025Z" transform="translate(-27.89 -102.254)" opacity="0.938" fill="url(#linear-gradient-153)"/>
        <path id="Path_76256" data-name="Path 76256" d="M32.711,113.738a3,3,0,0,0,4.236,0l6.35-6.35a2.991,2.991,0,1,0-4.229-4.229l-6.357,6.35A2.993,2.993,0,0,0,32.711,113.738Z" transform="translate(-27.67 -102.277)" fill="url(#linear-gradient-154)"/>
      </g>
    </g>
    <g id="Group_42832" data-name="Group 42832" transform="translate(4.409)">
      <path id="Path_76257" data-name="Path 76257" d="M51.039,103.583a26.944,26.944,0,1,0,26.944,26.944A26.946,26.946,0,0,0,51.039,103.583Z" transform="translate(-3.836 -82.63)" fill="url(#linear-gradient-18)"/>
      <path id="Path_76258" data-name="Path 76258" d="M30.811,115.292a2.993,2.993,0,0,0,2.989-3v-8.979a2.992,2.992,0,1,0-5.984,0V112.3A2.994,2.994,0,0,0,30.811,115.292Z" transform="translate(16.392 -100.323)" fill="url(#linear-gradient-156)"/>
      <path id="Path_76259" data-name="Path 76259" d="M34.356,113.939a3,3,0,0,0,0-4.229l-6.35-6.35a2.993,2.993,0,0,0-4.236,4.229l6.35,6.35A2.989,2.989,0,0,0,34.356,113.939Z" transform="translate(-10.33 -88.603)" fill="url(#linear-gradient-52)"/>
      <path id="Path_76260" data-name="Path 76260" d="M35.907,110.48a2.989,2.989,0,0,0-3-2.989H23.933a2.989,2.989,0,1,0,0,5.977h8.979A2.989,2.989,0,0,0,35.907,110.48Z" transform="translate(-20.938 -61.419)" fill="url(#linear-gradient-69)"/>
      <path id="Path_76261" data-name="Path 76261" d="M34.561,112.3a3,3,0,0,0-4.236,0l-6.35,6.35a2.993,2.993,0,0,0,4.236,4.229l6.35-6.35A2.987,2.987,0,0,0,34.561,112.3Z" transform="translate(-9.218 -40.065)" fill="url(#linear-gradient-86)"/>
      <path id="Path_76262" data-name="Path 76262" d="M31.1,112.97a2.994,2.994,0,0,0-3,3v8.979a3,3,0,1,0,5.99,0v-8.979A3,3,0,0,0,31.1,112.97Z" transform="translate(17.966 -31.683)" fill="url(#linear-gradient-103)"/>
      <path id="Path_76263" data-name="Path 76263" d="M32.914,112.1a3,3,0,0,0,0,4.229l6.357,6.35a2.991,2.991,0,0,0,4.229-4.229l-6.35-6.35A2.983,2.983,0,0,0,32.914,112.1Z" transform="translate(39.324 -41.182)" fill="url(#linear-gradient-120)"/>
      <path id="Path_76264" data-name="Path 76264" d="M33.586,110.189a2.99,2.99,0,0,0,3,3H45.56a2.992,2.992,0,1,0,0-5.984H36.581A2.993,2.993,0,0,0,33.586,110.189Z" transform="translate(47.708 -62.999)" fill="url(#linear-gradient-137)"/>
      <path id="Path_76265" data-name="Path 76265" d="M32.711,113.738a3,3,0,0,0,4.236,0l6.35-6.35a2.991,2.991,0,1,0-4.229-4.229l-6.357,6.35A2.993,2.993,0,0,0,32.711,113.738Z" transform="translate(38.209 -89.719)" fill="url(#linear-gradient-154)"/>
    </g>
  </g>
</svg>
