<svg xmlns="http://www.w3.org/2000/svg" width="54" height="54" viewBox="0 0 54 54">
  <g id="Group_88720" data-name="Group 88720" transform="translate(-341.67 -16)">
    <g id="Ellipse_4" data-name="Ellipse 4" transform="translate(341.67 16)" fill="none" stroke="#fff" stroke-width="2.5">
      <circle cx="27" cy="27" r="27" stroke="none"/>
      <circle cx="27" cy="27" r="25.75" fill="none"/>
    </g>
    <path id="Path_76358" data-name="Path 76358" d="M-5.529-3.483h-1.7V3.358H-9.36V-11.153h5.215a4.513,4.513,0,0,1,2.895.85A3.637,3.637,0,0,1,.218-7.318,3.637,3.637,0,0,1-1.251-4.333,3.687,3.687,0,0,1-3-3.566L2.346,3.358H-.229Zm-1.7-1.969h2.98a2.5,2.5,0,0,0,1.788-.539,1.779,1.779,0,0,0,.553-1.327,1.779,1.779,0,0,0-.553-1.327,2.5,2.5,0,0,0-1.788-.539h-2.98Zm23.306,0V.871a7.233,7.233,0,0,1-2.543,1.949,7.454,7.454,0,0,1-3.246.746A7.629,7.629,0,0,1,4.751,1.441,7.124,7.124,0,0,1,2.559-3.9,7.2,7.2,0,0,1,4.719-9.2a7.3,7.3,0,0,1,5.374-2.156,7.9,7.9,0,0,1,3.033.591,6.726,6.726,0,0,1,2.416,1.648L14.116-7.753a5.078,5.078,0,0,0-1.767-1.182,5.768,5.768,0,0,0-2.256-.456A5.194,5.194,0,0,0,6.241-7.815,5.358,5.358,0,0,0,4.687-3.9,5.247,5.247,0,0,0,6.284.062a5.545,5.545,0,0,0,4,1.534A5.023,5.023,0,0,0,13.946.249V-3.483H9.689V-5.452ZM-3.454,9.577l-2.873,1.41V8.935l3.512-1.949h1.49V21.5H-3.454ZM11.03,20.367A5.215,5.215,0,0,1,7.4,21.7a5.215,5.215,0,0,1-3.629-1.337A4.236,4.236,0,0,1,2.293,17.1a4.026,4.026,0,0,1,.66-2.239,4.431,4.431,0,0,1,1.7-1.555,3.112,3.112,0,0,1-1.011-1.161,3.25,3.25,0,0,1-.394-1.534A3.588,3.588,0,0,1,4.442,7.9,4.156,4.156,0,0,1,7.4,6.779,4.156,4.156,0,0,1,10.359,7.9a3.588,3.588,0,0,1,1.192,2.716,3.25,3.25,0,0,1-.394,1.534,3.112,3.112,0,0,1-1.011,1.161,4.431,4.431,0,0,1,1.7,1.555,4.026,4.026,0,0,1,.66,2.239A4.236,4.236,0,0,1,11.03,20.367Zm-1.5-5.151A3.061,3.061,0,0,0,7.4,14.449a3.061,3.061,0,0,0-2.128.767A2.441,2.441,0,0,0,4.421,17.1a2.409,2.409,0,0,0,.851,1.876,3.086,3.086,0,0,0,2.128.757,3.086,3.086,0,0,0,2.128-.757,2.409,2.409,0,0,0,.851-1.876A2.441,2.441,0,0,0,9.529,15.216ZM8.848,9.287A2.033,2.033,0,0,0,7.4,8.748a2.033,2.033,0,0,0-1.447.539,1.819,1.819,0,0,0,0,2.653,2.033,2.033,0,0,0,1.447.539,2.033,2.033,0,0,0,1.447-.539,1.819,1.819,0,0,0,0-2.653Z" transform="translate(365.313 37.828)" fill="#fff" stroke="#fff" stroke-width="0.5"/>
  </g>
</svg>
