<svg xmlns="http://www.w3.org/2000/svg" width="34.277" height="30" viewBox="0 0 34.277 30">
  <path id="feedback" d="M53.459,59.478H50.123V56.6a4.539,4.539,0,0,0-4.533-4.533H27.533A4.539,4.539,0,0,0,23,56.6V68.437a4.539,4.539,0,0,0,4.533,4.533H30v4.075a2.317,2.317,0,0,0,1.286,2.1,2.367,2.367,0,0,0,1.078.264,2.336,2.336,0,0,0,1.377-.456l3.411-2.475a3.8,3.8,0,0,0,1.525.322h2.912l6.721,4.876a2.017,2.017,0,0,0,1.189.394,2.044,2.044,0,0,0,.931-.228,2,2,0,0,0,1.111-1.814V76.8h1.915a3.822,3.822,0,0,0,3.817-3.817V63.3a3.822,3.822,0,0,0-3.817-3.818ZM33.053,78a1.18,1.18,0,0,1-1.873-.955V72.382a.588.588,0,0,0-.588-.588H27.533a3.36,3.36,0,0,1-3.357-3.357V56.6a3.36,3.36,0,0,1,3.357-3.357H45.59A3.36,3.36,0,0,1,48.946,56.6V68.437a3.36,3.36,0,0,1-3.357,3.357H41.8a.589.589,0,0,0-.346.112ZM56.1,72.982a2.644,2.644,0,0,1-2.641,2.641h-2.5a.588.588,0,0,0-.588.588v3.817a.859.859,0,0,1-1.363.7l-6.875-4.988a.589.589,0,0,0-.346-.112h-3.1a2.611,2.611,0,0,1-.319-.02l3.628-2.632h3.6a4.539,4.539,0,0,0,4.533-4.533V60.655h3.336A2.644,2.644,0,0,1,56.1,63.3Zm-13-9.874H30.025a.588.588,0,1,1,0-1.177H43.1a.588.588,0,1,1,0,1.177Z" transform="translate(-23 -52.069)" fill="#b89535"/>
</svg>
