<svg xmlns="http://www.w3.org/2000/svg" width="13.797" height="13.813" viewBox="0 0 13.797 13.813">
  <path id="Icon_zocial-call" data-name="Icon zocial-call" d="M5.626,2.447a.666.666,0,0,1,.613.425l1.55,2.909A.915.915,0,0,1,7.64,6.828l-.024.026-.7.7a.281.281,0,0,0-.077.168,2.073,2.073,0,0,0,.413.931,10.1,10.1,0,0,0,.923,1.214l.487.5c.152.152.341.333.561.537a9.267,9.267,0,0,0,1.1.814,2.1,2.1,0,0,0,1,.453.2.2,0,0,0,.158-.062l.833-.832a.847.847,0,0,1,1.092-.138l2.8,1.645a.728.728,0,0,1,.369.524.708.708,0,0,1-.207.614l-1.945,1.943a1.434,1.434,0,0,1-.774.357,4.383,4.383,0,0,1-1.991-.238A8.541,8.541,0,0,1,9.7,15.064c-.568-.368-1.1-.747-1.6-1.128s-.888-.713-1.185-.988l-.007-.007-.423-.407c-.115-.115-.261-.267-.435-.451-.192-.2-.511-.586-.948-1.135A16.644,16.644,0,0,1,3.94,9.29a9.924,9.924,0,0,1-.877-1.879A4.305,4.305,0,0,1,2.8,5.4a1.438,1.438,0,0,1,.358-.775L3.181,4.6,5.129,2.649A.758.758,0,0,1,5.626,2.447ZM6.871,6.185,5.527,3.663,3.9,5.288a.443.443,0,0,0-.111.23l0,.013a3.327,3.327,0,0,0,.217,1.547,8.925,8.925,0,0,0,.787,1.689,15.642,15.642,0,0,0,1.1,1.558c.523.657.775.946.894,1.072.165.175.3.318.41.426l.409.394c.276.255.651.568,1.116.929s.981.726,1.525,1.078a7.541,7.541,0,0,0,1.71.817,3.4,3.4,0,0,0,1.539.2l.015,0a.439.439,0,0,0,.229-.11l1.647-1.647-2.434-1.432-.777.776a1.2,1.2,0,0,1-.865.354,3,3,0,0,1-1.549-.619,10,10,0,0,1-1.224-.915c-.229-.212-.427-.4-.589-.564l-.005-.005-.507-.523A11.065,11.065,0,0,1,6.413,9.208,2.867,2.867,0,0,1,5.834,7.7V7.675l0-.026a1.287,1.287,0,0,1,.368-.8Z" transform="translate(-2.768 -2.447)" fill="#878787"/>
</svg>
