<svg xmlns="http://www.w3.org/2000/svg" width="28.329" height="31.5" viewBox="0 0 28.329 31.5">
  <g id="improvement" transform="translate(0.75 0.75)">
    <path id="Path_101311" data-name="Path 101311" d="M36,250.7H62.83v3.817l-2.152.175a11.387,11.387,0,0,1-1.826,4.405l1.4,1.647-2.7,2.7-1.647-1.4a11.389,11.389,0,0,1-4.405,1.826l-.175,2.153H47.507l-.175-2.152a11.387,11.387,0,0,1-4.405-1.826l-1.647,1.4-2.7-2.7,1.4-1.647a11.388,11.388,0,0,1-1.826-4.405L36,254.518Z" transform="translate(-36.001 -236.024)" fill="none" stroke="#b89535" stroke-linecap="round" stroke-linejoin="round" stroke-width="1.5" fill-rule="evenodd"/>
    <path id="Path_101312" data-name="Path 101312" d="M150.418,252.972a7.317,7.317,0,1,1-14.2,0" transform="translate(-129.903 -238.157)" fill="none" stroke="#b89535" stroke-linecap="round" stroke-linejoin="round" stroke-width="1.5" fill-rule="evenodd"/>
    <path id="Path_101313" data-name="Path 101313" d="M210.879,71.323V64.268h1.22L209.05,60,206,64.268h1.22v7.055" transform="translate(-195.635 -56.951)" fill="none" stroke="#b89535" stroke-linecap="round" stroke-linejoin="round" stroke-width="1.5" fill-rule="evenodd"/>
    <path id="Path_101314" data-name="Path 101314" d="M350.879,24.372v-10.1h1.22L349.05,10,346,14.268h1.22v10.1" transform="translate(-327.098 -10)" fill="none" stroke="#b89535" stroke-linecap="round" stroke-linejoin="round" stroke-width="1.5" fill-rule="evenodd"/>
    <path id="Path_101315" data-name="Path 101315" d="M70.879,118.275v-4.006H72.1L69.05,110,66,114.269h1.22v4.006" transform="translate(-64.172 -103.903)" fill="none" stroke="#b89535" stroke-linecap="round" stroke-linejoin="round" stroke-width="1.5" fill-rule="evenodd"/>
  </g>
</svg>
