<svg id="layer2" xmlns="http://www.w3.org/2000/svg" width="30" height="30" viewBox="0 0 30 30">
  <path id="path2184" d="M25.787.956,25.805,4.6A15,15,0,0,0,0,14.991.938.938,0,1,0,1.875,15a13.12,13.12,0,0,1,23-8.627L20.409,6.4a.939.939,0,0,0,.007,1.877l6.345-.035a.948.948,0,0,0,.936-.949L27.662.949a.938.938,0,1,0-1.875.007ZM28.125,15a13.12,13.12,0,0,1-23,8.627l4.462-.024a.939.939,0,0,0-.007-1.877l-6.345.035a.948.948,0,0,0-.936.949l.035,6.34a.938.938,0,1,0,1.875-.007c-.006-1.215-.018-3.646-.018-3.646A15,15,0,0,0,30,15.009.938.938,0,1,0,28.125,15Z" transform="translate(0 0)" fill="#b89535"/>
</svg>
