<svg id="promotion" xmlns="http://www.w3.org/2000/svg" width="35.931" height="34" viewBox="0 0 35.931 34">
  <path id="Path_101316" data-name="Path 101316" d="M123.016,290.885a.7.7,0,1,0-.959-.257A.7.7,0,0,0,123.016,290.885Zm0,0" transform="translate(-113.404 -269.253)" fill="#b89535"/>
  <path id="Path_101317" data-name="Path 101317" d="M6.736,47.262l3.534,6.122a2.807,2.807,0,1,0,4.862-2.807l-2.105-3.647,1.823-1.053a.7.7,0,0,0,.257-.959l-.913-1.581L27.636,40.7a2.1,2.1,0,0,0,1.706-3.154l-2.332-4.04,1.49-2.257a.7.7,0,0,0,.022-.738l-1.4-2.431a.7.7,0,0,0-.65-.35l-2.7.162L21.18,23.408a2.087,2.087,0,0,0-1.8-1.052h-.027a2.087,2.087,0,0,0-1.773.971L8.416,35l-5.96,3.441a4.912,4.912,0,0,0,4.279,8.816Zm7.181,4.017a1.4,1.4,0,0,1-2.431,1.4L7.977,46.6l2.431-1.4,3.509,6.079Zm-1.592-5.565-.7-1.216,1.216-.7.7,1.216Zm13.8-16.556.97,1.68-.865,1.31-1.672-2.9ZM18.758,24.1a.7.7,0,0,1,1.207.014l8.163,14.138a.7.7,0,0,1-.59,1.052,2.577,2.577,0,0,0-.385.065L18.517,24.41c.181-.233.2-.255.24-.314Zm-1.174,1.5L25.7,39.651l-12.243,2.4L9.73,35.6ZM1.874,44.454a3.507,3.507,0,0,1,1.284-4.793L8.628,36.5l3.509,6.078-5.47,3.158a3.513,3.513,0,0,1-4.793-1.285Zm0,0" transform="translate(0 -20.787)" fill="#b89535"/>
  <path id="Path_101318" data-name="Path 101318" d="M47.124,309.924a.7.7,0,0,0-.959-.257l-1.216.7a.7.7,0,0,1-.959-.257.7.7,0,1,0-1.216.7,2.108,2.108,0,0,0,2.876.771l1.215-.7a.7.7,0,0,0,.257-.959Zm0,0" transform="translate(-39.686 -287.847)" fill="#b89535"/>
  <path id="Path_101319" data-name="Path 101319" d="M440.546,42.57l-3.91,2.176a.7.7,0,1,0,.683,1.226l3.91-2.176a.7.7,0,0,0-.682-1.226Zm0,0" transform="translate(-405.658 -39.5)" fill="#b89535"/>
  <path id="Path_101320" data-name="Path 101320" d="M443.658,137.371l-2.711-.726a.7.7,0,1,0-.363,1.356l2.712.726a.7.7,0,1,0,.363-1.356Zm0,0" transform="translate(-409.18 -127.033)" fill="#b89535"/>
  <path id="Path_101321" data-name="Path 101321" d="M384.244.521l-.727,2.712a.7.7,0,0,0,1.356.364L385.6.884a.7.7,0,1,0-1.356-.363Zm0,0" transform="translate(-356.58 0)" fill="#b89535"/>
</svg>
