<svg xmlns="http://www.w3.org/2000/svg" width="97.79" height="106.598" viewBox="135.09 46.237 97.79 106.598"><g data-name="Group 26461"><path d="M142.572 144.6v5.97h-1.162v-8.13h.813l4.879 5.97v-5.97h1.162v8.13h-.813l-4.88-5.97Z" fill="#fff" fill-rule="evenodd" data-name="Path 273"/><path d="M156.697 145.633v1.104h-2.671v2.73h3.6v1.103h-4.762v-8.13h4.646v1.102h-3.484v2.091h2.671Z" fill="#fff" fill-rule="evenodd" data-name="Path 274"/><g data-name="Group 56"><g data-name="Group 55" transform="translate(140 48)" clip-path="url(&quot;#a&quot;)"><path d="M25.143 94.324c2.3 0 4.065 1.81 4.065 4.18 0 2.37-1.765 4.183-4.065 4.183-2.3 0-4.066-1.813-4.066-4.183s1.765-4.18 4.066-4.18m0 7.26c1.66 0 2.904-1.313 2.904-3.08 0-1.753-1.244-3.077-2.904-3.077-1.662 0-2.905 1.324-2.905 3.077 0 1.767 1.243 3.08 2.905 3.08" fill="#fff" fill-rule="evenodd" data-name="Path 275"/><path d="M37.274 100.828h-.813l-2.381-3.729v5.471h-1.163v-8.131h.813l3.137 4.96 3.136-4.96h.814v8.131h-1.162v-5.471l-2.381 3.729Z" fill="#fff" fill-rule="evenodd" data-name="Path 276"/><path d="M81.353 92.998a.824.824 0 1 1-1.648 0 .824.824 0 0 1 1.648 0" fill="#fff" fill-rule="evenodd" data-name="Path 277"/><path d="M73.617 103.973a.823.823 0 1 1-1.647 0 .823.823 0 0 1 1.647 0" fill="#fff" fill-rule="evenodd" data-name="Path 278"/><path d="M71.202 103.973a.824.824 0 1 1-1.648 0 .824.824 0 0 1 1.648 0" fill="#fff" fill-rule="evenodd" data-name="Path 279"/><path d="M54.102 101.855h-.234a3.564 3.564 0 0 0 .663-.027 3.444 3.444 0 0 1-.429.027" fill="#fff" fill-rule="evenodd" data-name="Path 280"/><path d="M54.054 94.596c-2 0-3.531 1.573-3.531 3.631 0 1.058.405 1.988 1.07 2.64h-3.847v3.93h1.162v-2.943h5.194c.147 0 .29-.01.43-.026.023-.002.046-.006.07-.01.057-.008.114-.02.17-.029a3.478 3.478 0 0 0 .47-.132c.043-.015.086-.03.129-.048 1.314-.52 2.211-1.809 2.211-3.382 0-2.058-1.532-3.63-3.528-3.63m0 6.246c-1.412 0-2.468-1.114-2.468-2.616 0-1.49 1.056-2.616 2.468-2.616 1.41 0 2.467 1.127 2.467 2.616 0 1.502-1.057 2.616-2.467 2.616" fill="#fff" fill-rule="evenodd" data-name="Path 281"/><path d="M80.002 95.136v5.73h-6.385v-5.73h-1.162v5.73h-6.443l.01-.023a7.053 7.053 0 0 0 .486-2.616c0-1.53-.847-2.791-2.102-3.337a3.56 3.56 0 0 0-1.428-.294c-1.997 0-3.529 1.573-3.529 3.631 0 1.044.395 1.964 1.046 2.616a3.438 3.438 0 0 0 1.446.864c.103.034.21.059.318.082.056.01.112.02.17.028a3.36 3.36 0 0 0 .5.037h1.26c-.976 1.178-2.447 1.896-4.16 1.896v1.085c2.375 0 4.364-1.155 5.487-2.981h15.648v-6.718h-1.162Zm-14.561 3.23a5.746 5.746 0 0 1-.595 2.477h-1.868c-1.41 0-2.468-1.115-2.468-2.616 0-1.49 1.058-2.615 2.468-2.615 1.411 0 2.467 1.126 2.467 2.615 0 .047 0 .093-.004.14" fill="#fff" fill-rule="evenodd" data-name="Path 282"/><path d="M60.03 104.835v-1.085" fill="#fff" fill-rule="evenodd" data-name="Line 2"/></g></g><g data-name="Group 58"><g data-name="Group 57" transform="translate(141.03 89.367)" clip-path="url(&quot;#b&quot;)"><path d="M10.668 11.6v4.14l1.003 1.002h.475v-6.145h-.475l-1.003 1.002Z" fill="#fff" fill-rule="evenodd" data-name="Path 283"/><path d="M12.335 36.387h2.85v6.145h-2.85v-6.145z" fill="#fff" fill-rule="evenodd" data-name="Rectangle 76"/><path d="M10.668 18.047v4.14l1.003 1.003h.475v-6.146h-.475l-1.003 1.003Z" fill="#fff" fill-rule="evenodd" data-name="Path 284"/><path d="M8.932 29.94v6.145h.437l1.003-1.002v-4.14l-1.003-1.004h-.437Z" fill="#fff" fill-rule="evenodd" data-name="Path 285"/><path d="M10.668-1.296v4.14l1.003 1.004h.475v-6.146h-.475l-1.003 1.002Z" fill="#fff" fill-rule="evenodd" data-name="Path 286"/><path d="M12.335 17.044h2.85v6.146h-2.85v-6.146z" fill="#fff" fill-rule="evenodd" data-name="Rectangle 77"/><path d="M12.335 29.94h2.85v6.145h-2.85V29.94z" fill="#fff" fill-rule="evenodd" data-name="Rectangle 78"/><path d="M12.335 10.596h2.85v6.146h-2.85v-6.146z" fill="#fff" fill-rule="evenodd" data-name="Rectangle 79"/><path d="M12.335 23.491h2.85v6.146h-2.85v-6.146z" fill="#fff" fill-rule="evenodd" data-name="Rectangle 80"/><path d="M8.932 23.491v6.146h.437l1.003-1.002v-4.141l-1.003-1.003h-.437Z" fill="#fff" fill-rule="evenodd" data-name="Path 287"/><path d="M10.668 24.494v4.14l1.003 1.004h.475v-6.146h-.475l-1.003 1.002Z" fill="#fff" fill-rule="evenodd" data-name="Path 288"/><path d="M8.932 10.596v6.146h.437l1.003-1.002V11.6l-1.003-1.004h-.437Z" fill="#fff" fill-rule="evenodd" data-name="Path 289"/><path d="M12.335 4.149h2.85v6.146h-2.85V4.149z" fill="#fff" fill-rule="evenodd" data-name="Rectangle 81"/><path d="M8.932 4.149v6.146h.437l1.003-1.003v-4.14L9.369 4.149h-.437Z" fill="#fff" fill-rule="evenodd" data-name="Path 290"/><path d="M8.932 17.044v6.146h.437l1.003-1.003v-4.14l-1.003-1.003h-.437Z" fill="#fff" fill-rule="evenodd" data-name="Path 291"/><path d="M8.932-2.299v6.146h.437l1.003-1.002v-4.14L9.369-2.3h-.437Z" fill="#fff" fill-rule="evenodd" data-name="Path 292"/><path d="M10.668 30.942v4.14l1.003 1.003h.475V29.94h-.475l-1.003 1.003Z" fill="#fff" fill-rule="evenodd" data-name="Path 293"/><path d="M10.668 37.39v4.14l1.003 1.002h.475v-6.145h-.475l-1.003 1.002Z" fill="#fff" fill-rule="evenodd" data-name="Path 294"/><path d="M10.668 5.151v4.141l1.003 1.003h.475V4.149h-.475L10.668 5.15Z" fill="#fff" fill-rule="evenodd" data-name="Path 295"/><path d="M17.11 5.151v4.141l1.002 1.003h.476V4.149h-.476L17.11 5.15Z" fill="#fff" fill-rule="evenodd" data-name="Path 296"/><path d="M17.11-1.296v4.14l1.002 1.004h.476v-6.146h-.476L17.11-1.296Z" fill="#fff" fill-rule="evenodd" data-name="Path 297"/><path d="M17.11 18.047v4.14l1.002 1.003h.476v-6.146h-.476l-1.002 1.003Z" fill="#fff" fill-rule="evenodd" data-name="Path 298"/><path d="M17.11 24.494v4.14l1.002 1.004h.476v-6.146h-.476l-1.002 1.002Z" fill="#fff" fill-rule="evenodd" data-name="Path 299"/><path d="M18.777 29.94h2.85v6.145h-2.85V29.94z" fill="#fff" fill-rule="evenodd" data-name="Rectangle 82"/><path d="M18.777 36.387h2.85v6.145h-2.85v-6.145z" fill="#fff" fill-rule="evenodd" data-name="Rectangle 83"/><path d="M18.777 23.491h2.85v6.146h-2.85v-6.146z" fill="#fff" fill-rule="evenodd" data-name="Rectangle 84"/><path d="M17.11 30.942v4.14l1.002 1.003h.476V29.94h-.476l-1.002 1.003Z" fill="#fff" fill-rule="evenodd" data-name="Path 300"/><path d="M15.374-2.299v6.146h.437l1.003-1.002v-4.14L15.811-2.3h-.437Z" fill="#fff" fill-rule="evenodd" data-name="Path 301"/><path d="M15.374 23.491v6.146h.437l1.003-1.002v-4.141l-1.003-1.003h-.437Z" fill="#fff" fill-rule="evenodd" data-name="Path 302"/><path d="M15.374 29.94v6.145h.437l1.003-1.002v-4.14l-1.003-1.004h-.437Z" fill="#fff" fill-rule="evenodd" data-name="Path 303"/><path d="M15.374 36.387v6.145h.437l1.003-1.002v-4.14l-1.003-1.003h-.437Z" fill="#fff" fill-rule="evenodd" data-name="Path 304"/><path d="M15.374 17.044v6.146h.437l1.003-1.003v-4.14l-1.003-1.003h-.437Z" fill="#fff" fill-rule="evenodd" data-name="Path 305"/><path d="M17.11 37.39v4.14l1.002 1.002h.476v-6.145h-.476l-1.002 1.002Z" fill="#fff" fill-rule="evenodd" data-name="Path 306"/><path d="M15.374 10.596v6.146h.437l1.003-1.002V11.6l-1.003-1.004h-.437Z" fill="#fff" fill-rule="evenodd" data-name="Path 307"/><path d="M12.335-2.298h2.85v6.146h-2.85v-6.146z" fill="#fff" fill-rule="evenodd" data-name="Rectangle 85"/><path d="M15.374 4.149v6.146h.437l1.003-1.003v-4.14l-1.003-1.003h-.437Z" fill="#fff" fill-rule="evenodd" data-name="Path 308"/><path d="M18.777 17.044h2.85v6.146h-2.85v-6.146z" fill="#fff" fill-rule="evenodd" data-name="Rectangle 86"/><path d="M-.548 10.596h2.85v6.146h-2.85v-6.146z" fill="#fff" fill-rule="evenodd" data-name="Rectangle 87"/><path d="M-.548 17.044h2.85v6.146h-2.85v-6.146z" fill="#fff" fill-rule="evenodd" data-name="Rectangle 88"/><path d="M8.932 36.387v6.145h.437l1.003-1.002v-4.14l-1.003-1.003h-.437Z" fill="#fff" fill-rule="evenodd" data-name="Path 309"/><path d="M-.548 23.491h2.85v6.146h-2.85v-6.146z" fill="#fff" fill-rule="evenodd" data-name="Rectangle 89"/><path d="M-.548-2.298h2.85v6.146h-2.85v-6.146z" fill="#fff" fill-rule="evenodd" data-name="Rectangle 90"/><path d="M2.491 29.94v6.145h.437l1.002-1.002v-4.14l-1.002-1.004H2.49Z" fill="#fff" fill-rule="evenodd" data-name="Path 310"/><path d="M2.491 23.491v6.146h.437l1.002-1.002v-4.141l-1.002-1.003H2.49Z" fill="#fff" fill-rule="evenodd" data-name="Path 311"/><path d="M2.491 36.387v6.145h.437L3.93 41.53v-4.14l-1.002-1.003H2.49Z" fill="#fff" fill-rule="evenodd" data-name="Path 312"/><path d="M-.548 29.94h2.85v6.145h-2.85V29.94z" fill="#fff" fill-rule="evenodd" data-name="Rectangle 91"/><path d="M-.548 36.387h2.85v6.145h-2.85v-6.145z" fill="#fff" fill-rule="evenodd" data-name="Rectangle 92"/><path d="M-2.215 24.494v4.14l1.003 1.004h.475v-6.146h-.475l-1.003 1.002Z" fill="#fff" fill-rule="evenodd" data-name="Path 313"/><path d="M-2.215 30.942v4.14l1.003 1.003h.475V29.94h-.475l-1.003 1.003Z" fill="#fff" fill-rule="evenodd" data-name="Path 314"/><path d="M-2.215 37.39v4.14l1.003 1.002h.475v-6.145h-.475l-1.003 1.002Z" fill="#fff" fill-rule="evenodd" data-name="Path 315"/><path d="M-2.215 18.047v4.14l1.003 1.003h.475v-6.146h-.475l-1.003 1.003Z" fill="#fff" fill-rule="evenodd" data-name="Path 316"/><path d="M-2.215 11.6v4.14l1.003 1.002h.475v-6.145h-.475l-1.003 1.002Z" fill="#fff" fill-rule="evenodd" data-name="Path 317"/><path d="M-2.215-1.296v4.14l1.003 1.004h.475v-6.146h-.475l-1.003 1.002Z" fill="#fff" fill-rule="evenodd" data-name="Path 318"/><path d="M2.491 17.044v6.146h.437l1.002-1.003v-4.14l-1.002-1.003H2.49Z" fill="#fff" fill-rule="evenodd" data-name="Path 319"/><path d="M-2.215 5.151v4.141l1.003 1.003h.475V4.149h-.475L-2.215 5.15Z" fill="#fff" fill-rule="evenodd" data-name="Path 320"/><path d="M-.548 4.149h2.85v6.146h-2.85V4.149z" fill="#fff" fill-rule="evenodd" data-name="Rectangle 93"/><path d="M5.893 17.044h2.85v6.146h-2.85v-6.146z" fill="#fff" fill-rule="evenodd" data-name="Rectangle 94"/><path d="M5.893 23.491h2.85v6.146h-2.85v-6.146z" fill="#fff" fill-rule="evenodd" data-name="Rectangle 95"/><path d="M5.893 29.94h2.85v6.145h-2.85V29.94z" fill="#fff" fill-rule="evenodd" data-name="Rectangle 96"/><path d="M5.893 36.387h2.85v6.145h-2.85v-6.145z" fill="#fff" fill-rule="evenodd" data-name="Rectangle 97"/><path d="M5.893-2.298h2.85v6.146h-2.85v-6.146z" fill="#fff" fill-rule="evenodd" data-name="Rectangle 98"/><path d="M4.226-1.296v4.14l1.003 1.004h.475v-6.146h-.475L4.226-1.296Z" fill="#fff" fill-rule="evenodd" data-name="Path 321"/><path d="M2.491 10.596v6.146h.437L3.93 15.74V11.6l-1.002-1.004H2.49Z" fill="#fff" fill-rule="evenodd" data-name="Path 322"/><path d="M5.893 10.596h2.85v6.146h-2.85v-6.146z" fill="#fff" fill-rule="evenodd" data-name="Rectangle 99"/><path d="M5.893 4.149h2.85v6.146h-2.85V4.149z" fill="#fff" fill-rule="evenodd" data-name="Rectangle 100"/><path d="M2.491-2.299v6.146h.437L3.93 2.845v-4.14L2.928-2.3H2.49Z" fill="#fff" fill-rule="evenodd" data-name="Path 323"/><path d="M4.226 30.942v4.14l1.003 1.003h.475V29.94h-.475l-1.003 1.003Z" fill="#fff" fill-rule="evenodd" data-name="Path 324"/><path d="M4.226 37.39v4.14l1.003 1.002h.475v-6.145h-.475l-1.003 1.002Z" fill="#fff" fill-rule="evenodd" data-name="Path 325"/><path d="M4.226 5.151v4.141l1.003 1.003h.475V4.149h-.475L4.226 5.15Z" fill="#fff" fill-rule="evenodd" data-name="Path 326"/><path d="M2.491 4.149v6.146h.437L3.93 9.292v-4.14L2.928 4.149H2.49Z" fill="#fff" fill-rule="evenodd" data-name="Path 327"/><path d="M4.226 11.6v4.14l1.003 1.002h.475v-6.145h-.475l-1.003 1.002Z" fill="#fff" fill-rule="evenodd" data-name="Path 328"/><path d="M4.226 24.494v4.14l1.003 1.004h.475v-6.146h-.475l-1.003 1.002Z" fill="#fff" fill-rule="evenodd" data-name="Path 329"/><path d="M4.226 18.047v4.14l1.003 1.003h.475v-6.146h-.475l-1.003 1.003Z" fill="#fff" fill-rule="evenodd" data-name="Path 330"/><path d="M17.11 11.6v4.14l1.002 1.002h.476v-6.145h-.476l-1.002 1.002Z" fill="#fff" fill-rule="evenodd" data-name="Path 331"/><path d="M34.7 17.044v6.146h.437l1.002-1.003v-4.14l-1.002-1.003h-.438Z" fill="#fff" fill-rule="evenodd" data-name="Path 332"/><path d="M34.7 10.596v6.146h.437l1.002-1.002V11.6l-1.002-1.004h-.438Z" fill="#fff" fill-rule="evenodd" data-name="Path 333"/><path d="M34.7 29.94v6.145h.437l1.002-1.002v-4.14l-1.002-1.004h-.438Z" fill="#fff" fill-rule="evenodd" data-name="Path 334"/><path d="M34.7 4.149v6.146h.437l1.002-1.003v-4.14l-1.002-1.003h-.438Z" fill="#fff" fill-rule="evenodd" data-name="Path 335"/><path d="M36.436 18.047v4.14l1.002 1.003h.476v-6.146h-.476l-1.002 1.003Z" fill="#fff" fill-rule="evenodd" data-name="Path 336"/><path d="M36.436 24.494v4.14l1.002 1.004h.476v-6.146h-.476l-1.002 1.002Z" fill="#fff" fill-rule="evenodd" data-name="Path 337"/><path d="M34.7-2.299v6.146h.437l1.002-1.002v-4.14L35.137-2.3h-.438Z" fill="#fff" fill-rule="evenodd" data-name="Path 338"/><path d="M36.436 30.942v4.14l1.002 1.003h.476V29.94h-.476l-1.002 1.003Z" fill="#fff" fill-rule="evenodd" data-name="Path 339"/><path d="M36.436 37.39v4.14l1.002 1.002h.476v-6.145h-.476l-1.002 1.002Z" fill="#fff" fill-rule="evenodd" data-name="Path 340"/><path d="M34.7 23.491v6.146h.437l1.002-1.002v-4.141l-1.002-1.003h-.438Z" fill="#fff" fill-rule="evenodd" data-name="Path 341"/><path d="M31.66 17.044h2.85v6.146h-2.85v-6.146z" fill="#fff" fill-rule="evenodd" data-name="Rectangle 101"/><path d="M34.7 36.387v6.145h.437l1.002-1.002v-4.14l-1.002-1.003h-.438Z" fill="#fff" fill-rule="evenodd" data-name="Path 342"/><path d="M31.66 29.94h2.85v6.145h-2.85V29.94z" fill="#fff" fill-rule="evenodd" data-name="Rectangle 102"/><path d="M31.66 36.387h2.85v6.145h-2.85v-6.145z" fill="#fff" fill-rule="evenodd" data-name="Rectangle 103"/><path d="M31.66 23.491h2.85v6.146h-2.85v-6.146z" fill="#fff" fill-rule="evenodd" data-name="Rectangle 104"/><path d="M31.66 10.596h2.85v6.146h-2.85v-6.146z" fill="#fff" fill-rule="evenodd" data-name="Rectangle 105"/><path d="M29.994-1.296v4.14l1.002 1.004h.476v-6.146h-.476l-1.002 1.002Z" fill="#fff" fill-rule="evenodd" data-name="Path 343"/><path d="M31.66 4.149h2.85v6.146h-2.85V4.149z" fill="#fff" fill-rule="evenodd" data-name="Rectangle 106"/><path d="M31.66-2.298h2.85v6.146h-2.85v-6.146z" fill="#fff" fill-rule="evenodd" data-name="Rectangle 107"/><path d="M41.141 23.491v6.146h.438l1.002-1.002v-4.141l-1.002-1.003h-.438Z" fill="#fff" fill-rule="evenodd" data-name="Path 344"/><path d="M41.141 29.94v6.145h.438l1.002-1.002v-4.14l-1.002-1.004h-.438Z" fill="#fff" fill-rule="evenodd" data-name="Path 345"/><path d="M41.141 17.044v6.146h.438l1.002-1.003v-4.14l-1.002-1.003h-.438Z" fill="#fff" fill-rule="evenodd" data-name="Path 346"/><path d="M38.102-2.298h2.85v6.146h-2.85v-6.146z" fill="#fff" fill-rule="evenodd" data-name="Rectangle 108"/><path d="M41.141 36.387v6.145h.438l1.002-1.002v-4.14l-1.002-1.003h-.438Z" fill="#fff" fill-rule="evenodd" data-name="Path 347"/><path d="M41.579-2.299h-.438v6.146h.438l1.002-1.002v-4.14L41.58-2.3Z" fill="#fff" fill-rule="evenodd" data-name="Path 348"/><path d="M41.141 10.596v6.146h.438l1.002-1.002V11.6l-1.002-1.004h-.438Z" fill="#fff" fill-rule="evenodd" data-name="Path 349"/><path d="M41.141 4.149v6.146h.438l1.002-1.003v-4.14L41.58 4.149h-.438Z" fill="#fff" fill-rule="evenodd" data-name="Path 350"/><path d="M38.102 29.94h2.85v6.145h-2.85V29.94z" fill="#fff" fill-rule="evenodd" data-name="Rectangle 109"/><path d="M36.436 11.6v4.14l1.002 1.002h.476v-6.145h-.476l-1.002 1.002Z" fill="#fff" fill-rule="evenodd" data-name="Path 351"/><path d="M38.102 4.149h2.85v6.146h-2.85V4.149z" fill="#fff" fill-rule="evenodd" data-name="Rectangle 110"/><path d="M36.436-1.296v4.14l1.002 1.004h.476v-6.146h-.476l-1.002 1.002Z" fill="#fff" fill-rule="evenodd" data-name="Path 352"/><path d="M36.436 5.151v4.141l1.002 1.003h.476V4.149h-.476L36.436 5.15Z" fill="#fff" fill-rule="evenodd" data-name="Path 353"/><path d="M38.102 36.387h2.85v6.145h-2.85v-6.145z" fill="#fff" fill-rule="evenodd" data-name="Rectangle 111"/><path d="M38.102 23.491h2.85v6.146h-2.85v-6.146z" fill="#fff" fill-rule="evenodd" data-name="Rectangle 112"/><path d="M38.102 10.596h2.85v6.146h-2.85v-6.146z" fill="#fff" fill-rule="evenodd" data-name="Rectangle 113"/><path d="M38.102 17.044h2.85v6.146h-2.85v-6.146z" fill="#fff" fill-rule="evenodd" data-name="Rectangle 114"/><path d="M29.994 30.942v4.14l1.002 1.003h.476V29.94h-.476l-1.002 1.003Z" fill="#fff" fill-rule="evenodd" data-name="Path 354"/><path d="M23.552 30.942v4.14l1.002 1.003h.476V29.94h-.476l-1.002 1.003Z" fill="#fff" fill-rule="evenodd" data-name="Path 355"/><path d="M23.552 18.047v4.14l1.002 1.003h.476v-6.146h-.476l-1.002 1.003Z" fill="#fff" fill-rule="evenodd" data-name="Path 356"/><path d="M25.219 29.94h2.85v6.145h-2.85V29.94z" fill="#fff" fill-rule="evenodd" data-name="Rectangle 115"/><path d="M23.552 37.39v4.14l1.002 1.002h.476v-6.145h-.476l-1.002 1.002Z" fill="#fff" fill-rule="evenodd" data-name="Path 357"/><path d="M23.552 5.151v4.141l1.002 1.003h.476V4.149h-.476L23.552 5.15Z" fill="#fff" fill-rule="evenodd" data-name="Path 358"/><path d="M23.552-1.296v4.14l1.002 1.004h.476v-6.146h-.476l-1.002 1.002Z" fill="#fff" fill-rule="evenodd" data-name="Path 359"/><path d="M25.219 36.387h2.85v6.145h-2.85v-6.145z" fill="#fff" fill-rule="evenodd" data-name="Rectangle 116"/><path d="M23.552 11.6v4.14l1.002 1.002h.476v-6.145h-.476l-1.002 1.002Z" fill="#fff" fill-rule="evenodd" data-name="Path 360"/><path d="M21.816-2.299v6.146h.437l1.003-1.002v-4.14L22.253-2.3h-.437Z" fill="#fff" fill-rule="evenodd" data-name="Path 361"/><path d="M23.552 24.494v4.14l1.002 1.004h.476v-6.146h-.476l-1.002 1.002Z" fill="#fff" fill-rule="evenodd" data-name="Path 362"/><path d="M21.816 36.387v6.145h.437l1.003-1.002v-4.14l-1.003-1.003h-.437Z" fill="#fff" fill-rule="evenodd" data-name="Path 363"/><path d="M18.777-2.298h2.85v6.146h-2.85v-6.146z" fill="#fff" fill-rule="evenodd" data-name="Rectangle 117"/><path d="M21.816 4.149v6.146h.437l1.003-1.003v-4.14l-1.003-1.003h-.437Z" fill="#fff" fill-rule="evenodd" data-name="Path 364"/><path d="M21.816 29.94v6.145h.437l1.003-1.002v-4.14l-1.003-1.004h-.437Z" fill="#fff" fill-rule="evenodd" data-name="Path 365"/><path d="M18.777 4.149h2.85v6.146h-2.85V4.149z" fill="#fff" fill-rule="evenodd" data-name="Rectangle 118"/><path d="M21.816 10.596v6.146h.437l1.003-1.002V11.6l-1.003-1.004h-.437Z" fill="#fff" fill-rule="evenodd" data-name="Path 366"/><path d="M21.816 23.491v6.146h.437l1.003-1.002v-4.141l-1.003-1.003h-.437Z" fill="#fff" fill-rule="evenodd" data-name="Path 367"/><path d="M21.816 17.044v6.146h.437l1.003-1.003v-4.14l-1.003-1.003h-.437Z" fill="#fff" fill-rule="evenodd" data-name="Path 368"/><path d="M25.219 10.596h2.85v6.146h-2.85v-6.146z" fill="#fff" fill-rule="evenodd" data-name="Rectangle 119"/><path d="M29.994 37.39v4.14l1.002 1.002h.476v-6.145h-.476l-1.002 1.002Z" fill="#fff" fill-rule="evenodd" data-name="Path 369"/><path d="M25.219 23.491h2.85v6.146h-2.85v-6.146z" fill="#fff" fill-rule="evenodd" data-name="Rectangle 120"/><path d="M28.257 4.149v6.146h.438l1.002-1.003v-4.14l-1.002-1.003h-.438Z" fill="#fff" fill-rule="evenodd" data-name="Path 370"/><path d="M18.777 10.596h2.85v6.146h-2.85v-6.146z" fill="#fff" fill-rule="evenodd" data-name="Rectangle 121"/><path d="M29.994 18.047v4.14l1.002 1.003h.476v-6.146h-.476l-1.002 1.003Z" fill="#fff" fill-rule="evenodd" data-name="Path 371"/><path d="M29.994 11.6v4.14l1.002 1.002h.476v-6.145h-.476l-1.002 1.002Z" fill="#fff" fill-rule="evenodd" data-name="Path 372"/><path d="M28.257 10.596v6.146h.438l1.002-1.002V11.6l-1.002-1.004h-.438Z" fill="#fff" fill-rule="evenodd" data-name="Path 373"/><path d="M29.994 24.494v4.14l1.002 1.004h.476v-6.146h-.476l-1.002 1.002Z" fill="#fff" fill-rule="evenodd" data-name="Path 374"/><path d="M28.257-2.299v6.146h.438l1.002-1.002v-4.14L28.695-2.3h-.438Z" fill="#fff" fill-rule="evenodd" data-name="Path 375"/><path d="M29.994 5.151v4.141l1.002 1.003h.476V4.149h-.476L29.994 5.15Z" fill="#fff" fill-rule="evenodd" data-name="Path 376"/><path d="M25.219 4.149h2.85v6.146h-2.85V4.149z" fill="#fff" fill-rule="evenodd" data-name="Rectangle 122"/><path d="M25.219-2.298h2.85v6.146h-2.85v-6.146z" fill="#fff" fill-rule="evenodd" data-name="Rectangle 123"/><path d="M25.219 17.044h2.85v6.146h-2.85v-6.146z" fill="#fff" fill-rule="evenodd" data-name="Rectangle 124"/><path d="M28.257 17.044v6.146h.438l1.002-1.003v-4.14l-1.002-1.003h-.438Z" fill="#fff" fill-rule="evenodd" data-name="Path 377"/><path d="M28.257 23.491v6.146h.438l1.002-1.002v-4.141l-1.002-1.003h-.438Z" fill="#fff" fill-rule="evenodd" data-name="Path 378"/><path d="M28.257 36.387v6.145h.438l1.002-1.002v-4.14l-1.002-1.003h-.438Z" fill="#fff" fill-rule="evenodd" data-name="Path 379"/><path d="M28.257 29.94v6.145h.438l1.002-1.002v-4.14l-1.002-1.004h-.438Z" fill="#fff" fill-rule="evenodd" data-name="Path 380"/></g></g><g data-name="Group 60"><g data-name="Group 59" transform="translate(171.413 91.32)" clip-path="url(&quot;#c&quot;)"><path d="M14.352 30.041c.14-.652 1.365-6.391 1.355-7.176-.009-.95-1.188-2.503-1.334-2.637a.281.281 0 0 0-.403.02.292.292 0 0 0 .02.407c.186.182 1.114 1.528 1.146 2.192l.001.025c.007.543-.797 4.5-1.34 7.036-.075.252-.937 3.202-1.186 5.444l.575.001c.261-2.23 1.149-5.252 1.16-5.29l.006-.022Z" fill="#fff" fill-rule="evenodd" data-name="Path 382"/><path d="M15.813 28.628c.43-1.874 1.022-4.437.954-5.503-.087-1.369-.258-2.872-1.2-3.369-.774-.41-2.418-.36-3.302-.333l-.257.008c-.688.012-2.983.903-3.799 1.642-.135.123-.317.278-.527.459-1.019.87-2.56 2.187-3.109 3.362a7.5 7.5 0 0 1-.957 1.5c-.077.38-.147.75-.214 1.115.508-.53 1.214-1.357 1.687-2.368.496-1.06 2.039-2.38 2.96-3.168.215-.183.4-.34.54-.468.736-.667 2.916-1.487 3.429-1.497.07 0 .16-.003.265-.006.711-.022 2.378-.073 3.02.266.736.39.843 2.081.894 2.894l.002.03c.049.999-.546 3.587-.942 5.305-.11.48-.206.895-.274 1.216-.246 1.156-.577 3.702-.77 5.642h.572c.192-1.91.515-4.39.755-5.52.068-.316.163-.73.273-1.207" fill="#fff" fill-rule="evenodd" data-name="Path 383"/><path d="M6.504 21.813a185.772 185.772 0 0 0 3.515-2.205.29.29 0 0 0 .088-.4.282.282 0 0 0-.394-.089c-.018.012-1.898 1.223-3.502 2.198-.603.366-1.246 1.092-1.843 1.892-.147.535-.279 1.06-.4 1.578.763-1.164 1.715-2.476 2.536-2.974" fill="#fff" fill-rule="evenodd" data-name="Path 384"/><path d="M9.594 18.95c1.564-.265 4.273-.308 4.3-.309.019.001 2.498.037 2.823 1.4.394 1.65.636 4.51.455 5.368-.197.935-1.598 5.82-1.612 5.869a.29.29 0 0 0 .194.358.284.284 0 0 0 .354-.197c.057-.202 1.42-4.954 1.622-5.909.213-1.013-.078-4.028-.459-5.625-.429-1.8-3.259-1.84-3.38-1.84-.118 0-2.784.042-4.39.315-1.237.21-3.258 1.393-4.241 2.004-.113.312-.224.625-.325.934l.096-.106c.318-.207 3.117-2.015 4.563-2.261" fill="#fff" fill-rule="evenodd" data-name="Path 385"/><path d="M18.787 24.772c-.008-.278-.013-.58-.019-.897-.032-2.047-.075-4.595-1.033-5.596-1.067-1.115-2.652-1.66-4.462-1.533-1.744.123-4.378.719-5.132.935-.38.11-1.316.57-2.236 1.064-.12.282-.234.563-.344.844 1.042-.584 2.305-1.227 2.735-1.35.738-.213 3.314-.796 5.016-.916 1.664-.116 3.052.353 4.014 1.358.801.838.843 3.361.873 5.204.004.32.01.624.017.904.045 1.495-.597 3.927-1.906 7.225a17.426 17.426 0 0 0-.96 3.343h.582c.2-1.063.499-2.099.906-3.126 1.34-3.374 1.995-5.884 1.949-7.46" fill="#fff" fill-rule="evenodd" data-name="Path 386"/><path d="M19.174 29.49c.202-1.33.411-2.703.662-3.519.542-1.755-.112-5.823-.325-7.029-.337-1.906-1.722-2.619-2.735-2.987-1.028-.376-4.231-.03-5.379.096-.922.101-3.206.688-4.83 1.22-.113.24-.224.479-.333.718 1.606-.54 4.283-1.26 5.225-1.363 1.659-.182 4.345-.412 5.124-.127.954.347 2.085.951 2.367 2.545.427 2.417.741 5.46.343 6.755-.265.857-.477 2.253-.682 3.603-.17 1.114-.33 2.168-.497 2.752-.176.617-.515 1.917-.852 3.205l.59.002c.323-1.238.643-2.46.81-3.045.177-.621.34-1.692.512-2.826" fill="#fff" fill-rule="evenodd" data-name="Path 387"/><path d="M17.936 31.48a.291.291 0 0 0-.197-.356.285.285 0 0 0-.351.2c-.003.008-.21.757-.455 1.384-.13.333-.448 1.604-.688 2.65l.585.001c.222-.966.501-2.101.633-2.437.256-.656.465-1.41.473-1.442" fill="#fff" fill-rule="evenodd" data-name="Path 388"/><path d="m20.797 27.579.006-.037c.02-.24.48-5.875.161-7.222-.314-1.328-.932-3.936-1.999-4.672-.975-.673-3.518-1.617-4.63-1.668-.7-.032-2.255.271-3.391.444-.53.08-.987.15-1.138.158-.221.01-1.046.105-1.98.22-.113.207-.224.415-.334.623 1.086-.136 2.112-.255 2.342-.266.179-.01.605-.074 1.194-.163 1.05-.16 2.637-.467 3.282-.438.92.042 3.377.908 4.335 1.569.883.61 1.49 3.165 1.764 4.328.238 1.002-.008 5.017-.172 7.018l-1.148 5.288a63.982 63.982 0 0 1-.677 2.6l.592.001c.296-1.075.56-2.098.642-2.477.187-.858 1.15-5.306 1.15-5.306" fill="#fff" fill-rule="evenodd" data-name="Path 389"/><path d="M10.094 15.97c.636-.145 2.197-.31 3.036-.398l.325-.035c.62-.067 1.793.023 1.805.024a.289.289 0 0 0 .044-.576c-.05-.004-1.237-.096-1.91-.023l-.323.034c-.85.09-2.433.257-3.103.41-.417.097-1.634.291-2.709.464-.109.212-.215.424-.32.637l.4-.065c1.14-.182 2.318-.37 2.755-.471" fill="#fff" fill-rule="evenodd" data-name="Path 390"/><path d="M17.1 14.156a.29.29 0 0 0 .12-.565c-.365-.08-3.604-.562-4.313-.466-.463.062-1.905.22-4.27.262-.116.194-.234.389-.346.584 1.892-.031 4.051-.187 4.691-.273.461-.062 2.784.17 4.118.458" fill="#fff" fill-rule="evenodd" data-name="Path 391"/><path d="M12.697 12.758c1.258-.025 3.947.34 4.787.712.832.37 1.82 1.743 2.49 2.743.708 1.055 1.322 3.295 1.398 3.751.056.33.034 2.618.006 4.074a.287.287 0 0 0 .28.295.286.286 0 0 0 .29-.283c.008-.377.07-3.692-.013-4.184-.092-.546-.735-2.854-1.489-3.979-.77-1.148-1.777-2.521-2.733-2.946-.921-.408-3.701-.787-5.028-.761-.442.009-1.274.012-2.155.016l-1.162.005c-.123.193-.245.387-.365.58l1.529-.007a188 188 0 0 0 2.165-.016" fill="#fff" fill-rule="evenodd" data-name="Path 392"/><path d="M24.025 30.214c.053-.214 1.312-5.299 1.365-7.821.049-2.378-1.39-5.575-2.81-7.292-1.414-1.71-3.358-3.826-4.594-4.192-1.134-.336-4.907-1.271-6.82-1.285-.106.14-.214.278-.318.42-.039.054-.076.107-.116.16.089 0 .174-.003.25-.004 1.772-.05 5.692.923 6.844 1.263.845.251 2.42 1.712 4.318 4.01 1.322 1.599 2.721 4.695 2.675 6.908-.051 2.457-1.294 7.48-1.347 7.693l-.016.065c-.158.633-.435 1.75-.675 2.988.363-.575.693-1.22.992-1.884.09-.383.173-.712.235-.962l.017-.067Z" fill="#fff" fill-rule="evenodd" data-name="Path 393"/><path d="M26.03 19.667c-.596-2.034-2.141-4.443-2.316-4.71-.498-.768-2.524-3.287-4.13-4.412-1.458-1.022-4.618-1.712-6.708-2.169l-.423-.092c-.066-.014-.13-.025-.194-.037-.142.17-.283.34-.422.512.165.026.329.053.494.09l.425.093c1.922.42 5.14 1.122 6.504 2.079 1.47 1.03 3.454 3.448 3.978 4.253.615.947 1.78 2.97 2.245 4.557.493 1.681.348 4.305.27 5.715a7.068 7.068 0 0 1-.027.335 18.04 18.04 0 0 1 .655-1.522c.054-1.459.045-3.34-.35-4.692" fill="#fff" fill-rule="evenodd" data-name="Path 394"/><path d="M23.115 8.363c-1.692-1.206-3.818-2.658-5.244-3.174a54.784 54.784 0 0 0-2.054-.676c-.167.149-.33.3-.491.451.892.278 1.794.568 2.353.77 1.362.493 3.445 1.917 5.108 3.102 1.459 1.04 3.91 4.39 4.45 5.672.53 1.253 1.274 6.034 1.185 6.756-.007.057-.01.128-.012.197a7.57 7.57 0 0 1 .582-.508c-.058-1.417-.712-5.443-1.231-6.673-.577-1.368-3.09-4.808-4.646-5.917" fill="#fff" fill-rule="evenodd" data-name="Path 395"/><path d="M25.023 9.808c.11.114.29.116.403.004a.293.293 0 0 0 .004-.408c-.052-.055-1.298-1.34-2.723-2.334-1.257-.879-4.475-2.779-5.947-3.366l-.178.144c-.113.094-.219.191-.33.286 1.098.326 4.674 2.393 6.132 3.412 1.378.963 2.627 2.25 2.639 2.262" fill="#fff" fill-rule="evenodd" data-name="Path 396"/><path d="M25.893 8.586c-1.258-1.78-4.406-4.085-6.102-4.998a21.904 21.904 0 0 0-1.798-.83c-.181.13-.36.265-.54.4.786.325 1.535.653 2.07.94 1.683.907 4.745 3.18 5.907 4.824 1.156 1.637 3.014 6.405 3.382 7.766.146.542.506 2.076.8 3.83.17-.105.346-.201.528-.292-.292-1.7-.635-3.162-.778-3.69-.387-1.43-2.257-6.235-3.47-7.95" fill="#fff" fill-rule="evenodd" data-name="Path 397"/><path d="M28.88 12.886c-.374-.835-.727-1.624-.909-2.133l-.077-.218c-.46-1.304-1.232-3.486-2.925-4.605-1.69-1.116-3.92-2.642-3.942-2.657a.283.283 0 0 0-.396.078.29.29 0 0 0 .077.402c.022.015 2.256 1.542 3.95 2.661 1.532 1.014 2.263 3.08 2.7 4.316l.077.221c.19.53.548 1.328.925 2.174.503 1.124 1.073 2.398 1.296 3.162.229.782.619 2.73.89 4.163.175-.076.355-.146.542-.209-.27-1.42-.654-3.33-.886-4.119-.234-.802-.787-2.04-1.322-3.236" fill="#fff" fill-rule="evenodd" data-name="Path 398"/><path d="M29.574 9.477c-.223-.212-.584-.693-1.001-1.25-.693-.923-1.555-2.074-2.438-2.885-1.528-1.405-4.061-2.77-5.765-3.108a8.312 8.312 0 0 1-1.112-.328c-.2.127-.402.258-.602.392.588.226 1.152.413 1.604.503 1.59.315 4.054 1.647 5.493 2.97.843.775 1.687 1.901 2.367 2.807.45.6.806 1.076 1.064 1.321.592.561 2.97 4.635 3.32 6.9.128.828.178 2.104.19 3.083.184-.015.375-.025.569-.028-.011-.997-.065-2.291-.196-3.144-.373-2.42-2.851-6.624-3.493-7.233" fill="#fff" fill-rule="evenodd" data-name="Path 399"/><path d="M30.709 8.635c-.134-.24-.26-.47-.377-.684-.943-1.733-2.27-3.248-4.3-4.911-1.628-1.333-2.92-2.188-3.994-2.648-.239.111-.476.227-.712.347 1.104.355 2.492 1.23 4.346 2.75 1.971 1.615 3.255 3.077 4.16 4.741l.38.689c1.009 1.825 2.39 4.325 3.026 6.83.311 1.23.485 2.89.564 4.093.187.004.38.01.573.018-.08-1.248-.258-2.967-.585-4.255-.653-2.578-2.057-5.116-3.081-6.97" fill="#fff" fill-rule="evenodd" data-name="Path 400"/><path d="M25.356 4.075c.5.448 2.951 3.232 3.286 3.766.084.135.26.175.393.09a.291.291 0 0 0 .089-.399c-.36-.575-2.86-3.414-3.391-3.89-.558-.5-3.255-1.774-4.585-2.1a5.972 5.972 0 0 1-.803-.277c-.208.116-.416.236-.621.36.488.218.94.393 1.29.48 1.296.316 3.891 1.567 4.342 1.97" fill="#fff" fill-rule="evenodd" data-name="Path 401"/><path d="M31.123 6.69c-.15-.135-.301-.266-.45-.404-1.453-1.352-2.862-2.733-4.175-4.332A22.659 22.659 0 0 0 23.144.017l-.142-.07c-.226.1-.45.202-.671.308.195.102.388.199.573.286 3.292 1.559 5.693 3.507 7.34 5.955 2.19 3.256 3.225 5.787 3.956 9.67.245 1.299.373 2.65.449 3.64l.574.03c-.077-1.029-.206-2.42-.462-3.779-.693-3.671-1.698-6.355-3.638-9.368" fill="#fff" fill-rule="evenodd" data-name="Path 402"/><path d="M25.805 1.088a41.19 41.19 0 0 1-.863-1.153l-.802-.46a26.76 26.76 0 0 0-.679.271c.636.373 1.367.788 2.16 1.238l.184.104" fill="#fff" fill-rule="evenodd" data-name="Path 403"/><path d="M33.058 8.241c-.37-.281-.74-.576-1.107-.882.055.101.174.403.23.504 1.415 2.553 2.267 5.677 2.569 6.9.26 1.059.673 3.356 1.005 5.089l.587.036c-.337-1.77-.769-4.164-1.039-5.264-.274-1.112-1.064-3.967-2.245-6.383" fill="#fff" fill-rule="evenodd" data-name="Path 404"/><path d="M35.026 9.629c-.271-.18-.543-.367-.815-.559.399 1.006.729 2.233.914 3.301.433 2.491.967 5.499 1.397 7.526l.591.036c-.435-2.03-.983-5.11-1.426-7.662-.138-.794-.36-1.784-.66-2.642" fill="#fff" fill-rule="evenodd" data-name="Path 405"/><path d="M36.337 10.493c-.234-.144-.47-.29-.706-.443.452 1.494 1.345 6.733 1.653 8.788.036.245.107.788.157 1.103l.582.03c-.055-.343-.13-.923-.175-1.22-.242-1.612-1.007-6.18-1.511-8.258" fill="#fff" fill-rule="evenodd" data-name="Path 406"/><path d="M39.328 13.933c-.02-.26-.1-.94-.2-1.69-.204-.11-.41-.224-.62-.34.117.846.224 1.7.251 2.072.027.377.281 2.185.576 4.279l.263 1.892c.194.001.386 0 .576-.003-.074-.53-.2-1.448-.274-1.97-.281-1.997-.546-3.883-.572-4.24" fill="#fff" fill-rule="evenodd" data-name="Path 407"/><path d="M40.763 16.927c.136-1.13.076-2.538-.139-3.882l-.64-.341c.267 1.415.358 2.948.213 4.153-.096.802-.018 2.247.089 3.246.194-.004.385-.012.573-.022-.107-.978-.187-2.396-.096-3.154" fill="#fff" fill-rule="evenodd" data-name="Path 408"/><path d="m41.995 13.777-.557-.3c-.002.065-.002.131-.007.195-.11 1.37-.216 4.363-.114 6.39.193-.017.383-.037.566-.063-.084-1.738-.03-4.412.112-6.222" fill="#fff" fill-rule="evenodd" data-name="Path 409"/><path d="m43.51 14.666-.04-.027a6.537 6.537 0 0 0-.287-.186c-.073-.045-.154-.09-.232-.136.221 1.395.38 3.404.465 5.187.203-.085.389-.183.557-.296-.076-1.503-.213-3.232-.385-4.485-.027-.018-.052-.038-.079-.057" fill="#fff" fill-rule="evenodd" data-name="Path 410"/><path d="M44.718 17.247c-.04-.51-.082-1.021-.13-1.523a2.692 2.692 0 0 0-.41-.518 4.841 4.841 0 0 0-.207-.187l-.002-.002-.032-.025c.087.73.15 1.521.213 2.301.037.47.076.948.119 1.411.218-.205.39-.449.508-.733l-.059-.724" fill="#fff" fill-rule="evenodd" data-name="Path 411"/><path d="M13.088 22.341c-.746-.855-1.445-.48-2.062-.148l-.148.08c-.587.31-2.331 2.071-3.96 3.753l-.222.23c-.662.68-1.184 1.703-1.396 2.737-.098.469-.344 1.23-.562 1.902-.222.686-.36 1.117-.39 1.328-.05.35-.993 2.47-1.382 3.114l.654.002c.468-.886 1.234-2.63 1.292-3.033.025-.17.199-.71.368-1.23.222-.686.474-1.464.578-1.965.188-.916.665-1.854 1.244-2.45l.223-.23c.8-.825 3.23-3.336 3.816-3.645l.152-.081c.654-.352.936-.475 1.368.02.392.45-.009 1.895-.547 3.047-.21.45-1.027 2-1.994 3.208-1 1.246-1.979 3.19-2.273 4.058-.236.695-.144 1.584-.017 2.307l.581.001c-.126-.677-.23-1.517-.025-2.12.287-.846 1.254-2.732 2.176-3.881 1.008-1.257 1.833-2.826 2.067-3.324.385-.824 1.2-2.83.46-3.68" fill="#fff" fill-rule="evenodd" data-name="Path 412"/><path d="M14.583 22.834c-.033-.672-.113-1.372-.692-1.89-.562-.503-1.195-.942-2.214-.324-.486.294-1.48 1.088-2.441 1.856-.699.559-1.359 1.086-1.661 1.288-.118.078-2.9 1.95-3.235 3.48-.26 1.183-.747 3.528-.769 3.732-.272 1.646-1.809 4.113-2.04 4.36h.726c.616-.86 1.612-2.841 1.877-4.267l.003-.02c.003-.026.502-2.501.76-3.68.21-.961 1.946-2.425 2.992-3.122.322-.216.961-.726 1.7-1.316.902-.722 1.926-1.539 2.38-1.815.643-.39.983-.242 1.545.261.375.336.465.782.499 1.485.026.526-.324 3.003-.465 3.94-.103.35-1.557 5.294-2.207 7.281-.131.402-.22.831-.277 1.267l.577.001c.053-.378.13-.746.242-1.085.672-2.06 2.201-7.265 2.217-7.317l.009-.04c.02-.137.507-3.38.474-4.075" fill="#fff" fill-rule="evenodd" data-name="Path 413"/><path d="M7.165 33.853c.043-.176.086-.375.132-.587.153-.71.343-1.592.669-2.193 1.116-2.06 1.26-2.244 1.736-2.85.156-.2.347-.442.616-.806l.158-.214c.385-.513.689-.918 1.345-2.289.257-.537.474-1.125.13-1.41-.106-.085-.428-.35-1.473.472-.327.256-1.366 1.297-1.823 1.825-.438.505-.47.576-1.028 1.747l-.16.337c-.07.146-.01.32.133.39.143.071.316.01.386-.135l.16-.338c.547-1.148.557-1.17.942-1.616.433-.497 1.442-1.512 1.743-1.748.354-.278.59-.394.713-.435-.018.103-.073.301-.242.655-.631 1.32-.905 1.686-1.285 2.191l-.161.217c-.265.358-.452.597-.606.793-.486.62-.65.828-1.79 2.933-.366.676-.566 1.603-.727 2.349-.044.206-.086.4-.127.573-.116.47-.142 1.102-.13 1.629h.58c-.012-.482.008-1.074.11-1.49" fill="#fff" fill-rule="evenodd" data-name="Path 414"/><path d="m5.616 34.815.09-.234c.31-.81.697-1.817.814-2.65l.05-.356c.103-.732.192-1.365.284-2.213a.292.292 0 0 0-.255-.323.29.29 0 0 0-.318.26c-.092.838-.18 1.466-.283 2.193l-.05.357c-.107.766-.48 1.738-.78 2.52l-.09.234c-.093.245-.178.499-.252.738l.606.001c.056-.175.119-.355.184-.527" fill="#fff" fill-rule="evenodd" data-name="Path 415"/><path d="M23.87 20.032c-.044-.174-.082-.323-.107-.513-.096-.737-.471-1.64-.8-2.206-.354-.608-1.874-2.023-2.046-2.182-.007-.007-.015-.009-.022-.014-.36-.615-.73-1.186-1.051-1.591-1.158-1.469-3.166-2.007-3.904-2.028-.3-.01-1.383-.099-2.53-.193a207.207 207.207 0 0 0-3.279-.255c-.127.185-.249.371-.373.557.782.041 2.32.168 3.606.274 1.205.1 2.244.185 2.56.194.73.02 2.498.573 3.474 1.811 1.074 1.361 2.5 4.26 2.556 4.759l.021.183c.46 3.966.407 5.001.334 5.266-.097.352-.472 1.935-.905 3.769-.564 2.383-1.264 5.35-1.424 5.873-.07.235-.203.837-.362 1.627h.205c.131 0 .26-.014.387-.038.14-.695.255-1.218.316-1.42.163-.54.838-3.392 1.433-5.907.414-1.752.804-3.407.9-3.748.15-.55.047-2.346-.317-5.489l-.02-.181c-.033-.285-.311-.956-.697-1.739.29.308.54.594.641.77.354.609.652 1.425.725 1.984.03.226.073.399.12.583.093.361.197.771.197 1.753 0 1.854-.25 3.66-.746 5.367-.59 2.029-.706 2.498-.711 2.517a.292.292 0 0 0 .28.363c.13 0 .247-.088.279-.22.002-.005.122-.486.705-2.494.512-1.761.77-3.623.77-5.533 0-1.056-.114-1.504-.215-1.9" fill="#fff" fill-rule="evenodd" data-name="Path 416"/><path d="M21.994 34.187a32.18 32.18 0 0 1 .268-2.751.292.292 0 0 0-.242-.333.287.287 0 0 0-.329.245c-.014.096-.267 1.804-.295 3.41.207-.164.407-.356.598-.57" fill="#fff" fill-rule="evenodd" data-name="Path 417"/><path d="M26.33 16.825c-.62-1.399-2.578-4.379-3.207-4.982l-.124-.12c-.66-.638-2.204-2.134-4.232-2.984-2.125-.892-5.005-1.32-5.126-1.339a.286.286 0 0 0-.327.248.292.292 0 0 0 .245.331c.028.005 2.93.438 4.988 1.3 1.928.809 3.418 2.252 4.054 2.868l.126.121c.52.498 2.466 3.419 3.077 4.798.515 1.161.911 4.405 1.102 5.965l.036.3c.153-.251.317-.497.492-.737-.217-1.765-.59-4.61-1.103-5.769" fill="#fff" fill-rule="evenodd" data-name="Path 418"/><path d="M32.136 20.014c-.018-1.489-.384-4.095-.78-5.202-.31-.863-1.127-2.125-1.783-3.14-.356-.55-.693-1.07-.775-1.273a.288.288 0 0 0-.377-.158.293.293 0 0 0-.156.382c.103.254.422.746.826 1.37.606.937 1.436 2.22 1.722 3.019.387 1.082.747 3.716.747 5.117l.033-.01c.176-.042.358-.075.543-.105" fill="#fff" fill-rule="evenodd" data-name="Path 419"/><path d="M38.577 16.489c-.15-1.06-.201-1.418-.401-2.326-.214-.968-.49-2.114-.664-2.828-.23-.134-.462-.271-.696-.412.115.463.512 2.076.796 3.367.196.887.246 1.239.394 2.282.093.658.28 1.934.517 3.483.197.008.393.015.587.02a346.2 346.2 0 0 1-.533-3.586" fill="#fff" fill-rule="evenodd" data-name="Path 420"/><path d="M27.663 17.9c-.397-2.294-2.176-5.985-4.095-7.614-1.816-1.54-6.151-4.313-7.862-4.692-.228-.051-.51-.124-.823-.212-.16.155-.312.313-.466.469.449.13.854.238 1.167.307.522.116 1.372.51 2.337 1.04-.301-.04-.61-.074-.895-.093-.563-.039-1.882-.583-2.86-.997-.144.15-.285.301-.425.453 1.14.484 2.547 1.08 3.246 1.128.88.06 2.056.273 2.34.326 1.448.885 2.933 1.916 3.875 2.715 1.825 1.548 3.52 5.074 3.9 7.27.272 1.575.5 3.155.471 4.404.176-.23.364-.45.562-.663-.04-1.082-.216-2.362-.472-3.84" fill="#fff" fill-rule="evenodd" data-name="Path 421"/><path d="m42.38 19.894.048-.008c.18-.039.35-.084.516-.135-.01-.153-.015-.63-.017-.74-.007-.94-.124-3.372-.13-3.475a.286.286 0 0 0-.298-.274.287.287 0 0 0-.27.303c0 .025.12 2.521.128 3.45.002.149.01.671.024.879" fill="#fff" fill-rule="evenodd" data-name="Path 422"/><path d="M9.965 35.348c.017-.896.237-2.292.462-3.002.154-.488.538-1.017.876-1.484.211-.291.412-.567.546-.818.17-.315 1.016-2.563 1.111-2.818a.292.292 0 0 0-.167-.377.286.286 0 0 0-.371.169c-.371.987-.966 2.534-1.08 2.746-.116.216-.304.476-.504.752-.364.502-.777 1.072-.96 1.652-.22.694-.47 2.173-.49 3.179l.577.001" fill="#fff" fill-rule="evenodd" data-name="Path 423"/></g></g><g data-name="Group 62"><g data-name="Group 61" transform="translate(140.717 49.042)" clip-path="url(&quot;#d&quot;)"><path d="M23.814 16.112c-.03-.048-.06-.099-.091-.147a3.482 3.482 0 0 0 4.19-4.238c.052.033.106.064.16.095a3.822 3.822 0 0 0 .222.129c.084.046.168.09.254.135.019.008.037.018.055.027.04.02.079.04.119.058a4.206 4.206 0 0 1-4.547 4.598l-.064-.125a7.315 7.315 0 0 0-.298-.532M16.98 25.32l-.047.002a5.02 5.02 0 0 1-5.042-4.986v-.047a8.04 8.04 0 0 1-.719.22 5.742 5.742 0 0 0 5.597 5.533c.06-.245.13-.485.211-.722m1.104 2.335a6.56 6.56 0 0 1 6.181-6.252 7.687 7.687 0 0 1-.054-.472c-.007-.082-.016-.164-.02-.247a7.285 7.285 0 0 0-6.828 6.905c.094.005.186.012.278.02.149.012.297.027.443.046m-.706-3.288.025-.05c.043-.087.089-.173.136-.257.027-.051.057-.101.085-.15l.044-.075.095-.157h-.002a3.483 3.483 0 0 1-4.237-4.19v-.001a7.677 7.677 0 0 1-.374.226c-.087.05-.175.098-.264.144l-.038.02-.128.065a4.207 4.207 0 0 0 4.598 4.546l.06-.121m7.192-6.768-.048-.002c.084.236.157.476.22.72a5.742 5.742 0 0 0 5.533-5.597 7.927 7.927 0 0 1-.721-.21l.001.046a5.02 5.02 0 0 1-4.985 5.043M6.517 12.686a2.67 2.67 0 0 1 2.65-2.68 2.669 2.669 0 0 1 2.681 2.65 2.67 2.67 0 0 1-2.65 2.68 2.669 2.669 0 0 1-2.681-2.65m.724-.004a1.944 1.944 0 0 0 1.953 1.931 1.944 1.944 0 0 0 1.93-1.953 1.945 1.945 0 0 0-1.952-1.931 1.945 1.945 0 0 0-1.931 1.953m17.316 2.568a2.669 2.669 0 0 1-2.68-2.65 2.67 2.67 0 0 1 2.65-2.681 2.668 2.668 0 0 1 2.68 2.65 2.67 2.67 0 0 1-2.65 2.68m1.927-2.676a1.944 1.944 0 0 0-1.953-1.93 1.945 1.945 0 0 0-1.931 1.952 1.944 1.944 0 0 0 1.953 1.931 1.945 1.945 0 0 0 1.931-1.953m-9.242.72a8.03 8.03 0 0 1-.049.471h.002a6.559 6.559 0 0 1 6.25 6.181l.002.001c.164-.025.33-.042.498-.057.074-.007.147-.014.221-.018a7.283 7.283 0 0 0-6.906-6.827 6.78 6.78 0 0 1-.018.25m-.778-1.081a8.822 8.822 0 0 1 .067-.721h-.001a6.558 6.558 0 0 1-6.251-6.182 8.285 8.285 0 0 1-.442.053c-.092.008-.185.017-.278.022a7.284 7.284 0 0 0 6.905 6.828M9.202 16.15a3.522 3.522 0 0 1-.839-.098c.031.048.061.099.091.148l.054.087c.027.047.055.093.08.14a9.997 9.997 0 0 1 .165.304l.063.125a4.206 4.206 0 0 0 4.546-4.598c-.039-.018-.078-.039-.118-.059l-.054-.027a8.295 8.295 0 0 1-.255-.134l-.152-.088-.07-.04-.16-.095a3.483 3.483 0 0 1-3.351 4.335m5.038 4.173a2.669 2.669 0 0 1 2.65-2.68 2.668 2.668 0 0 1 2.681 2.65 2.67 2.67 0 0 1-2.65 2.68 2.67 2.67 0 0 1-2.681-2.65m.723-.004a1.945 1.945 0 0 0 1.953 1.931 1.945 1.945 0 0 0 1.932-1.953 1.944 1.944 0 0 0-1.953-1.931 1.945 1.945 0 0 0-1.932 1.953m-5.752-2.634h-.048c.084.235.158.474.22.718a5.743 5.743 0 0 0 5.534-5.596 7.934 7.934 0 0 1-.722-.21l.002.046a5.02 5.02 0 0 1-4.986 5.042m7.619-2.39.048-.002a5.02 5.02 0 0 1 5.042 4.986l-.001.047a8.27 8.27 0 0 1 .72-.219 5.744 5.744 0 0 0-5.598-5.534c-.06.246-.13.486-.211.722m-.399.956-.023.045a7.034 7.034 0 0 1-.272.493l-.089.148h.002a3.483 3.483 0 0 1 4.236 4.189v.002c.053-.034.106-.066.159-.098l.069-.042.153-.09.253-.137c.017-.009.036-.017.053-.028l.119-.059a4.206 4.206 0 0 0-4.598-4.547l-.062.124m-.705-3.291a6.56 6.56 0 0 1-6.18 6.252c.022.154.04.31.052.468.008.084.016.166.02.252a7.285 7.285 0 0 0 6.83-6.906c-.074-.003-.148-.01-.22-.016a7.272 7.272 0 0 1-.502-.05m8.38-7.635a7.284 7.284 0 0 0-6.829 6.905 8.824 8.824 0 0 1 .72.066 6.56 6.56 0 0 1 6.182-6.251 7.66 7.66 0 0 1-.053-.473c-.008-.082-.016-.164-.02-.247m.412 3.058a4.207 4.207 0 0 0-4.157 4.615l.127.062.042.021c.088.045.176.092.265.14l.135.078.096.056c.049.029.097.057.145.087a3.481 3.481 0 0 1 4.19-4.238l-.096-.156a5.659 5.659 0 0 1-.27-.478l-.026-.05c-.02-.04-.042-.08-.061-.12a4.157 4.157 0 0 0-.39-.017m-5.71 4.066c.244.06.485.13.721.21l-.001-.046a5.02 5.02 0 0 1 4.986-5.043l.046.001a7.994 7.994 0 0 1-.218-.719 5.742 5.742 0 0 0-5.534 5.597m6.01-8.684c.022.154.04.311.053.47.008.082.016.166.021.25a7.283 7.283 0 0 0 6.827-6.906c-.073-.003-.146-.01-.22-.015a7.712 7.712 0 0 1-.5-.05 6.559 6.559 0 0 1-6.181 6.25m-1.46.822h.002c.164-.024.33-.042.498-.057.074-.006.147-.013.221-.017a7.286 7.286 0 0 0-6.905-6.828 9.3 9.3 0 0 1-.067.72 6.557 6.557 0 0 1 6.251 6.182m-1.395 23.373a2.668 2.668 0 0 1 2.651-2.68 2.667 2.667 0 0 1 2.68 2.65 2.668 2.668 0 0 1-2.65 2.68 2.669 2.669 0 0 1-2.68-2.65m.723-.004a1.944 1.944 0 0 0 1.953 1.931 1.945 1.945 0 0 0 1.931-1.953A1.946 1.946 0 0 0 24.617 26a1.945 1.945 0 0 0-1.93 1.954m-12.044-5.727c-.153-.497-.49-1.019-.52-1.558-.146.021-.051.038-.2.051a6.965 6.965 0 0 1-.277.023 7.283 7.283 0 0 0 6.905 6.829c.004-.084.011-.166.017-.247.013-.159.03-.318.05-.474h-.001a6.565 6.565 0 0 1-5.974-4.624m-1.388 3.137a2.669 2.669 0 0 1 2.68 2.65 2.67 2.67 0 0 1-2.65 2.681 2.67 2.67 0 0 1-2.681-2.65 2.67 2.67 0 0 1 2.65-2.68m-1.926 2.676a1.943 1.943 0 0 0 3.884-.022 1.945 1.945 0 0 0-1.953-1.932 1.944 1.944 0 0 0-1.931 1.954m16.704 7.206c.073-.006.147-.013.22-.017a7.284 7.284 0 0 0-6.905-6.828 8.707 8.707 0 0 1-.067.72 6.558 6.558 0 0 1 6.252 6.182c.166-.024.333-.042.5-.057m8.218-17.693a2.668 2.668 0 0 1 2.68 2.65 2.67 2.67 0 0 1-2.65 2.682 2.67 2.67 0 0 1-2.68-2.65 2.669 2.669 0 0 1 2.65-2.682m.004.724a1.944 1.944 0 0 0-1.931 1.953 1.945 1.945 0 0 0 1.953 1.931 1.945 1.945 0 0 0 1.932-1.953 1.945 1.945 0 0 0-1.954-1.931M28.885 19.4a7.61 7.61 0 0 1-.146.091l-.092.056a8.079 8.079 0 0 1-.4.223c-.013.008-.027.014-.04.02l-.127.065a4.205 4.205 0 0 0 4.598 4.546l.06-.12c.01-.018.017-.035.025-.052.045-.086.09-.172.137-.256.027-.051.056-.101.085-.15l.044-.075c.03-.052.063-.105.095-.156h-.002a3.483 3.483 0 0 1-4.236-4.19V19.4ZM25.196 5.276c-.092.008-.184.016-.278.022a7.282 7.282 0 0 0 6.906 6.828c.003-.083.011-.165.017-.247a8.38 8.38 0 0 1 .05-.474h-.002a6.559 6.559 0 0 1-6.25-6.182 8.892 8.892 0 0 1-.443.053m-7.705 34.399c.043-.086.089-.171.136-.256l.085-.15.044-.075.095-.156h-.001a3.482 3.482 0 0 1-4.237-4.19v-.002a6.688 6.688 0 0 1-.146.09c-.031.02-.062.039-.094.057-.043.027-.09.054-.135.08-.087.05-.175.098-.264.144l-.038.019-.128.065a4.207 4.207 0 0 0 4.598 4.546l.06-.12.025-.052m-.47 1.006a5.02 5.02 0 0 1-5.043-4.986l.001-.046v-.001a8.061 8.061 0 0 1-.719.22 5.741 5.741 0 0 0 5.597 5.533c.059-.245.13-.485.212-.72h-.048m3.352-4.194a9.041 9.041 0 0 1 .227-.14 6.893 6.893 0 0 1 .406-.226l.053-.028.118-.06a4.205 4.205 0 0 0-4.598-4.546l-.06.124-.024.045c-.044.089-.092.176-.138.263a5.03 5.03 0 0 1-.08.138l-.053.091-.09.149h.002a3.481 3.481 0 0 1 4.238 4.19h-.001m1.633-.801c.235-.084.474-.157.719-.22a5.743 5.743 0 0 0-5.597-5.533c-.059.245-.13.486-.212.721h.048a5.02 5.02 0 0 1 5.043 4.985l-.001.046v.001ZM1.605 30.74a5.02 5.02 0 0 1 5.042 4.986v.046c.235-.083.473-.156.718-.219A5.742 5.742 0 0 0 1.77 30.02c-.06.245-.131.486-.212.72h.048m12.723 4.942a2.668 2.668 0 0 1 2.65-2.68 2.669 2.669 0 0 1 2.68 2.65 2.669 2.669 0 0 1-2.65 2.68 2.667 2.667 0 0 1-2.68-2.65m.722-.004a1.944 1.944 0 0 0 1.953 1.931 1.945 1.945 0 0 0 1.932-1.953 1.945 1.945 0 0 0-1.954-1.93 1.944 1.944 0 0 0-1.93 1.952m14.635-.083a2.67 2.67 0 0 1 2.651-2.68 2.668 2.668 0 0 1 2.68 2.65 2.669 2.669 0 0 1-2.65 2.68 2.669 2.669 0 0 1-2.68-2.65m.723-.004a1.944 1.944 0 0 0 1.953 1.931 1.945 1.945 0 0 0 1.931-1.953 1.945 1.945 0 0 0-1.953-1.93 1.945 1.945 0 0 0-1.931 1.952M1.613 32.276a3.482 3.482 0 0 1 3.4 4.297v.001a8.012 8.012 0 0 1 .228-.14l.152-.089a7.967 7.967 0 0 1 .306-.165l.12-.06a4.206 4.206 0 0 0-4.599-4.546l-.062.124-.022.045c-.045.089-.09.176-.139.263l-.079.138-.053.091-.09.149.001-.001c.268-.068.548-.106.837-.107m6.56 3.115v.001c.165-.024.332-.042.5-.057.074-.006.146-.014.22-.018a7.283 7.283 0 0 0-6.905-6.827 9.136 9.136 0 0 1-.067.72 6.56 6.56 0 0 1 6.252 6.181M32.85 39.59l.136-.257.085-.15.045-.074c.03-.053.062-.105.095-.157h-.002a3.484 3.484 0 0 1-4.335-3.351c-.002-.29.033-.57.098-.838v-.002l-.146.09-.092.056a5.7 5.7 0 0 1-.4.224c-.013.006-.027.012-.04.02-.042.02-.084.043-.127.064a4.206 4.206 0 0 0 4.598 4.546l.06-.12.025-.051m-31.189 1.18a5.02 5.02 0 0 1-5.042-4.987v-.047a8.111 8.111 0 0 1-.718.22 5.742 5.742 0 0 0 5.596 5.533 8.22 8.22 0 0 1 .212-.721h-.001l-.047.001m30.719-.174a5.02 5.02 0 0 1-5.043-4.986l.001-.046v-.001a8.02 8.02 0 0 1-.719.22 5.743 5.743 0 0 0 5.597 5.533c.06-.245.13-.485.212-.72h-.048M16.798 1.47a3.483 3.483 0 0 1 3.4 4.297v.001l.16-.098a9.81 9.81 0 0 1 .474-.268l.053-.028.119-.06A4.207 4.207 0 0 0 16.405.769l-.06.124-.024.045a7.195 7.195 0 0 1-.36.64h.001a3.43 3.43 0 0 1 .836-.107m-2.645 3.493a2.67 2.67 0 0 1 2.65-2.68 2.67 2.67 0 0 1 2.681 2.65 2.669 2.669 0 0 1-2.65 2.68 2.67 2.67 0 0 1-2.68-2.65m.722-.004A1.944 1.944 0 0 0 16.83 6.89a1.945 1.945 0 0 0 1.931-1.953 1.944 1.944 0 0 0-1.953-1.93 1.945 1.945 0 0 0-1.932 1.952M2.131 39.763a7.965 7.965 0 0 1 .222-.407c.014-.026.03-.05.044-.075.03-.052.062-.105.095-.157H2.49a3.482 3.482 0 0 1-4.237-4.189v-.002a4.368 4.368 0 0 1-.146.09c-.03.02-.061.039-.092.057l-.137.08a8.62 8.62 0 0 1-.264.144l-.038.019-.128.065a4.207 4.207 0 0 0 4.598 4.546l.06-.121c.01-.017.017-.034.025-.05m29.675-26.824c-.074-.003-.145-.01-.22-.016a7.318 7.318 0 0 1-.5-.05 6.56 6.56 0 0 1-6.182 6.252c.023.154.04.31.054.469.008.082.016.166.02.25a7.284 7.284 0 0 0 6.828-6.905M24.61 24.466c.289-.002.57.032.839.097-.033-.05-.064-.104-.096-.156a1.962 1.962 0 0 1-.044-.073c-.03-.05-.06-.099-.088-.149a6.18 6.18 0 0 1-.138-.255c-.01-.017-.017-.033-.026-.05l-.06-.12a4.206 4.206 0 0 0-4.547 4.598c.042.019.084.041.126.062l.042.02a9.158 9.158 0 0 1 .4.218l.096.057c.048.028.097.056.145.086a3.482 3.482 0 0 1 3.351-4.335M16.842 9.15c.132-.001.262-.009.39-.02.019-.042.04-.082.06-.122l.025-.051c.044-.086.089-.172.136-.257l.086-.15.043-.074.095-.158h-.001a3.481 3.481 0 0 1-4.238-4.19c-.048.03-.096.061-.145.09l-.092.056a6.15 6.15 0 0 1-.4.223l-.039.02c-.042.022-.085.045-.128.066a4.206 4.206 0 0 0 4.208 4.567m15.499 16.084h-.048a5.02 5.02 0 0 1-5.042-4.984v-.048a8.055 8.055 0 0 1-.718.22 5.744 5.744 0 0 0 5.596 5.534c.06-.247.13-.487.212-.722M27.164 4.889l.001-.046a8.31 8.31 0 0 1-.719.22 5.742 5.742 0 0 0 5.596 5.532c.06-.245.131-.485.212-.72h-.048a5.02 5.02 0 0 1-5.042-4.986M16.79-.065a5.02 5.02 0 0 1 5.042 4.985l-.001.047a8.07 8.07 0 0 1 .72-.22 5.741 5.741 0 0 0-5.598-5.532c-.058.244-.13.485-.211.72h.048m-.108 10.747a7.68 7.68 0 0 1 .212-.72h-.048a5.02 5.02 0 0 1-5.043-4.986l.002-.046a8.294 8.294 0 0 1-.72.22 5.74 5.74 0 0 0 5.597 5.532M-1.033 35.769a2.67 2.67 0 0 1 2.651-2.68 2.67 2.67 0 0 1 2.68 2.65 2.669 2.669 0 0 1-2.65 2.68 2.669 2.669 0 0 1-2.68-2.65m.723-.004a1.944 1.944 0 0 0 1.953 1.931 1.944 1.944 0 0 0 1.931-1.953 1.944 1.944 0 0 0-1.953-1.931 1.945 1.945 0 0 0-1.931 1.953M24.6 22.93l.046.001a8.15 8.15 0 0 1-.219-.72 5.742 5.742 0 0 0-5.533 5.597c.244.06.485.13.721.21A5.02 5.02 0 0 1 24.6 22.93M9.342 40.725a2.669 2.669 0 0 0-2.65 2.681l.723-.004a1.944 1.944 0 0 1 1.93-1.953A1.944 1.944 0 0 1 11.3 43.38l.722-.004a2.669 2.669 0 0 0-2.68-2.65m-.004-.813c.288-.002.569.033.837.097-.032-.05-.063-.103-.095-.155a7.674 7.674 0 0 1-.295-.528c-.02-.04-.042-.08-.061-.12a4.206 4.206 0 0 0-4.567 4.208l.723-.004a3.481 3.481 0 0 1 3.458-3.498m-.009-1.536h.047a8.122 8.122 0 0 1-.22-.718 5.742 5.742 0 0 0-5.533 5.596c.197.049.391.103.583.165h.137a5.02 5.02 0 0 1 4.986-5.043m15.36-.087.046.002a8.201 8.201 0 0 1-.219-.72 5.742 5.742 0 0 0-5.533 5.596c.196.049.39.103.582.166l.137-.001a5.02 5.02 0 0 1 4.987-5.043m.013 2.35a2.668 2.668 0 0 0-2.651 2.68l.723-.005a1.944 1.944 0 0 1 1.932-1.953 1.945 1.945 0 0 1 1.953 1.931l.723-.004a2.668 2.668 0 0 0-2.68-2.65m-.005-.813c.289-.002.57.033.838.098-.032-.05-.063-.104-.095-.156l-.044-.073c-.03-.05-.06-.1-.088-.15a8.453 8.453 0 0 1-.138-.255c-.01-.016-.017-.033-.026-.05l-.061-.12a4.206 4.206 0 0 0-4.567 4.208l.722-.003v-.002a3.483 3.483 0 0 1 3.459-3.497m15.364.726a2.668 2.668 0 0 0-2.65 2.68l.722-.003a1.945 1.945 0 0 1 1.932-1.953l-.004-.724Zm-.013-2.348-.001-.138a7.442 7.442 0 0 1-.17-.581 5.744 5.744 0 0 0-5.535 5.597c.197.047.39.103.582.165h.138v-.002a5.02 5.02 0 0 1 4.986-5.041m.009 1.535-.005-.723a4.205 4.205 0 0 0-4.177 4.225l.723-.004a3.482 3.482 0 0 1 3.459-3.498m-15.403-7.593a4.206 4.206 0 0 0 4.157-4.614 7.41 7.41 0 0 1-.174-.087 6.818 6.818 0 0 1-.254-.134c-.052-.028-.103-.058-.154-.087-.022-.014-.046-.027-.07-.04L28 27.087a3.483 3.483 0 0 1-4.19 4.237c.032.048.061.099.092.148l.053.088a7.332 7.332 0 0 1 .224.401l.02.042c.023.042.044.084.065.126.129.011.258.017.39.016m5.71-4.065a7.906 7.906 0 0 1-.722-.211l.002.046a5.02 5.02 0 0 1-4.986 5.043h-.046c.083.234.156.473.218.718a5.742 5.742 0 0 0 5.534-5.596m-19.91 7.95v-.001a8.856 8.856 0 0 1-.72.074 7.285 7.285 0 0 0 6.905 6.829 9.659 9.659 0 0 1 .067-.72l-.001-.001a6.559 6.559 0 0 1-6.252-6.182m29.26.648a8.864 8.864 0 0 1-.054-.473c-.007-.082-.015-.164-.02-.247a7.283 7.283 0 0 0-6.827 6.905 8.84 8.84 0 0 1 .72.066 6.558 6.558 0 0 1 6.182-6.251M9.706 35.29a7.285 7.285 0 0 0 6.828-6.906c-.074-.003-.147-.01-.22-.015a8.115 8.115 0 0 1-.5-.051 6.56 6.56 0 0 1-6.182 6.252c.022.154.04.31.053.468.008.084.016.167.021.252m15.36-.087a7.286 7.286 0 0 0 6.828-6.906c-.075-.003-.147-.01-.22-.015a8.513 8.513 0 0 1-.501-.05 6.56 6.56 0 0 1-6.182 6.25c.023.156.04.312.054.47.008.083.016.166.02.251m.747.739v-.001a8.096 8.096 0 0 1-.442.053c-.091.008-.185.017-.278.022a7.284 7.284 0 0 0 6.905 6.828c.004-.083.011-.164.017-.247.013-.158.029-.317.05-.474a6.558 6.558 0 0 1-6.252-6.181m-1.459.82a7.611 7.611 0 0 1-.054-.472c-.007-.083-.016-.164-.02-.247a7.283 7.283 0 0 0-6.828 6.905 9.094 9.094 0 0 1 .72.066 6.559 6.559 0 0 1 6.182-6.251m-9.35-8.597a8.312 8.312 0 0 1-.721-.211l.002.046a5.02 5.02 0 0 1-4.986 5.042c-.016.001-.031 0-.047 0 .083.235.157.474.219.719a5.742 5.742 0 0 0 5.534-5.596m-6.01 8.683a8.795 8.795 0 0 1-.055-.472c-.006-.083-.015-.165-.02-.248a7.284 7.284 0 0 0-6.828 6.906c.095.003.186.011.279.02.148.012.296.026.443.046a6.559 6.559 0 0 1 6.18-6.252m-.399-5.203c.028.047.056.093.082.14.049.086.097.173.142.261l.022.042.064.126a4.206 4.206 0 0 0 4.546-4.598l-.119-.06a6.773 6.773 0 0 1-.31-.161l-.153-.087-.068-.04c-.054-.032-.107-.063-.16-.096a3.483 3.483 0 0 1-4.19 4.237c.032.048.06.099.091.148l.053.088m-13.501 4.47v-.001a8.84 8.84 0 0 1-.442.053c-.092.008-.185.017-.278.022a7.284 7.284 0 0 0 6.906 6.828 9.661 9.661 0 0 1 .066-.72v-.001a6.559 6.559 0 0 1-6.252-6.182M24.483 2.24l-.046-.002c.083.235.157.475.218.719A5.742 5.742 0 0 0 30.19-2.64a8.643 8.643 0 0 1-.582-.165h-.138a5.02 5.02 0 0 1-4.985 5.044M23.78.84a6.903 6.903 0 0 1 .223.4l.022.044.064.125a4.206 4.206 0 0 0 4.567-4.208l-.723.003a3.48 3.48 0 0 1-4.297 3.4c.032.049.061.1.09.148l.054.088m8.269 26.652c.011-.24.021-.48.028-.72l-.1-.008a6.56 6.56 0 0 1-6.252-6.182 8.196 8.196 0 0 1-.442.052 8.669 8.669 0 0 1-.278.023 7.283 7.283 0 0 0 6.906 6.828l.138.007Z" fill="#fff" fill-rule="evenodd" data-name="Path 425"/></g></g><g data-name="Group 64"><g data-name="Group 63" transform="translate(190.282 60.818)" clip-path="url(&quot;#e&quot;)"><path d="M6.962 27.03c.024.11 2.52 10.078 3.332 13.042-2.417-3.866-3.835-8.43-3.332-13.042" fill="#fff" fill-rule="evenodd" data-name="Path 427"/><path d="M7.079 20.87c.635 3.212 5.043 15.327 6.07 16.984-2.408-2.346-6.85-9.929-6.07-16.984" fill="#fff" fill-rule="evenodd" data-name="Path 428"/><path d="M7.682 17.055c.73 4.41 2.241 7.266 5.312 13.142l1.996 3.71c.031-.016-.064.013-.033.028a3.905 3.905 0 0 0-.073-.121c.01.008.107.09.114.101.015.028-.054.041-.032.031-3.265-2.359-8.043-10.014-7.284-16.891" fill="#fff" fill-rule="evenodd" data-name="Path 429"/><path d="M8.09 14.628c.846 4.121 6.266 11.559 8.76 15.584-4.403-3.777-9.31-9.83-8.76-15.584" fill="#fff" fill-rule="evenodd" data-name="Path 430"/><path d="M8.629 12.132c.798 3.837 6.046 9.384 9.754 15.369-4.287-3.716-10.241-9.783-9.754-15.37" fill="#fff" fill-rule="evenodd" data-name="Path 431"/><path d="M9.16 10.123c.788 3.625 6.359 7.329 11.132 14.723-5.064-4.403-11.495-9.876-11.133-14.723" fill="#fff" fill-rule="evenodd" data-name="Path 432"/><path d="M9.727 8.543c.731 3.07 8.017 6.05 12.55 13.23-6.356-5.41-12.78-9.423-12.55-13.23" fill="#fff" fill-rule="evenodd" data-name="Path 433"/><path d="M10.173 6.987c.402 1.51 2.273 1.889 5.983 4.114 2.832 1.7 6.07 4.654 7.973 7.625-7.366-6.186-14.064-8.838-13.956-11.739" fill="#fff" fill-rule="evenodd" data-name="Path 434"/><path d="M10.535 5.77s.016.185.211.38c1.323 1.197 9.458.571 15.138 9.325C19.553 9.96 15.186 9.21 11.632 7.089c-1.313-.768-1.097-1.32-1.097-1.32" fill="#fff" fill-rule="evenodd" data-name="Path 435"/><path d="M11.012 4.893s-.054.25.68.263c1.278.029 10.082-1.759 16.164 7.474-3.166-2.775-5.18-4.127-9.511-5.609-4.268-1.469-7.349-1.316-7.333-2.128" fill="#fff" fill-rule="evenodd" data-name="Path 436"/><path d="M11.234 3.857s-.115.15.813-.181c7.461-2.654 13.413-.172 17.552 6.073-4.794-4.275-9.515-6.469-16.49-5.924-.926.08-1.7.184-1.848.086-.038-.029-.025-.056-.027-.054" fill="#fff" fill-rule="evenodd" data-name="Path 437"/><path d="M11.524 2.759c4.29-3.82 13.086-4.718 19.62 4.455C26.73 3.298 22.715.895 16.388 1.53c-2.162.222-3.92.755-4.863 1.229" fill="#fff" fill-rule="evenodd" data-name="Path 438"/><path d="M5.048 23.918c-1.18 2.95-2.963 6.354-7.166 9.568 3.15-5.462 4.661-7.191 7.166-9.568" fill="#fff" fill-rule="evenodd" data-name="Path 439"/><path d="M5.758 20.002C2.518 27.25-3.712 30.07-4.978 30.373c1.343-.832 1.525-1.24 10.736-10.371" fill="#fff" fill-rule="evenodd" data-name="Path 440"/><path d="M6.257 16.875c-2.264 4.832-7.184 8.774-13.256 9.81.014.05-.033-.068-.021-.057.023-.005.153-.022.176-.025-.002 0-.152.078-.153.08.01.011-.034-.108-.02-.057 9.158-5.414 11.369-7.69 13.274-9.751" fill="#fff" fill-rule="evenodd" data-name="Path 441"/><path d="M6.635 14.512c-2.49 5.116-8.926 7.098-14.567 7.865 5.079-2.548 11.552-4.771 14.567-7.865" fill="#fff" fill-rule="evenodd" data-name="Path 442"/><path d="M7.343 11.914c-2.428 4.898-9.544 6.471-15.118 7.246 3.823-1.918 12.393-4.47 15.118-7.246" fill="#fff" fill-rule="evenodd" data-name="Path 443"/><path d="M7.695 9.905c-2.042 4.032-8.6 4.964-15.75 5.942 7.402-3.535 13.069-3.256 15.75-5.942" fill="#fff" fill-rule="evenodd" data-name="Path 444"/><path d="M12.74-4.731c-3.403 8.781-5.388 17.07-6.576 25.82a62.809 62.809 0 0 1-.896 5.035c-.946 4.277-1.202 9.286-.47 14.141.819-4.597 1.178-9.418 1.265-12.91a62.174 62.174 0 0 1 1.25-10.909c1.456-7.032 3.52-13.77 6.419-20.795l-.992-.382Z" fill="#fff" fill-rule="evenodd" data-name="Path 445"/><path d="M25.952 30.708c2.875-1.208 14.79-4.177 16.646-4.249-3.135-.653-11.49-.124-16.646 4.249" fill="#fff" fill-rule="evenodd" data-name="Path 446"/><path d="M23.26 33.216c3.871-1.773 6.932-2.1 13.208-2.803l3.993-.398c.005.033-.024-.059.005-.041l-.136.007c.012.003.13.035.14.036.032-.004.006-.065.009-.042-3.602-1.324-12.192-1.02-17.219 3.24" fill="#fff" fill-rule="evenodd" data-name="Path 447"/><path d="M21.56 34.83c3.705-1.526 12.465-1.206 16.973-1.379-5.329-1.467-12.721-2.119-16.973 1.378" fill="#fff" fill-rule="evenodd" data-name="Path 448"/><path d="M19.875 36.584c3.456-1.412 10.63-.22 17.331-.478-5.217-1.408-13.178-2.88-17.331.478" fill="#fff" fill-rule="evenodd" data-name="Path 449"/><path d="M18.571 38.073c3.284-1.306 9.175 1.12 17.555.954-6.172-1.656-13.92-3.82-17.555-.954" fill="#fff" fill-rule="evenodd" data-name="Path 450"/><path d="M17.625 39.363c2.815-1.057 9.048 3.11 17.13 2.868-7.656-2.139-14.245-5.076-17.13-2.868" fill="#fff" fill-rule="evenodd" data-name="Path 451"/><path d="M16.635 40.543c1.405-.486 2.701.79 6.435 2.536 2.85 1.332 6.908 2.316 10.267 2.237-8.808-2.525-14.47-6.402-16.702-4.773" fill="#fff" fill-rule="evenodd" data-name="Path 452"/><path d="M27.277 27.482c1.702-2.503 3.442-5.724 3.742-10.755-2.637 5.396-3.198 7.51-3.742 10.755" fill="#fff" fill-rule="evenodd" data-name="Path 453"/><path d="M24.563 30.127c4-6.417 2.91-12.842 2.475-14.002.058 1.504-.168 1.865-2.475 14.002" fill="#fff" fill-rule="evenodd" data-name="Path 454"/><path d="M22.358 32.186c2.61-4.362 3.106-10.346.69-15.693.048-.016-.071.01-.056.013.008.021.064.133.074.153 0-.003-.02-.161-.018-.164.015.003-.104.03-.056.015.6 10.116-.02 13.073-.634 15.676" fill="#fff" fill-rule="evenodd" data-name="Path 455"/><path d="M20.694 33.744c2.715-4.692.853-10.83-1.544-15.694.691 5.368 2.382 11.665 1.544 15.694" fill="#fff" fill-rule="evenodd" data-name="Path 456"/><path d="M19.018 35.684c2.576-4.524.148-10.74-2.208-15.555.522 4.04 2.95 11.925 2.208 15.555" fill="#fff" fill-rule="evenodd" data-name="Path 457"/><path d="M17.62 37.033c2.096-3.76-.658-9.436-3.693-15.604 1.149 7.728 4.387 12.055 3.693 15.604" fill="#fff" fill-rule="evenodd" data-name="Path 458"/><path d="M16.329 38.545c1.627-3.02-1.683-7.848-5.359-15.158 1.151 8.179 5.918 12.028 5.359 15.158" fill="#fff" fill-rule="evenodd" data-name="Path 459"/><path d="M15.256 39.665c1.194-2.352-3.155-6.016-7.379-14.344.556 3.805 2.319 7.297 4.738 10.197 1.822 2.174 2.831 2.89 2.64 4.147" fill="#fff" fill-rule="evenodd" data-name="Path 460"/><path d="M8.746 48.81c5.124-7.363 10.614-13.344 16.892-18.942a59.995 59.995 0 0 0 3.5-3.388c2.874-3.024 6.694-5.894 10.918-7.9-3.195 3.093-6.812 5.943-9.523 7.872a59.216 59.216 0 0 0-7.95 6.797c-4.78 4.892-9.002 10.111-13.007 16.14l-.83-.579Z" fill="#fff" fill-rule="evenodd" data-name="Path 461"/></g></g><g data-name="Group 66"><g data-name="Group 65" transform="translate(140 48)" clip-path="url(&quot;#f&quot;)"><path d="M32.939 2.652a42.876 42.876 0 0 0-.697-.554h-6.066a2.701 2.701 0 0 0-.096.554h6.859Z" fill="#fff" fill-rule="evenodd" data-name="Path 463"/><path d="m32.518 8.493 2.076-2.074a.135.135 0 0 1 .1-.042h3.088a16.506 16.506 0 0 1-.473-.298h-3.01l-2.026 2.025a.135.135 0 0 1-.1.042h-4.234l.17.347h4.41Z" fill="#fff" fill-rule="evenodd" data-name="Path 464"/><path d="M30.765 1.057C29.557.321 28.456 0 27.508.531a3.227 3.227 0 0 0-.704.523l3.96.003Z" fill="#fff" fill-rule="evenodd" data-name="Path 465"/><path d="M31.1 7.025c-.2 0-.38-.134-.44-.323h-3.418c.179.38.367.769.56 1.163h4.313l2.027-2.027a.143.143 0 0 1 .1-.041h2.65c-1.236-.859-2.445-1.902-3.597-2.853h-7.223c.006.377.07.778.178 1.198h6.348a.461.461 0 0 1 .425-.283.464.464 0 0 1 0 .926.466.466 0 0 1-.448-.35H26.33c.079.26.171.527.276.8h2.205a.461.461 0 0 1 .889.18.464.464 0 0 1-.463.463.466.466 0 0 1-.449-.352h-2.066c.119.293.25.591.388.895h3.549a.464.464 0 1 1 .44.604" fill="#fff" fill-rule="evenodd" data-name="Path 466"/><path d="M72.416 12.858c.242.041.482.12.721.247l-.562-.406-.16.159Z" fill="#fff" fill-rule="evenodd" data-name="Path 467"/><path d="M45.612 8.784c.01-.433.02-1.476.025-2.334-.987.492-1.998.87-3.041 1.04l1.305 1.294h1.71Z" fill="#fff" fill-rule="evenodd" data-name="Path 468"/><path d="M31.858 1.806a16.314 16.314 0 0 0-.662-.473h-4.64c-.113.15-.203.308-.275.473h5.577Z" fill="#fff" fill-rule="evenodd" data-name="Path 469"/><path d="M68.222 14.32a.464.464 0 1 1 0-.291h1.071l-.057.053c.965-.758 1.893-1.262 2.798-1.256l.301-.301-1.038-.754-1.14 1.14a.459.459 0 0 1-.413.67.464.464 0 1 1 .207-.877l1.107-1.106-1.104-.806-.149.148v.139c.217.04.382.231.382.456a.465.465 0 0 1-.927 0c0-.18.102-.34.264-.417v-.236c0-.037.014-.073.041-.1l.16-.158c-.245-.179-.495-.36-.749-.548l-.685.685v.333c.189.061.323.24.323.44a.464.464 0 0 1-.928 0c0-.2.135-.379.324-.44v-.391a.14.14 0 0 1 .04-.1l.696-.695c-.462-.34-.94-.69-1.424-1.049v3.259l.597.598a.464.464 0 1 1-.233.402c0-.062.014-.123.04-.183l-.696-.695V8.644l-.928-.686v8.063a.138.138 0 0 1-.04.1l-2.895 2.895a.456.456 0 0 1-.038.485c.288-.221.572-.44.846-.656l.213-.185.014.004c1.694-1.365 3.259-3.115 4.737-4.343h-.717Zm-.957.788a.461.461 0 0 1-.44.318.464.464 0 0 1 0-.927c.202 0 .377.129.44.317h1.02l-.298.292h-.722Z" fill="#fff" fill-rule="evenodd" data-name="Path 470"/><path d="M53.438 25.053a.464.464 0 1 1 .206-.207l.266.266a44.895 44.895 0 0 0 2.904-1.455v-.194h-4.132l-1.311 1.312h-5.703a.46.46 0 0 1-.439.317.464.464 0 0 1 0-.927.46.46 0 0 1 .439.318h5.581l1.312-1.312h4.546v.323a45.296 45.296 0 0 0 3.033-1.85c-.019-.03-.038-.059-.048-.091h-1.823l-1.15 1.149a.139.139 0 0 1-.099.04h-7.534l-.365.366a.464.464 0 1 1-.179-.219l.386-.386a.14.14 0 0 1 .1-.041h7.534l1.15-1.149a.137.137 0 0 1 .099-.041h1.88c.061-.19.24-.323.44-.323.146 0 .274.073.358.186.244-.169.483-.337.716-.505l-.29-.29v-1.72l1.32-1.319a.464.464 0 1 1 .207.207l-1.234 1.234v1.478l.237.237c.37-.268.728-.534 1.075-.798a.464.464 0 1 1 .047-.843l2.854-2.853V7.748l-.616-.459v7.378a.464.464 0 1 1-.282 0V7.079l-.282-.212v7.096a.138.138 0 0 1-.042.1l-.411.41a.464.464 0 1 1-.162-.235l.333-.333v-7.25a73.94 73.94 0 0 1-.243-.181l-.231-.176v6.021c.189.061.323.24.323.44a.464.464 0 0 1-.928 0c0-.2.134-.379.323-.44V6.085l-.359-.274-.062.062v5.747a.14.14 0 0 1-.041.099l-1.883 1.883v.622c.19.061.323.24.323.44a.464.464 0 0 1-.927 0c0-.2.134-.379.323-.44v-.68c0-.038.015-.073.042-.1l1.882-1.882V5.815c0-.038.014-.073.041-.1l.078-.077-.13-.1-.264.264V9.64l-2.017 2.016v4.38l.672.672a.45.45 0 0 1 .251-.077.464.464 0 1 1-.436.307l-.78-.78v-4.623l2.018-2.017V5.68l.323-.322-.184-.143-2.398 2.398v4.747a.139.139 0 0 1-.042.1l-.548.547v3.906a.14.14 0 0 1-.04.1l-.423.422a.465.465 0 1 1-.903.145.464.464 0 0 1 .735-.375l.35-.35V12.95a.14.14 0 0 1 .04-.099l.55-.549V7.555c0-.038.014-.073.041-.1l2.413-2.413c-.753-.585-1.477-1.148-2.158-1.659v2.152a.462.462 0 0 1-.145.903.464.464 0 0 1-.147-.903v-2.37c-1.585-1.172-2.904-2.004-3.725-2.004-.293 0-.587.027-.88.076l3.738 3.735a.14.14 0 0 1 .04.1v4.704a.142.142 0 0 1-.04.1l-2.397 2.395a.142.142 0 0 1-.1.042h-.87l-.826.825v3.544a.14.14 0 0 1-.04.1l-.902.901a.465.465 0 1 1-.91.124.464.464 0 0 1 .75-.362l.82-.82V13.08c0-.037.016-.073.042-.1l.909-.908a.141.141 0 0 1 .1-.041h.87l2.313-2.314V5.129l-3.827-3.826a8.363 8.363 0 0 0-1.572.536l4.957 4.958a.14.14 0 0 1 .041.099v2.611a.138.138 0 0 1-.042.1l-2.013 2.013a.14.14 0 0 1-.1.042H55.09l-.909.908v3.09a.14.14 0 0 1-.041.099l-.348.348a.465.465 0 1 1-.906.138.464.464 0 0 1 .74-.37l.274-.273v-3.09a.14.14 0 0 1 .04-.1l.991-.99a.141.141 0 0 1 .1-.041h1.046l1.932-1.932V6.954l-4.991-4.991c-.23.11-.462.23-.694.356v2.657l1.126 1.125c.026.027.04.062.04.1v1.767c.19.061.324.24.324.44a.465.465 0 0 1-.928 0c0-.2.134-.379.324-.44v-1.71l-1.126-1.125a.142.142 0 0 1-.04-.099V2.475c-.216.122-.432.25-.647.381v7.787a.14.14 0 0 1-.041.1l-.115.115a.464.464 0 1 1-.166-.231l.041-.042V3.03c-.515.322-1.032.666-1.555 1.016v7.13l.536.536h1.817c.037 0 .074.015.1.04l.948.948c.025.027.04.062.04.1v.994l.136.136a.464.464 0 1 1-.199.198l-.177-.176a.14.14 0 0 1-.04-.1v-.994l-.866-.865h-1.818a.14.14 0 0 1-.099-.041l-.618-.619a.14.14 0 0 1-.041-.1V4.235l-.167.112V11.7l.783.783h1.547c.065 0 .138 0 .857.799a.14.14 0 0 1 .037.094v2.434a.141.141 0 0 1-.041.1l-.933.932a.45.45 0 0 1 .035.172.465.465 0 1 1-.465-.464c.088 0 .175.027.25.075l.873-.874V13.43a9.019 9.019 0 0 0-.647-.666h-1.572a.141.141 0 0 1-.1-.041l-.864-.866a.135.135 0 0 1-.041-.1V4.534a82.66 82.66 0 0 1-.675.444l.32.474c.017.014.031.05.031.087v6.776l.74.741h1.694c.038 0 .073.015.1.042l.691.692a.14.14 0 0 1 .042.099v1.233a.14.14 0 0 1-.042.1l-1.615 1.615v.811l.233.233h1.284c.037 0 .073.015.099.04l.865.866h1.972l.787-.785a.464.464 0 1 1 .421.27.448.448 0 0 1-.231-.064l-.82.82a.139.139 0 0 1-.099.04H52.54a.141.141 0 0 1-.1-.04l-.865-.867h-1.283a.139.139 0 0 1-.1-.04l-.315-.315a.14.14 0 0 1-.04-.1v-.928a.14.14 0 0 1 .04-.098l1.616-1.616v-1.117l-.611-.61H49.19a.142.142 0 0 1-.1-.041l-.823-.824a.14.14 0 0 1-.041-.098V5.587l-.308-.457-.3.191.225.37c.02.022.032.055.032.089v6.837l1.583 1.583h.465a.463.463 0 1 1 0 .281H49.4a.138.138 0 0 1-.099-.04l-1.666-1.667a.138.138 0 0 1-.041-.099V5.827l-.217-.356c-.152.095-.306.188-.46.279l.398.402a.138.138 0 0 1 .041.099v8.886l.489.487a.464.464 0 1 1-.199.199l-.53-.53a.14.14 0 0 1-.04-.098V6.309l-.41-.412-.227.128.295.321a.14.14 0 0 1 .04.098v6.205a.14.14 0 0 1-.046.104l-.523.472a.464.464 0 1 1-.147-.246l.435-.393V6.501l-.309-.335c-.083.045-.166.09-.25.133-.002.83-.013 1.911-.034 2.636l-.004.141H43.78L42.233 7.54a7.234 7.234 0 0 1-.824.052c-1.045 0-2.096-.368-3.137-.934h-3.52l-2.077 2.076a.14.14 0 0 1-.1.04h-4.33c.24.496.475.998.695 1.503h4.258l1.46-1.461a.14.14 0 0 1 .1-.042h3.333c.037 0 .073.015.1.042l.791.791h2.265a.14.14 0 0 1 .099.042l.672.672h.4l.47-.47a.141.141 0 0 1 .1-.041h1.493a.14.14 0 0 1 .1.041l.942.942a.464.464 0 1 1-.19.208l-.91-.91h-1.376l-.47.47a.14.14 0 0 1-.1.041h-.517a.136.136 0 0 1-.1-.042l-.672-.672h-2.264a.138.138 0 0 1-.1-.04l-.792-.793h-3.215l-1.461 1.462a.14.14 0 0 1-.1.04h-4.195l.14.34h4.29l1.403-1.402a.137.137 0 0 1 .1-.041h2.742c.037 0 .073.014.1.041l.72.72h2.39c.038 0 .073.014.1.041l.796.796h1.237a.464.464 0 1 1 .44.604c-.2 0-.38-.133-.44-.323h-1.295a.14.14 0 0 1-.1-.04l-.796-.797h-2.391a.14.14 0 0 1-.1-.041l-.72-.72h-2.625l-1.403 1.402a.14.14 0 0 1-.1.041h-4.238a17.858 17.858 0 0 1 .121.32h4.854l1.327-1.326a.139.139 0 0 1 .1-.041h1.8a.14.14 0 0 1 .099.04l.668.669h2.462a.14.14 0 0 1 .1.041l.925.925h1.22c.039 0 .074.015.1.041l.542.542a.464.464 0 1 1-.199.198l-.5-.5h-1.222a.14.14 0 0 1-.099-.041l-.925-.925H38.22a.14.14 0 0 1-.1-.042l-.668-.667h-1.682l-1.327 1.327a.141.141 0 0 1-.1.04h-4.81l.147.404h4.844l1.213-1.214a.137.137 0 0 1 .1-.041h.434c.06-.19.239-.323.44-.323a.464.464 0 0 1 0 .927c-.201 0-.38-.134-.44-.323h-.376l-1.214 1.213a.141.141 0 0 1-.1.041H29.78c.047.133.094.265.14.4h4.652l.915-.915a.138.138 0 0 1 .1-.042h1.496l.536-.536a.14.14 0 0 1 .1-.041h2.86a.14.14 0 0 1 .099.04l1.02 1.02a.464.464 0 1 1-.198.198l-.98-.977h-2.743l-.537.536a.138.138 0 0 1-.1.04h-1.495l-.915.917a.14.14 0 0 1-.1.04h-4.613l.09.268h4.828l.807-.808a.142.142 0 0 1 .1-.04h1.543l.613-.614a.143.143 0 0 1 .1-.041h1.578a.14.14 0 0 1 .1.04l.404.405a.464.464 0 1 1-.238.16l-.324-.324h-1.462l-.613.613a.143.143 0 0 1-.1.042H35.9l-.808.807a.14.14 0 0 1-.099.041h-4.79c.03.094.06.19.092.286h5.244l.211-.212a.464.464 0 1 1 .2.198l-.253.253a.137.137 0 0 1-.1.042h-5.212l.06.183h6.666l.676-.676a.139.139 0 0 1 .1-.041h1.902a.14.14 0 0 1 .1.04l.314.315a.464.464 0 1 1-.363.451c0-.112.04-.218.114-.302l-.223-.223h-1.786l-.677.676a.139.139 0 0 1-.1.041h-6.636l.079.258h7.238l.237-.238a.46.46 0 0 1 .41-.675.464.464 0 1 1-.211.874l-.278.279a.14.14 0 0 1-.1.04h-7.21l.06.206h6.888c.037 0 .072.015.1.041l.364.366a.464.464 0 1 1-.198.198l-.325-.324h-6.749l.071.247h6.134a.14.14 0 0 1 .099.042l.838.836h5.628l1.719-1.718a.464.464 0 1 1 .182.216l-1.743 1.742a.14.14 0 0 1-.1.041H37.92a.14.14 0 0 1-.1-.04l-.836-.838h-5.997l.07.262h2.231c.037 0 .073.015.1.042l1.297 1.297h2.945l.366-.366a.143.143 0 0 1 .1-.04h3.432c.037 0 .072.014.098.04l.441.44a.464.464 0 1 1-.274.422c0-.082.023-.163.065-.233l-.389-.39h-3.315l-.366.367a.138.138 0 0 1-.099.04h-3.062a.137.137 0 0 1-.1-.04l-1.297-1.298h-2.1l.06.225h1.858c.037 0 .072.015.1.041l1.317 1.319h4.285c.06-.19.24-.323.44-.323a.464.464 0 0 1 0 .927c-.2 0-.38-.134-.44-.323h-4.343a.143.143 0 0 1-.1-.041l-1.317-1.319h-1.73c.02.082.041.166.06.25h1.294c.038 0 .073.014.1.04l1.326 1.318h4.24c.036 0 .071.015.098.042l.378.377h1.017l.626-.626a.464.464 0 1 1 .425.281.463.463 0 0 1-.24-.068l-.653.653a.139.139 0 0 1-.1.041h-1.133a.139.139 0 0 1-.1-.041l-.377-.378h-4.248a.135.135 0 0 1-.04-.006h-.02l.001-.006a.15.15 0 0 1-.04-.028l-1.318-1.318h-1.167c.036.148.07.299.104.45H32.5l1.287 1.287h4.196c.038 0 .074.014.1.041l1.077 1.077h.226c.06-.19.24-.323.44-.323a.464.464 0 0 1 0 .927c-.2 0-.38-.133-.44-.323h-.284a.138.138 0 0 1-.1-.041l-1.076-1.078H33.73a.14.14 0 0 1-.1-.04l-1.255-1.273h-.826c.136.62.262 1.261.378 1.926h3.615a.464.464 0 1 1 .44.605.466.466 0 0 1-.441-.323h-3.566l.018.103 2.06 2.087h4.512l6.32-6.32a.464.464 0 1 1 .42.27.446.446 0 0 1-.229-.064l-6.354 6.354a.138.138 0 0 1-.1.041h-4.628a.138.138 0 0 1-.1-.041l-1.826-1.853c.043.282.085.565.125.855l1.533 1.56h4.964l5.07-5.071a.146.146 0 0 1 .1-.042h2.583l.94-.94a.14.14 0 0 1 .1-.04h.134c.06-.19.24-.323.44-.323a.464.464 0 0 1 0 .927c-.2 0-.38-.134-.44-.323h-.077l-.94.939a.138.138 0 0 1-.099.042H43.92l-5.07 5.07a.14.14 0 0 1-.1.041h-5.081a.141.141 0 0 1-.1-.04l-1.32-1.345c.074.599.14 1.21.194 1.846h3.83c.06-.19.239-.323.44-.323a.464.464 0 0 1 0 .926c-.201 0-.38-.134-.44-.322h-3.81c.018.238.036.478.052.722h3.575a.14.14 0 0 1 .1.04l.397.4h2.129l.526-.527v-1.278a.14.14 0 0 1 .042-.1l4.713-4.713a.14.14 0 0 1 .1-.041h2.849l.6-.6a.139.139 0 0 1 .1-.041h4.05a.14.14 0 0 1 .099.04l.692.693h3.666l.981-.981v-1.307c0-.037.015-.073.042-.099l.99-.991a.465.465 0 1 1 .88-.2.465.465 0 0 1-.686.404l-.944.944v1.307a.14.14 0 0 1-.041.099l-1.064 1.064a.14.14 0 0 1-.1.04h-3.782a.14.14 0 0 1-.1-.04l-.691-.692h-3.934l-.6.6a.14.14 0 0 1-.1.041h-2.85l-4.63 4.631v1.278a.139.139 0 0 1-.042.1l-.608.608a.138.138 0 0 1-.1.04h-2.245a.14.14 0 0 1-.1-.04l-.397-.398h-3.5c.007.113.01.231.016.346h2.563c.037 0 .073.015.098.042l.712.711h3.22l.91-.908V24.74a.14.14 0 0 1 .041-.099l4.096-4.095a.14.14 0 0 1 .1-.042h5.576a.14.14 0 0 1 .1.04l1.103 1.105h5.613l3.465-3.465a.464.464 0 1 1 .165.233l-3.472 3.471a.138.138 0 0 1-.1.041h-5.73a.14.14 0 0 1-.1-.04l-1.102-1.104h-5.46L40.33 24.8v1.235a.138.138 0 0 1-.042.1l-.99.99a.143.143 0 0 1-.1.041h-3.337a.14.14 0 0 1-.1-.041l-.71-.712H32.56c.008.179.018.353.024.535 1.824.57 4.246 1.077 7.281 1.226l1.164-1.165h.805v-1.89a.464.464 0 1 1 .293 0V27.3h-.976l-.891.891c.456.017.926.027 1.41.027.48 0 .963-.025 1.447-.06l-.096-.096a.142.142 0 0 1-.04-.1v-1.578a.466.466 0 0 1-.324-.44.465.465 0 0 1 .928 0c0 .2-.134.38-.323.44v1.52l.224.225c2.295-.204 4.608-.767 6.825-1.543 1.181-.43 2.282-.88 3.315-1.343l-.189-.19Zm.375-13.374a.464.464 0 1 1-.464-.464.45.45 0 0 1 .199.047l1.498-1.499V6.492l-1.49-1.49a.464.464 0 1 1 .207-.207l1.575 1.576v3.513l-1.58 1.58c.036.066.055.14.055.215M42.228 9.783a.464.464 0 0 1-.413-.67l-.876-.876h-5.606a.464.464 0 1 1-.439-.609.46.46 0 0 1 .44.318h5.726l.961.96a.463.463 0 1 1 .207.877m-6.246 7.866a.464.464 0 1 1 0-.929.464.464 0 0 1 0 .929m9.772.622a.464.464 0 1 1 .002-.928.464.464 0 0 1-.002.928m-7.132 6.833a.464.464 0 1 1 .002-.928.464.464 0 0 1-.002.928m17.156-8.567a.464.464 0 0 1-.147-.902V14.13l.044-.042 2.427-2.428a.46.46 0 0 1 .415-.665.464.464 0 1 1-.212.875l-2.382 2.381v1.384a.464.464 0 0 1-.146.902m2.75-2.527a.452.452 0 0 1-.204-.05l-.735.735c.033.065.05.135.05.205a.465.465 0 0 1-.928 0 .464.464 0 0 1 .673-.412l.732-.732a.462.462 0 0 1 .412-.673.465.465 0 0 1 0 .927m-8.363 12.435c-.2 0-.38-.133-.44-.323h-4.942a.14.14 0 0 1-.1-.04l-1.04-1.042a.14.14 0 0 1-.042-.1v-1.578a.467.467 0 0 1-.322-.44.464.464 0 0 1 .927 0c0 .2-.134.38-.323.44v1.52l.958.96h4.884c.06-.19.24-.324.44-.324a.464.464 0 0 1 0 .927" fill="#fff" fill-rule="evenodd" data-name="Path 471"/></g></g></g><defs><clipPath id="a"><path d="M0 0h82.526v104.835H0V0z" data-name="Rectangle 75"/></clipPath><clipPath id="b"><path d="M596.457 504.955c1.252 4.076 2.176 8.147 3.386 9.027 3.727 2.707 11.215.2 15.642 3.416 4.193 3.048 3.244 13.428 7.096 13.883 3.979.472 3.578-5.38 4.879-9.967 1.11-3.918 2.705-8.71 6.54-14.388-1.358-1.825-3.45-4.078-6.603-6.368-2.33-1.693-5.105-2.905-7.95-3.76-6.531-1.873-11.55-1.918-15.603-1.768a15.16 15.16 0 0 0-.28.025l-.01-.011c-4.333.216-9.152 1.977-10.496-.755.607 1.852 2.124 6.51 3.4 10.666" data-name="Path 381" transform="translate(-593.058 -494.289)"/></clipPath><clipPath id="c"><path d="M660.33 501.859c-2.33 1.693-4.341 3.958-6.033 6.4-3.8 5.632-5.394 10.391-6.503 14.293l-.063.274-.014.006c-1.133 4.187-.948 9.314-3.961 9.748 1.949-.004 6.849-.008 11.195.063 4.262.07 8.42.449 9.63-.43 3.727-2.708 3.657-10.605 8.083-13.821 2.03-1.474 5.32-1.272 8.36-1.07 3.242.215 6.2.43 7.038-1.389 1.677-3.637-4.012-5.065-7.972-7.719-3.384-2.269-7.45-5.265-11.663-10.667-2.156.727-4.946 2.022-8.097 4.312" data-name="Path 424" transform="translate(-643.756 -497.547)"/></clipPath><clipPath id="d"><path d="M609.542 433.531c-3.49 2.449-7.076 4.586-7.539 6.008-1.424 4.381 3.275 10.73 1.585 15.932-1.602 4.93-11.769 7.235-11.012 11.04.782 3.93 6.223 1.74 10.986 1.56 4.072-.154 9.12-.12 15.707 1.774 1.317-1.856 2.811-4.543 4.016-8.249.89-2.738 1.185-5.752 1.118-8.722-.236-6.79-1.744-11.578-3.14-15.386-.037-.088-.074-.178-.11-.259l.008-.012c-1.545-4.055-4.709-8.094-2.525-10.216a651.516 651.516 0 0 1-9.094 6.53" data-name="Path 426" transform="translate(-592.536 -427.001)"/></clipPath><clipPath id="e"><path d="M688.99 452.634c-3.202 2.517-7.308 5.458-13.749 7.796.026 2.276.396 5.33 1.6 9.034.89 2.739 2.422 5.35 4.222 7.714 4.182 5.354 8.216 8.342 11.584 10.602l.24.145.002.014c3.633 2.372 8.565 3.78 8.047 6.78a640.505 640.505 0 0 1 3.521-10.627c1.38-4.032 3.028-7.869 2.566-9.292-1.424-4.381-8.956-6.755-10.647-11.959-1.602-4.93 5.27-12.77 2.42-15.403-.597-.552-1.201-.787-1.815-.787-2.417 0-5.002 3.635-7.99 5.983" data-name="Path 462" transform="translate(-675.241 -446.651)"/></clipPath><clipPath id="f"><path d="M0 0h82.526v104.835H0V0z" data-name="Rectangle 125"/></clipPath></defs></svg>